<?xml version="1.0" encoding="UTF-8"?>
<svg id="Calque_4" data-name="Calque 4" xmlns="http://www.w3.org/2000/svg" xmlns:xlink="http://www.w3.org/1999/xlink" viewBox="0 0 877.71 374.86">
  <defs>
    <style>
      .cls-1, .cls-2, .cls-3 {
        fill: #fff;
      }

      .cls-4 {
        letter-spacing: -.02em;
      }

      .cls-2 {
        font-family: Dubai-Bold, Dubai;
        font-size: 30px;
        font-weight: 700;
      }

      .cls-5 {
        fill: #080d38;
      }

      .cls-3 {
        font-family: Dubai-Light, Dubai;
        font-size: 20px;
        font-weight: 300;
      }

      .cls-6 {
        fill: url(#Dégradé_sans_nom_133-2);
        stroke: url(#Dégradé_sans_nom_133-3);
      }

      .cls-6, .cls-7 {
        stroke-miterlimit: 10;
        stroke-width: 5px;
      }

      .cls-7 {
        fill: none;
        stroke: url(#Dégradé_sans_nom_133);
      }
    </style>
    <linearGradient id="Dégradé_sans_nom_133" data-name="Dégradé sans nom 133" x1="55.79" y1="223.81" x2="688.21" y2="223.81" gradientUnits="userSpaceOnUse">
      <stop offset="0" stop-color="#ffe983"/>
      <stop offset="1" stop-color="#7c561e"/>
    </linearGradient>
    <linearGradient id="Dégradé_sans_nom_133-2" data-name="Dégradé sans nom 133" x1="681.9" y1="223.43" x2="797.33" y2="223.43" xlink:href="#Dégradé_sans_nom_133"/>
    <linearGradient id="Dégradé_sans_nom_133-3" data-name="Dégradé sans nom 133" x1="679.4" y1="223.43" x2="799.83" y2="223.43" xlink:href="#Dégradé_sans_nom_133"/>
  </defs>
  <g id="Calque_7" data-name="Calque 7">
    <g id="Calque_10" data-name="Calque 10">
      <rect class="cls-5" x="58.29" y="130.47" width="627.43" height="186.67" rx="17.05" ry="17.05"/>
      <rect class="cls-7" x="58.29" y="130.47" width="627.43" height="186.67" rx="12.86" ry="12.86"/>
      <rect class="cls-6" x="681.9" y="127.43" width="115.43" height="192" rx="8.76" ry="8.76"/>
      <g>
        <path class="cls-1" d="m80.47,236.05l.9-1.23c.56.42,1.16.75,1.8.98.64.23,1.38.34,2.2.34,1.3,0,2.3-.39,2.98-1.19.68-.79,1.02-1.82,1.02-3.1v-13.98h1.74v14.01c0,1.26-.24,2.32-.73,3.18-.49.86-1.16,1.5-2.02,1.93-.86.43-1.87.65-3.03.65-1.82,0-3.45-.53-4.87-1.59Z"/>
        <path class="cls-1" d="m94.69,220.42c.37-.48.66-.92.87-1.33.21-.41.31-.74.31-1,0-.1-.02-.19-.06-.27-.04-.08-.09-.14-.16-.18-.21-.1-.37-.22-.48-.36-.11-.14-.17-.33-.17-.57,0-.32.1-.57.31-.76s.47-.29.78-.29.58.12.82.38.36.58.36,1c0,.62-.14,1.23-.42,1.83-.28.6-.73,1.27-1.35,2.01l-.81-.45Z"/>
        <path class="cls-1" d="m112.67,224.41v.15l-5.96,14.85c-.56,1.38-1.17,2.36-1.85,2.94s-1.53.87-2.56.87c-.79,0-1.58-.15-2.39-.45l.47-1.23c.6.24,1.21.36,1.83.36.43,0,.82-.07,1.15-.21s.64-.39.93-.75.58-.88.87-1.56l.84-2.07h-.53l-5.5-12.75v-.15h1.71l3.54,8.43c.58,1.38,1,2.45,1.27,3.21l1.24-3.24,3.32-8.4h1.61Z"/>
        <path class="cls-1" d="m124.4,237.22c-.89-.28-1.75-.71-2.58-1.29l.78-1.17c1.48,1.04,3.07,1.56,4.78,1.56,1.08,0,1.95-.21,2.61-.63s.99-1,.99-1.74c0-.48-.12-.88-.36-1.21-.24-.33-.6-.61-1.09-.84-.49-.23-1.16-.46-2.02-.67l-1.03-.27c-1.33-.32-2.33-.74-3-1.26-.67-.52-1-1.23-1-2.13,0-.7.2-1.31.61-1.83.4-.52.96-.92,1.68-1.2.71-.28,1.53-.42,2.44-.42s1.68.1,2.44.29c.75.19,1.59.53,2.5,1l-.72,1.17c-.81-.42-1.55-.71-2.21-.88-.66-.17-1.33-.25-2.02-.25-.96,0-1.72.17-2.27.52-.55.35-.83.86-.83,1.52,0,.4.1.72.3.97.2.25.5.46.89.63.4.17.95.35,1.66.53l1.03.27c1.11.28,1.99.58,2.66.92s1.16.74,1.49,1.23.49,1.09.49,1.81-.21,1.4-.62,1.98-1.01,1.03-1.79,1.35c-.78.32-1.69.48-2.75.48-1.14,0-2.15-.14-3.04-.42Z"/>
        <path class="cls-1" d="m146.97,224.23v13.08h-1.52l-.1-1.2c-.74.44-1.54.81-2.39,1.09-.85.29-1.71.44-2.58.44-1.25,0-2.3-.32-3.13-.95-.83-.63-1.25-1.68-1.25-3.17v-9.12l1.61-.18v8.82c0,.76.1,1.37.29,1.83s.52.8.99,1.04c.46.23,1.09.34,1.89.34.74,0,1.49-.13,2.26-.41.77-.27,1.51-.62,2.23-1.04v-10.41l1.68-.18Z"/>
        <path class="cls-1" d="m151.83,220.5c-.24-.23-.36-.5-.36-.79,0-.32.12-.59.36-.83.24-.23.51-.34.82-.34.33,0,.62.12.85.34.24.23.36.51.36.83,0,.3-.12.57-.36.79-.24.23-.52.34-.85.34-.31,0-.58-.11-.82-.34Zm.05,16.82v-12.9l1.62-.18v13.08h-1.62Z"/>
        <path class="cls-1" d="m159.33,237.22c-.89-.28-1.75-.71-2.58-1.29l.78-1.17c1.48,1.04,3.07,1.56,4.78,1.56,1.08,0,1.95-.21,2.61-.63s.99-1,.99-1.74c0-.48-.12-.88-.36-1.21-.24-.33-.6-.61-1.09-.84-.49-.23-1.16-.46-2.02-.67l-1.03-.27c-1.33-.32-2.33-.74-3-1.26-.67-.52-1-1.23-1-2.13,0-.7.2-1.31.61-1.83.4-.52.96-.92,1.68-1.2.71-.28,1.53-.42,2.44-.42s1.68.1,2.44.29c.75.19,1.59.53,2.5,1l-.72,1.17c-.81-.42-1.55-.71-2.21-.88-.66-.17-1.33-.25-2.02-.25-.96,0-1.72.17-2.27.52-.55.35-.83.86-.83,1.52,0,.4.1.72.3.97.2.25.5.46.89.63.4.17.95.35,1.66.53l1.03.27c1.11.28,1.99.58,2.66.92s1.16.74,1.49,1.23.49,1.09.49,1.81-.21,1.4-.62,1.98-1.01,1.03-1.79,1.35c-.78.32-1.69.48-2.75.48-1.14,0-2.15-.14-3.04-.42Z"/>
        <path class="cls-1" d="m188.35,228.37v8.94h-1.49l-.13-1.44c-.78.6-1.61,1.05-2.49,1.33-.88.29-1.76.44-2.64.44-.8,0-1.51-.14-2.12-.42-.61-.28-1.08-.67-1.42-1.19-.34-.51-.51-1.1-.51-1.78,0-1.6.86-2.79,2.57-3.57,1.71-.78,3.91-1.19,6.59-1.23v-.9c0-1.02-.23-1.79-.7-2.31-.46-.52-1.19-.78-2.18-.78-.78,0-1.57.12-2.37.38s-1.66.67-2.58,1.24l-.74-1.11c1.86-1.24,3.82-1.86,5.87-1.86,2.9,0,4.35,1.42,4.35,4.26Zm-8.51,7.35c.45.38,1.14.57,2.06.57.86,0,1.68-.15,2.45-.45s1.56-.73,2.36-1.29v-3.87c-2.24.04-4.06.33-5.45.88-1.39.55-2.09,1.41-2.09,2.57,0,.68.23,1.21.68,1.59Z"/>
        <path class="cls-1" d="m193.07,237.31v-20.64l1.62-.18v20.82h-1.62Z"/>
        <path class="cls-1" d="m199.59,237.31v-20.64l1.62-.18v20.82h-1.62Z"/>
        <path class="cls-1" d="m216.42,230.98h-9.87c.02,1.84.42,3.19,1.19,4.04.78.85,1.86,1.28,3.25,1.28.66,0,1.25-.07,1.77-.2.52-.13.97-.29,1.35-.48.38-.19.82-.44,1.32-.76l.65,1.14c-.77.52-1.56.93-2.38,1.21-.82.29-1.73.44-2.75.44-1.84,0-3.31-.55-4.39-1.65-1.09-1.1-1.63-2.8-1.63-5.1,0-1.14.23-2.22.68-3.25.46-1.03,1.15-1.88,2.08-2.54.93-.66,2.09-.99,3.48-.99,1.18,0,2.17.24,2.96.72.8.48,1.39,1.12,1.77,1.94.38.81.58,1.74.58,2.78,0,.58-.02,1.06-.06,1.44Zm-7.62-5.01c-.64.42-1.13.96-1.49,1.62s-.59,1.38-.69,2.16h8.26v-.24c0-1.32-.31-2.34-.92-3.08-.62-.73-1.55-1.09-2.8-1.09-.92,0-1.71.21-2.34.63Zm1.01-3.42l-.65-.69,4.69-3.54.93,1.23-4.97,3Z"/>
        <path class="cls-1" d="m237.47,228.37v8.94h-1.49l-.13-1.44c-.78.6-1.61,1.05-2.49,1.33-.88.29-1.76.44-2.64.44-.8,0-1.51-.14-2.12-.42-.61-.28-1.08-.67-1.42-1.19-.34-.51-.51-1.1-.51-1.78,0-1.6.86-2.79,2.57-3.57,1.71-.78,3.91-1.19,6.59-1.23v-.9c0-1.02-.23-1.79-.7-2.31-.46-.52-1.19-.78-2.18-.78-.78,0-1.57.12-2.37.38s-1.66.67-2.58,1.24l-.74-1.11c1.86-1.24,3.82-1.86,5.87-1.86,2.9,0,4.35,1.42,4.35,4.26Zm-8.51,7.35c.45.38,1.14.57,2.06.57.86,0,1.68-.15,2.45-.45s1.56-.73,2.36-1.29v-3.87c-2.24.04-4.06.33-5.45.88-1.39.55-2.09,1.41-2.09,2.57,0,.68.23,1.21.68,1.59Z"/>
        <path class="cls-1" d="m252.59,225.88c.89,1.18,1.33,2.73,1.33,4.65,0,1.58-.32,2.91-.96,3.98-.64,1.07-1.5,1.86-2.56,2.37-1.07.51-2.23.76-3.49.76-1.06,0-2.09-.17-3.1-.51v5.76h-1.62v-18.48l1.62-.18v1.23c.76-.42,1.56-.75,2.38-.99.82-.24,1.59-.36,2.31-.36,1.84,0,3.21.59,4.1,1.77Zm-2.83,9.78c.82-.44,1.45-1.09,1.89-1.96.44-.87.66-1.92.66-3.17,0-1.62-.33-2.87-.99-3.75-.66-.88-1.69-1.32-3.07-1.32-1.47,0-2.95.42-4.44,1.26v9.12c.94.32,1.96.48,3.06.48s2.08-.22,2.9-.66Z"/>
        <path class="cls-1" d="m264.01,224.16c.27.03.57.09.9.17l-.4,1.59c-.6-.18-1.13-.27-1.58-.27-.72,0-1.4.21-2.03.62-.63.41-1.18,1.08-1.63,2.02v9.03h-1.62v-12.9l1.62-.18v2.13c.52-.76,1.11-1.32,1.79-1.69.67-.37,1.38-.56,2.13-.56.29,0,.57.02.84.04Z"/>
        <path class="cls-1" d="m277.73,230.98h-9.87c.02,1.84.42,3.19,1.19,4.04.78.85,1.86,1.28,3.25,1.28.66,0,1.25-.07,1.77-.2.52-.13.97-.29,1.35-.48.38-.19.82-.44,1.32-.76l.65,1.14c-.77.52-1.56.93-2.38,1.21-.82.29-1.73.44-2.75.44-1.84,0-3.31-.55-4.39-1.65-1.09-1.1-1.63-2.8-1.63-5.1,0-1.14.23-2.22.68-3.25.46-1.03,1.15-1.88,2.08-2.54.93-.66,2.09-.99,3.48-.99,1.18,0,2.17.24,2.96.72.8.48,1.39,1.12,1.77,1.94.38.81.58,1.74.58,2.78,0,.58-.02,1.06-.06,1.44Zm-7.62-5.01c-.64.42-1.13.96-1.49,1.62s-.59,1.38-.69,2.16h8.26v-.24c0-1.32-.31-2.34-.92-3.08-.62-.73-1.55-1.09-2.8-1.09-.92,0-1.71.21-2.34.63Zm3.74-3.42l-4.97-3,.96-1.23,4.66,3.54-.65.69Z"/>
        <path class="cls-1" d="m282.45,237.22c-.89-.28-1.75-.71-2.58-1.29l.78-1.17c1.48,1.04,3.07,1.56,4.78,1.56,1.08,0,1.95-.21,2.61-.63s.99-1,.99-1.74c0-.48-.12-.88-.36-1.21-.24-.33-.6-.61-1.09-.84-.49-.23-1.16-.46-2.02-.67l-1.03-.27c-1.33-.32-2.33-.74-3-1.26-.67-.52-1-1.23-1-2.13,0-.7.2-1.31.61-1.83.4-.52.96-.92,1.68-1.2.71-.28,1.53-.42,2.44-.42s1.68.1,2.44.29c.75.19,1.59.53,2.5,1l-.72,1.17c-.81-.42-1.55-.71-2.21-.88-.66-.17-1.33-.25-2.02-.25-.96,0-1.72.17-2.27.52-.55.35-.83.86-.83,1.52,0,.4.1.72.3.97.2.25.5.46.89.63.4.17.95.35,1.66.53l1.03.27c1.11.28,1.99.58,2.66.92s1.16.74,1.49,1.23.49,1.09.49,1.81-.21,1.4-.62,1.98-1.01,1.03-1.79,1.35c-.78.32-1.69.48-2.75.48-1.14,0-2.15-.14-3.04-.42Z"/>
        <path class="cls-1" d="m311.48,228.37v8.94h-1.49l-.13-1.44c-.78.6-1.61,1.05-2.49,1.33-.88.29-1.76.44-2.64.44-.8,0-1.51-.14-2.12-.42-.61-.28-1.08-.67-1.42-1.19-.34-.51-.51-1.1-.51-1.78,0-1.6.86-2.79,2.57-3.57,1.71-.78,3.91-1.19,6.59-1.23v-.9c0-1.02-.23-1.79-.7-2.31-.46-.52-1.19-.78-2.18-.78-.78,0-1.57.12-2.37.38s-1.66.67-2.58,1.24l-.74-1.11c1.86-1.24,3.82-1.86,5.87-1.86,2.9,0,4.35,1.42,4.35,4.26Zm-8.51,7.35c.45.38,1.14.57,2.06.57.86,0,1.68-.15,2.45-.45s1.56-.73,2.36-1.29v-3.87c-2.24.04-4.06.33-5.45.88-1.39.55-2.09,1.41-2.09,2.57,0,.68.23,1.21.68,1.59Z"/>
        <path class="cls-1" d="m326.63,224.41v.15l-5.5,12.75h-1.65l-5.62-12.75v-.15h1.74l3.69,8.73c.25.56.47,1.1.67,1.62.2.52.33.87.39,1.05.21-.58.55-1.47,1.02-2.67l3.6-8.73h1.65Z"/>
        <path class="cls-1" d="m330.7,236.74c-.93-.6-1.63-1.41-2.11-2.44-.48-1.03-.71-2.19-.71-3.47,0-1.54.3-2.81.9-3.82s1.4-1.75,2.39-2.21c.99-.46,2.11-.69,3.35-.69,1.34,0,2.49.29,3.43.87.94.58,1.65,1.38,2.11,2.4.47,1.02.7,2.18.7,3.48,0,1.56-.29,2.85-.87,3.86s-1.37,1.75-2.36,2.22c-.99.47-2.13.71-3.42.71s-2.48-.3-3.42-.9Zm7.24-1.9c.8-.97,1.2-2.31,1.2-4.01s-.39-2.95-1.17-3.93c-.78-.98-1.97-1.47-3.58-1.47s-2.9.49-3.7,1.46c-.8.97-1.2,2.29-1.2,3.94s.39,2.99,1.19,3.98c.79.99,2,1.49,3.62,1.49s2.84-.49,3.64-1.46Z"/>
        <path class="cls-1" d="m344.44,220.5c-.24-.23-.36-.5-.36-.79,0-.32.12-.59.36-.83.24-.23.51-.34.82-.34.33,0,.62.12.85.34.24.23.36.51.36.83,0,.3-.12.57-.36.79-.24.23-.52.34-.85.34-.31,0-.58-.11-.82-.34Zm.05,16.82v-12.9l1.62-.18v13.08h-1.62Z"/>
        <path class="cls-1" d="m357.37,224.16c.27.03.57.09.9.17l-.4,1.59c-.6-.18-1.13-.27-1.58-.27-.72,0-1.4.21-2.03.62-.63.41-1.18,1.08-1.63,2.02v9.03h-1.62v-12.9l1.62-.18v2.13c.52-.76,1.11-1.32,1.79-1.69.67-.37,1.38-.56,2.13-.56.29,0,.57.02.84.04Z"/>
        <path class="cls-1" d="m369.29,237.31v-20.64l1.62-.18v20.82h-1.62Z"/>
        <path class="cls-1" d="m386.61,224.23v13.08h-1.52l-.1-1.2c-.74.44-1.54.81-2.39,1.09-.85.29-1.71.44-2.58.44-1.25,0-2.3-.32-3.13-.95-.83-.63-1.25-1.68-1.25-3.17v-9.12l1.61-.18v8.82c0,.76.1,1.37.29,1.83s.52.8.99,1.04c.46.23,1.09.34,1.89.34.74,0,1.49-.13,2.26-.41.77-.27,1.51-.62,2.23-1.04v-10.41l1.68-.18Z"/>
        <path class="cls-1" d="m400.99,236.88c-.89-.51-1.57-1.25-2.05-2.22-.48-.97-.71-2.13-.71-3.5,0-1.58.32-2.9.95-3.96.63-1.06,1.44-1.84,2.42-2.34.98-.5,2.01-.75,3.09-.75,1.32,0,2.67.35,4.04,1.05l-.6,1.2c-.67-.3-1.29-.52-1.87-.67s-1.16-.22-1.74-.22c-.96,0-1.79.24-2.49.72-.7.48-1.24,1.15-1.62,2.01-.38.86-.56,1.85-.56,2.97,0,3.4,1.48,5.1,4.45,5.1.75,0,1.46-.11,2.13-.33s1.34-.54,2.01-.96l.69,1.14c-1.49,1.02-3.15,1.53-4.97,1.53-1.22,0-2.28-.25-3.17-.76Z"/>
        <path class="cls-1" d="m422.41,230.98h-9.87c.02,1.84.42,3.19,1.19,4.04.78.85,1.86,1.28,3.25,1.28.66,0,1.25-.07,1.77-.2.52-.13.97-.29,1.35-.48.38-.19.82-.44,1.32-.76l.65,1.14c-.77.52-1.56.93-2.38,1.21-.82.29-1.73.44-2.75.44-1.84,0-3.31-.55-4.39-1.65-1.09-1.1-1.63-2.8-1.63-5.1,0-1.14.23-2.22.68-3.25.46-1.03,1.15-1.88,2.08-2.54.93-.66,2.09-.99,3.48-.99,1.18,0,2.17.24,2.96.72.8.48,1.39,1.12,1.77,1.94.38.81.58,1.74.58,2.78,0,.58-.02,1.06-.06,1.44Zm-7.62-5.01c-.64.42-1.13.96-1.49,1.62s-.59,1.38-.69,2.16h8.26v-.24c0-1.32-.31-2.34-.92-3.08-.62-.73-1.55-1.09-2.8-1.09-.92,0-1.71.21-2.34.63Z"/>
        <path class="cls-1" d="m440.45,224.16c.27.03.57.09.9.17l-.4,1.59c-.6-.18-1.13-.27-1.58-.27-.72,0-1.4.21-2.03.62-.63.41-1.18,1.08-1.63,2.02v9.03h-1.62v-12.9l1.62-.18v2.13c.52-.76,1.11-1.32,1.79-1.69.67-.37,1.38-.56,2.13-.56.29,0,.57.02.84.04Z"/>
        <path class="cls-1" d="m454.17,230.98h-9.87c.02,1.84.42,3.19,1.19,4.04.78.85,1.86,1.28,3.25,1.28.66,0,1.25-.07,1.77-.2.52-.13.97-.29,1.35-.48.38-.19.82-.44,1.32-.76l.65,1.14c-.77.52-1.56.93-2.38,1.21-.82.29-1.73.44-2.75.44-1.84,0-3.31-.55-4.39-1.65-1.09-1.1-1.63-2.8-1.63-5.1,0-1.14.23-2.22.68-3.25.46-1.03,1.15-1.88,2.08-2.54.93-.66,2.09-.99,3.48-.99,1.18,0,2.17.24,2.96.72.8.48,1.39,1.12,1.77,1.94.38.81.58,1.74.58,2.78,0,.58-.02,1.06-.06,1.44Zm-7.62-5.01c-.64.42-1.13.96-1.49,1.62s-.59,1.38-.69,2.16h8.26v-.24c0-1.32-.31-2.34-.92-3.08-.62-.73-1.55-1.09-2.8-1.09-.92,0-1.71.21-2.34.63Zm1.01-3.42l-.65-.69,4.69-3.54.93,1.23-4.97,3Z"/>
        <path class="cls-1" d="m459.54,236.88c-.89-.51-1.57-1.25-2.05-2.22-.48-.97-.71-2.13-.71-3.5,0-1.58.32-2.9.95-3.96.63-1.06,1.44-1.84,2.42-2.34.98-.5,2.01-.75,3.09-.75,1.32,0,2.67.35,4.04,1.05l-.6,1.2c-.67-.3-1.29-.52-1.87-.67s-1.16-.22-1.74-.22c-.96,0-1.79.24-2.49.72-.7.48-1.24,1.15-1.62,2.01-.38.86-.56,1.85-.56,2.97,0,3.4,1.48,5.1,4.45,5.1.75,0,1.46-.11,2.13-.33s1.34-.54,2.01-.96l.69,1.14c-1.49,1.02-3.15,1.53-4.97,1.53-1.22,0-2.28-.25-3.17-.76Z"/>
        <path class="cls-1" d="m470.61,220.5c-.24-.23-.36-.5-.36-.79,0-.32.12-.59.36-.83.24-.23.51-.34.82-.34.33,0,.62.12.85.34.24.23.36.51.36.83,0,.3-.12.57-.36.79-.24.23-.52.34-.85.34-.31,0-.58-.11-.82-.34Zm.05,16.82v-12.9l1.62-.18v13.08h-1.62Z"/>
        <path class="cls-1" d="m485.06,236.92c-.99.48-1.99.72-2.98.72-1.28,0-2.26-.38-2.93-1.12s-1.01-1.79-1.01-3.13v-7.71h-2.86v-1.26h2.86v-3.03l1.61-.24v3.27h4.94l-.19,1.26h-4.75v7.47c0,1.04.2,1.83.59,2.35.39.53,1.01.8,1.86.8.75,0,1.54-.18,2.39-.54l.47,1.17Z"/>
        <path class="cls-1" d="m487.14,240.88c.46-.6.81-1.17,1.06-1.7.25-.53.37-.96.37-1.3,0-.14-.04-.25-.11-.33-.07-.08-.17-.16-.29-.24-.19-.12-.32-.24-.4-.36-.08-.12-.12-.31-.12-.57,0-.34.11-.62.34-.84.23-.22.51-.33.84-.33.35,0,.65.12.9.38.25.25.37.62.37,1.12,0,.62-.17,1.34-.51,2.16-.34.82-.84,1.64-1.51,2.46l-.93-.45Z"/>
        <path class="cls-1" d="m503.34,236.88c-.89-.51-1.57-1.25-2.05-2.22-.48-.97-.71-2.13-.71-3.5,0-1.58.32-2.9.95-3.96.63-1.06,1.44-1.84,2.42-2.34.98-.5,2.01-.75,3.09-.75,1.32,0,2.67.35,4.04,1.05l-.6,1.2c-.67-.3-1.29-.52-1.87-.67s-1.16-.22-1.74-.22c-.96,0-1.79.24-2.49.72-.7.48-1.24,1.15-1.62,2.01-.38.86-.56,1.85-.56,2.97,0,3.4,1.48,5.1,4.45,5.1.75,0,1.46-.11,2.13-.33s1.34-.54,2.01-.96l.69,1.14c-1.49,1.02-3.15,1.53-4.97,1.53-1.22,0-2.28-.25-3.17-.76Z"/>
        <path class="cls-1" d="m513.49,220.42c.37-.48.66-.92.87-1.33.21-.41.31-.74.31-1,0-.1-.02-.19-.06-.27-.04-.08-.09-.14-.16-.18-.21-.1-.37-.22-.48-.36-.11-.14-.17-.33-.17-.57,0-.32.1-.57.31-.76s.47-.29.78-.29.58.12.82.38.36.58.36,1c0,.62-.14,1.23-.42,1.83-.28.6-.73,1.27-1.35,2.01l-.81-.45Z"/>
        <path class="cls-1" d="m529.57,230.98h-9.87c.02,1.84.42,3.19,1.19,4.04.78.85,1.86,1.28,3.25,1.28.66,0,1.25-.07,1.77-.2.52-.13.97-.29,1.35-.48.38-.19.82-.44,1.32-.76l.65,1.14c-.77.52-1.56.93-2.38,1.21-.82.29-1.73.44-2.75.44-1.84,0-3.31-.55-4.39-1.65-1.09-1.1-1.63-2.8-1.63-5.1,0-1.14.23-2.22.68-3.25.46-1.03,1.15-1.88,2.08-2.54.93-.66,2.09-.99,3.48-.99,1.18,0,2.17.24,2.96.72.8.48,1.39,1.12,1.77,1.94.38.81.58,1.74.58,2.78,0,.58-.02,1.06-.06,1.44Zm-7.62-5.01c-.64.42-1.13.96-1.49,1.62s-.59,1.38-.69,2.16h8.26v-.24c0-1.32-.31-2.34-.92-3.08-.62-.73-1.55-1.09-2.8-1.09-.92,0-1.71.21-2.34.63Z"/>
        <path class="cls-1" d="m534.29,237.22c-.89-.28-1.75-.71-2.58-1.29l.78-1.17c1.48,1.04,3.07,1.56,4.78,1.56,1.08,0,1.95-.21,2.61-.63s.99-1,.99-1.74c0-.48-.12-.88-.36-1.21-.24-.33-.6-.61-1.09-.84-.49-.23-1.16-.46-2.02-.67l-1.03-.27c-1.33-.32-2.33-.74-3-1.26-.67-.52-1-1.23-1-2.13,0-.7.2-1.31.61-1.83.4-.52.96-.92,1.68-1.2.71-.28,1.53-.42,2.44-.42s1.68.1,2.44.29c.75.19,1.59.53,2.5,1l-.72,1.17c-.81-.42-1.55-.71-2.21-.88-.66-.17-1.33-.25-2.02-.25-.96,0-1.72.17-2.27.52-.55.35-.83.86-.83,1.52,0,.4.1.72.3.97.2.25.5.46.89.63.4.17.95.35,1.66.53l1.03.27c1.11.28,1.99.58,2.66.92s1.16.74,1.49,1.23.49,1.09.49,1.81-.21,1.4-.62,1.98-1.01,1.03-1.79,1.35c-.78.32-1.69.48-2.75.48-1.14,0-2.15-.14-3.04-.42Z"/>
        <path class="cls-1" d="m553.63,236.92c-.99.48-1.99.72-2.98.72-1.28,0-2.26-.38-2.93-1.12s-1.01-1.79-1.01-3.13v-7.71h-2.86v-1.26h2.86v-3.03l1.61-.24v3.27h4.94l-.19,1.26h-4.75v7.47c0,1.04.2,1.83.59,2.35.39.53,1.01.8,1.86.8.75,0,1.54-.18,2.39-.54l.47,1.17Z"/>
        <path class="cls-1" d="m574.87,230.98h-9.87c.02,1.84.42,3.19,1.19,4.04.78.85,1.86,1.28,3.25,1.28.66,0,1.25-.07,1.77-.2.52-.13.97-.29,1.35-.48.38-.19.82-.44,1.32-.76l.65,1.14c-.77.52-1.56.93-2.38,1.21-.82.29-1.73.44-2.75.44-1.84,0-3.31-.55-4.39-1.65-1.09-1.1-1.63-2.8-1.63-5.1,0-1.14.23-2.22.68-3.25.46-1.03,1.15-1.88,2.08-2.54.93-.66,2.09-.99,3.48-.99,1.18,0,2.17.24,2.96.72.8.48,1.39,1.12,1.77,1.94.38.81.58,1.74.58,2.78,0,.58-.02,1.06-.06,1.44Zm-7.62-5.01c-.64.42-1.13.96-1.49,1.62s-.59,1.38-.69,2.16h8.26v-.24c0-1.32-.31-2.34-.92-3.08-.62-.73-1.55-1.09-2.8-1.09-.92,0-1.71.21-2.34.63Z"/>
        <path class="cls-1" d="m583.25,230.65l4.97,6.51v.15h-1.83l-4.19-5.55-4.22,5.55h-1.68v-.15l4.94-6.48-4.72-6.12v-.15h1.8l3.97,5.19,3.88-5.19h1.65v.15l-4.56,6.09Z"/>
        <path class="cls-1" d="m600.14,228.37v8.94h-1.49l-.13-1.44c-.78.6-1.61,1.05-2.49,1.33-.88.29-1.76.44-2.64.44-.8,0-1.51-.14-2.12-.42-.61-.28-1.08-.67-1.42-1.19-.34-.51-.51-1.1-.51-1.78,0-1.6.86-2.79,2.57-3.57,1.71-.78,3.91-1.19,6.59-1.23v-.9c0-1.02-.23-1.79-.7-2.31-.46-.52-1.19-.78-2.18-.78-.78,0-1.57.12-2.37.38s-1.66.67-2.58,1.24l-.74-1.11c1.86-1.24,3.82-1.86,5.87-1.86,2.9,0,4.35,1.42,4.35,4.26Zm-8.51,7.35c.45.38,1.14.57,2.06.57.86,0,1.68-.15,2.45-.45s1.56-.73,2.36-1.29v-3.87c-2.24.04-4.06.33-5.45.88-1.39.55-2.09,1.41-2.09,2.57,0,.68.23,1.21.68,1.59Z"/>
        <path class="cls-1" d="m606.44,236.88c-.89-.51-1.57-1.25-2.05-2.22-.48-.97-.71-2.13-.71-3.5,0-1.58.32-2.9.95-3.96.63-1.06,1.44-1.84,2.42-2.34.98-.5,2.01-.75,3.09-.75,1.32,0,2.67.35,4.04,1.05l-.6,1.2c-.67-.3-1.29-.52-1.87-.67s-1.16-.22-1.74-.22c-.96,0-1.79.24-2.49.72-.7.48-1.24,1.15-1.62,2.01-.38.86-.56,1.85-.56,2.97,0,3.4,1.48,5.1,4.45,5.1.75,0,1.46-.11,2.13-.33s1.34-.54,2.01-.96l.69,1.14c-1.49,1.02-3.15,1.53-4.97,1.53-1.22,0-2.28-.25-3.17-.76Z"/>
        <path class="cls-1" d="m625.44,236.92c-.99.48-1.99.72-2.98.72-1.28,0-2.26-.38-2.93-1.12s-1.01-1.79-1.01-3.13v-7.71h-2.86v-1.26h2.86v-3.03l1.61-.24v3.27h4.94l-.19,1.26h-4.75v7.47c0,1.04.2,1.83.59,2.35.39.53,1.01.8,1.86.8.75,0,1.54-.18,2.39-.54l.47,1.17Z"/>
        <path class="cls-1" d="m638.48,230.98h-9.87c.02,1.84.42,3.19,1.19,4.04.78.85,1.86,1.28,3.25,1.28.66,0,1.25-.07,1.77-.2.52-.13.97-.29,1.35-.48.38-.19.82-.44,1.32-.76l.65,1.14c-.77.52-1.56.93-2.38,1.21-.82.29-1.73.44-2.75.44-1.84,0-3.31-.55-4.39-1.65-1.09-1.1-1.63-2.8-1.63-5.1,0-1.14.23-2.22.68-3.25.46-1.03,1.15-1.88,2.08-2.54.93-.66,2.09-.99,3.48-.99,1.18,0,2.17.24,2.96.72.8.48,1.39,1.12,1.77,1.94.38.81.58,1.74.58,2.78,0,.58-.02,1.06-.06,1.44Zm-7.62-5.01c-.64.42-1.13.96-1.49,1.62s-.59,1.38-.69,2.16h8.26v-.24c0-1.32-.31-2.34-.92-3.08-.62-.73-1.55-1.09-2.8-1.09-.92,0-1.71.21-2.34.63Z"/>
        <path class="cls-1" d="m641.59,230.02v-1.47h8.26v1.47h-8.26Z"/>
        <path class="cls-1" d="m99.47,260.98c.76.58,1.13,1.59,1.13,3.03v9.3h-1.62v-8.67c0-1.14-.2-1.96-.6-2.45-.4-.49-1.1-.73-2.1-.73-1.22,0-2.7.42-4.44,1.26.1.4.16.83.16,1.29v9.3h-1.62v-8.67c0-.76-.09-1.37-.26-1.83s-.46-.8-.84-1.02c-.38-.22-.92-.33-1.6-.33s-1.37.12-2.13.34c-.76.23-1.47.51-2.16.85v10.65h-1.62v-12.9l1.62-.18v1.23c1.74-.9,3.3-1.35,4.69-1.35.7,0,1.34.12,1.92.34.58.23,1.04.63,1.4,1.19.81-.42,1.68-.78,2.61-1.08s1.82-.45,2.67-.45c1.1,0,2.02.29,2.78.87Z"/>
        <path class="cls-1" d="m115.66,266.98h-9.87c.02,1.84.42,3.19,1.19,4.04.78.85,1.86,1.28,3.25,1.28.66,0,1.25-.07,1.77-.2.52-.13.97-.29,1.35-.48.38-.19.82-.44,1.32-.76l.65,1.14c-.77.52-1.56.93-2.38,1.21-.82.29-1.73.44-2.75.44-1.84,0-3.31-.55-4.39-1.65-1.09-1.1-1.63-2.8-1.63-5.1,0-1.14.23-2.22.68-3.25.46-1.03,1.15-1.88,2.08-2.54.93-.66,2.09-.99,3.48-.99,1.18,0,2.17.24,2.96.72.8.48,1.39,1.12,1.77,1.94.38.81.58,1.74.58,2.78,0,.58-.02,1.06-.06,1.44Zm-7.62-5.01c-.64.42-1.13.96-1.49,1.62s-.59,1.38-.69,2.16h8.26v-.24c0-1.32-.31-2.34-.92-3.08-.62-.73-1.55-1.09-2.8-1.09-.92,0-1.71.21-2.34.63Z"/>
        <path class="cls-1" d="m129.36,261.03c.81.61,1.21,1.68,1.21,3.2v9.09h-1.61v-8.46c0-.8-.1-1.44-.29-1.93-.2-.49-.52-.86-.96-1.1-.45-.24-1.06-.36-1.85-.36-.75,0-1.54.12-2.38.34-.84.23-1.64.51-2.41.85v10.65h-1.62v-12.9l1.62-.18v1.26c.79-.38,1.63-.71,2.53-.97.9-.27,1.78-.41,2.65-.41,1.26,0,2.3.31,3.1.92Z"/>
        <path class="cls-1" d="m142.61,272.92c-.99.48-1.99.72-2.98.72-1.28,0-2.26-.38-2.93-1.12s-1.01-1.79-1.01-3.13v-7.71h-2.86v-1.26h2.86v-3.03l1.61-.24v3.27h4.94l-.19,1.26h-4.75v7.47c0,1.04.2,1.83.59,2.35.39.53,1.01.8,1.86.8.75,0,1.54-.18,2.39-.54l.47,1.17Z"/>
        <path class="cls-1" d="m155.12,272.88c-.89-.51-1.57-1.25-2.05-2.22-.48-.97-.71-2.13-.71-3.5,0-1.58.32-2.9.95-3.96.63-1.06,1.44-1.84,2.42-2.34.98-.5,2.01-.75,3.09-.75,1.32,0,2.67.35,4.04,1.05l-.6,1.2c-.67-.3-1.29-.52-1.87-.67s-1.16-.22-1.74-.22c-.96,0-1.79.24-2.49.72-.7.48-1.24,1.15-1.62,2.01-.38.86-.56,1.85-.56,2.97,0,3.4,1.48,5.1,4.45,5.1.75,0,1.46-.11,2.13-.33s1.34-.54,2.01-.96l.69,1.14c-1.49,1.02-3.15,1.53-4.97,1.53-1.22,0-2.28-.25-3.17-.76Z"/>
        <path class="cls-1" d="m167.88,272.74c-.93-.6-1.63-1.41-2.11-2.44-.48-1.03-.71-2.19-.71-3.47,0-1.54.3-2.81.9-3.82s1.4-1.75,2.39-2.21c.99-.46,2.11-.69,3.35-.69,1.34,0,2.49.29,3.43.87.94.58,1.65,1.38,2.11,2.4.47,1.02.7,2.18.7,3.48,0,1.56-.29,2.85-.87,3.86s-1.37,1.75-2.36,2.22c-.99.47-2.13.71-3.42.71s-2.48-.3-3.42-.9Zm7.24-1.9c.8-.97,1.2-2.31,1.2-4.01s-.39-2.95-1.17-3.93c-.78-.98-1.97-1.47-3.58-1.47s-2.9.49-3.7,1.46c-.8.97-1.2,2.29-1.2,3.94s.39,2.99,1.19,3.98c.79.99,2,1.49,3.62,1.49s2.84-.49,3.64-1.46Z"/>
        <path class="cls-1" d="m199.35,260.98c.76.58,1.13,1.59,1.13,3.03v9.3h-1.62v-8.67c0-1.14-.2-1.96-.6-2.45-.4-.49-1.1-.73-2.1-.73-1.22,0-2.7.42-4.44,1.26.1.4.16.83.16,1.29v9.3h-1.62v-8.67c0-.76-.09-1.37-.26-1.83s-.46-.8-.84-1.02c-.38-.22-.92-.33-1.6-.33s-1.37.12-2.13.34c-.76.23-1.47.51-2.16.85v10.65h-1.62v-12.9l1.62-.18v1.23c1.74-.9,3.3-1.35,4.69-1.35.7,0,1.34.12,1.92.34.58.23,1.04.63,1.4,1.19.81-.42,1.68-.78,2.61-1.08s1.82-.45,2.67-.45c1.1,0,2.02.29,2.78.87Z"/>
        <path class="cls-1" d="m222.91,260.98c.76.58,1.13,1.59,1.13,3.03v9.3h-1.62v-8.67c0-1.14-.2-1.96-.6-2.45-.4-.49-1.1-.73-2.1-.73-1.22,0-2.7.42-4.44,1.26.1.4.16.83.16,1.29v9.3h-1.62v-8.67c0-.76-.09-1.37-.26-1.83s-.46-.8-.84-1.02c-.38-.22-.92-.33-1.6-.33s-1.37.12-2.13.34c-.76.23-1.47.51-2.16.85v10.65h-1.62v-12.9l1.62-.18v1.23c1.74-.9,3.3-1.35,4.69-1.35.7,0,1.34.12,1.92.34.58.23,1.04.63,1.4,1.19.81-.42,1.68-.78,2.61-1.08s1.82-.45,2.67-.45c1.1,0,2.02.29,2.78.87Z"/>
        <path class="cls-1" d="m239.1,266.98h-9.87c.02,1.84.42,3.19,1.19,4.04.78.85,1.86,1.28,3.25,1.28.66,0,1.25-.07,1.77-.2.52-.13.97-.29,1.35-.48.38-.19.82-.44,1.32-.76l.65,1.14c-.77.52-1.56.93-2.38,1.21-.82.29-1.73.44-2.75.44-1.84,0-3.31-.55-4.39-1.65-1.09-1.1-1.63-2.8-1.63-5.1,0-1.14.23-2.22.68-3.25.46-1.03,1.15-1.88,2.08-2.54.93-.66,2.09-.99,3.48-.99,1.18,0,2.17.24,2.96.72.8.48,1.39,1.12,1.77,1.94.38.81.58,1.74.58,2.78,0,.58-.02,1.06-.06,1.44Zm-7.62-5.01c-.64.42-1.13.96-1.49,1.62s-.59,1.38-.69,2.16h8.26v-.24c0-1.32-.31-2.34-.92-3.08-.62-.73-1.55-1.09-2.8-1.09-.92,0-1.71.21-2.34.63Z"/>
        <path class="cls-1" d="m252.36,272.88c-.89-.51-1.57-1.25-2.05-2.22-.48-.97-.71-2.13-.71-3.5,0-1.58.32-2.9.95-3.96.63-1.06,1.44-1.84,2.42-2.34.98-.5,2.01-.75,3.09-.75,1.32,0,2.67.35,4.04,1.05l-.6,1.2c-.67-.3-1.29-.52-1.87-.67s-1.16-.22-1.74-.22c-.96,0-1.79.24-2.49.72-.7.48-1.24,1.15-1.62,2.01-.38.86-.56,1.85-.56,2.97,0,3.4,1.48,5.1,4.45,5.1.75,0,1.46-.11,2.13-.33s1.34-.54,2.01-.96l.69,1.14c-1.49,1.02-3.15,1.53-4.97,1.53-1.22,0-2.28-.25-3.17-.76Z"/>
        <path class="cls-1" d="m262.51,256.42c.37-.48.66-.92.87-1.33s.31-.75.31-1.01c0-.1-.02-.19-.06-.27-.04-.08-.09-.14-.16-.18-.21-.1-.37-.22-.48-.36-.11-.14-.17-.33-.17-.57,0-.32.1-.57.31-.76.21-.19.47-.29.78-.29s.58.12.82.38.36.58.36,1c0,.62-.14,1.23-.42,1.83-.28.6-.73,1.27-1.35,2.01l-.81-.45Z"/>
        <path class="cls-1" d="m278.59,266.98h-9.87c.02,1.84.42,3.19,1.19,4.04.78.85,1.86,1.28,3.25,1.28.66,0,1.25-.07,1.77-.2.52-.13.97-.29,1.35-.48.38-.19.82-.44,1.32-.76l.65,1.14c-.77.52-1.56.93-2.38,1.21-.82.29-1.73.44-2.75.44-1.84,0-3.31-.55-4.39-1.65-1.09-1.1-1.63-2.8-1.63-5.1,0-1.14.23-2.22.68-3.25.46-1.03,1.15-1.88,2.08-2.54.93-.66,2.09-.99,3.48-.99,1.18,0,2.17.24,2.96.72.8.48,1.39,1.12,1.77,1.94.38.81.58,1.74.58,2.78,0,.58-.02,1.06-.06,1.44Zm-7.62-5.01c-.64.42-1.13.96-1.49,1.62s-.59,1.38-.69,2.16h8.26v-.24c0-1.32-.31-2.34-.92-3.08-.62-.73-1.55-1.09-2.8-1.09-.92,0-1.71.21-2.34.63Z"/>
        <path class="cls-1" d="m283.31,273.22c-.89-.28-1.75-.71-2.58-1.29l.78-1.17c1.48,1.04,3.07,1.56,4.78,1.56,1.08,0,1.95-.21,2.61-.63s.99-1,.99-1.74c0-.48-.12-.88-.36-1.21-.24-.33-.6-.61-1.09-.84-.49-.23-1.16-.46-2.02-.67l-1.03-.27c-1.33-.32-2.33-.74-3-1.26-.67-.52-1-1.23-1-2.13,0-.7.2-1.31.61-1.83.4-.52.96-.92,1.68-1.2.71-.28,1.53-.42,2.44-.42s1.68.1,2.44.29c.75.19,1.59.53,2.5,1l-.72,1.17c-.81-.42-1.55-.71-2.21-.88-.66-.17-1.33-.25-2.02-.25-.96,0-1.72.17-2.27.52-.55.35-.83.86-.83,1.52,0,.4.1.72.3.97.2.25.5.46.89.63.4.17.95.35,1.66.53l1.03.27c1.11.28,1.99.58,2.66.92s1.16.74,1.49,1.23.49,1.09.49,1.81-.21,1.4-.62,1.98-1.01,1.03-1.79,1.35c-.78.32-1.69.48-2.75.48-1.14,0-2.15-.14-3.04-.42Z"/>
        <path class="cls-1" d="m302.65,272.92c-.99.48-1.99.72-2.98.72-1.28,0-2.26-.38-2.93-1.12s-1.01-1.79-1.01-3.13v-7.71h-2.86v-1.26h2.86v-3.03l1.61-.24v3.27h4.94l-.19,1.26h-4.75v7.47c0,1.04.2,1.83.59,2.35.39.53,1.01.8,1.86.8.75,0,1.54-.18,2.39-.54l.47,1.17Z"/>
        <path class="cls-1" d="m323.89,266.98h-9.87c.02,1.84.42,3.19,1.19,4.04.78.85,1.86,1.28,3.25,1.28.66,0,1.25-.07,1.77-.2.52-.13.97-.29,1.35-.48.38-.19.82-.44,1.32-.76l.65,1.14c-.77.52-1.56.93-2.38,1.21-.82.29-1.73.44-2.75.44-1.84,0-3.31-.55-4.39-1.65-1.09-1.1-1.63-2.8-1.63-5.1,0-1.14.23-2.22.68-3.25.46-1.03,1.15-1.88,2.08-2.54.93-.66,2.09-.99,3.48-.99,1.18,0,2.17.24,2.96.72.8.48,1.39,1.12,1.77,1.94.38.81.58,1.74.58,2.78,0,.58-.02,1.06-.06,1.44Zm-7.62-5.01c-.64.42-1.13.96-1.49,1.62s-.59,1.38-.69,2.16h8.26v-.24c0-1.32-.31-2.34-.92-3.08-.62-.73-1.55-1.09-2.8-1.09-.92,0-1.71.21-2.34.63Zm1.01-3.42l-.65-.69,4.69-3.54.93,1.23-4.97,3Z"/>
        <path class="cls-1" d="m329.26,272.88c-.89-.51-1.57-1.25-2.05-2.22-.48-.97-.71-2.13-.71-3.5,0-1.58.32-2.9.95-3.96.63-1.06,1.44-1.84,2.42-2.34.98-.5,2.01-.75,3.09-.75,1.32,0,2.67.35,4.04,1.05l-.6,1.2c-.67-.3-1.29-.52-1.87-.67s-1.16-.22-1.74-.22c-.96,0-1.79.24-2.49.72-.7.48-1.24,1.15-1.62,2.01-.38.86-.56,1.85-.56,2.97,0,3.4,1.48,5.1,4.45,5.1.75,0,1.46-.11,2.13-.33s1.34-.54,2.01-.96l.69,1.14c-1.49,1.02-3.15,1.53-4.97,1.53-1.22,0-2.28-.25-3.17-.76Z"/>
        <path class="cls-1" d="m346.73,260.16c.27.03.57.09.9.17l-.4,1.59c-.6-.18-1.13-.27-1.58-.27-.72,0-1.4.21-2.03.62-.63.41-1.18,1.08-1.63,2.02v9.03h-1.62v-12.9l1.62-.18v2.13c.52-.76,1.11-1.32,1.79-1.69.67-.37,1.38-.56,2.13-.56.29,0,.57.02.84.04Z"/>
        <path class="cls-1" d="m350.72,256.5c-.24-.23-.36-.49-.36-.79,0-.32.12-.59.36-.82.24-.23.51-.35.82-.35.33,0,.62.12.85.35.24.23.36.5.36.82,0,.3-.12.57-.36.79-.24.23-.52.35-.85.35-.31,0-.58-.12-.82-.35Zm.05,16.82v-12.9l1.62-.18v13.08h-1.62Z"/>
        <path class="cls-1" d="m365.18,272.92c-.99.48-1.99.72-2.98.72-1.28,0-2.26-.38-2.93-1.12s-1.01-1.79-1.01-3.13v-7.71h-2.86v-1.26h2.86v-3.03l1.61-.24v3.27h4.94l-.19,1.26h-4.75v7.47c0,1.04.2,1.83.59,2.35.39.53,1.01.8,1.86.8.75,0,1.54-.18,2.39-.54l.47,1.17Z"/>
        <path class="cls-1" d="m376.06,273.21c-.24-.23-.36-.5-.36-.82s.12-.59.36-.83c.24-.23.52-.34.85-.34s.62.12.87.34c.25.23.37.5.37.83s-.12.59-.37.82c-.25.23-.54.35-.87.35s-.62-.12-.85-.35Zm.17-5.32l-.31-14.01h1.92l-.34,13.89-1.27.12Z"/>
        <path class="cls-1" d="m393.97,272.64c-1.17-.67-2.04-1.59-2.62-2.78-.58-1.18-.87-2.55-.87-4.11v-11.88h1.74v11.55c0,4.5,2.09,6.75,6.27,6.75,2.02,0,3.56-.57,4.62-1.7,1.06-1.13,1.59-2.78,1.59-4.93v-11.67h1.74v11.79c0,1.84-.36,3.36-1.07,4.54-.71,1.19-1.68,2.06-2.89,2.61s-2.58.83-4.11.83c-1.76,0-3.22-.33-4.39-1Z"/>
        <path class="cls-1" d="m421.21,261.03c.81.61,1.21,1.68,1.21,3.2v9.09h-1.61v-8.46c0-.8-.1-1.44-.29-1.93-.2-.49-.52-.86-.96-1.1-.45-.24-1.06-.36-1.85-.36-.75,0-1.54.12-2.38.34-.84.23-1.64.51-2.41.85v10.65h-1.62v-12.9l1.62-.18v1.26c.79-.38,1.63-.71,2.53-.97.9-.27,1.78-.41,2.65-.41,1.26,0,2.3.31,3.1.92Z"/>
        <path class="cls-1" d="m445.46,261.88c.89,1.18,1.33,2.73,1.33,4.65,0,1.58-.32,2.91-.96,3.98-.64,1.07-1.5,1.86-2.56,2.37-1.07.51-2.23.76-3.49.76-1.06,0-2.09-.17-3.1-.51v5.76h-1.62v-18.48l1.62-.18v1.23c.76-.42,1.56-.75,2.38-.99.82-.24,1.59-.36,2.31-.36,1.84,0,3.21.59,4.1,1.77Zm-2.83,9.78c.82-.44,1.45-1.09,1.89-1.96.44-.87.66-1.92.66-3.17,0-1.62-.33-2.87-.99-3.75-.66-.88-1.69-1.32-3.07-1.32-1.47,0-2.95.42-4.44,1.26v9.12c.94.32,1.96.48,3.06.48s2.08-.22,2.9-.66Z"/>
        <path class="cls-1" d="m459.89,264.37v8.94h-1.49l-.13-1.44c-.78.6-1.61,1.05-2.49,1.33-.88.29-1.76.44-2.64.44-.8,0-1.51-.14-2.12-.42-.61-.28-1.08-.67-1.42-1.19-.34-.51-.51-1.1-.51-1.78,0-1.6.86-2.79,2.57-3.57,1.71-.78,3.91-1.19,6.59-1.23v-.9c0-1.02-.23-1.79-.7-2.31-.46-.52-1.19-.78-2.18-.78-.78,0-1.57.12-2.37.38s-1.66.67-2.58,1.24l-.74-1.11c1.86-1.24,3.82-1.86,5.87-1.86,2.9,0,4.35,1.42,4.35,4.26Zm-8.51,7.35c.45.38,1.14.57,2.06.57.86,0,1.68-.15,2.45-.45s1.56-.73,2.36-1.29v-3.87c-2.24.04-4.06.33-5.45.88-1.39.55-2.09,1.41-2.09,2.57,0,.68.23,1.21.68,1.59Z"/>
        <path class="cls-1" d="m470.98,260.16c.27.03.57.09.9.17l-.4,1.59c-.6-.18-1.13-.27-1.58-.27-.72,0-1.4.21-2.03.62-.63.41-1.18,1.08-1.63,2.02v9.03h-1.62v-12.9l1.62-.18v2.13c.52-.76,1.11-1.32,1.79-1.69.67-.37,1.38-.56,2.13-.56.29,0,.57.02.84.04Z"/>
        <path class="cls-1" d="m483.92,264.37v8.94h-1.49l-.13-1.44c-.78.6-1.61,1.05-2.49,1.33-.88.29-1.76.44-2.64.44-.8,0-1.51-.14-2.12-.42-.61-.28-1.08-.67-1.42-1.19-.34-.51-.51-1.1-.51-1.78,0-1.6.86-2.79,2.57-3.57,1.71-.78,3.91-1.19,6.59-1.23v-.9c0-1.02-.23-1.79-.7-2.31-.46-.52-1.19-.78-2.18-.78-.78,0-1.57.12-2.37.38s-1.66.67-2.58,1.24l-.74-1.11c1.86-1.24,3.82-1.86,5.87-1.86,2.9,0,4.35,1.42,4.35,4.26Zm-8.51,7.35c.45.38,1.14.57,2.06.57.86,0,1.68-.15,2.45-.45s1.56-.73,2.36-1.29v-3.87c-2.24.04-4.06.33-5.45.88-1.39.55-2.09,1.41-2.09,2.57,0,.68.23,1.21.68,1.59Z"/>
        <path class="cls-1" d="m499.2,252.49v20.82h-1.52l-.1-1.05c-.74.44-1.52.78-2.33,1.02-.81.24-1.6.36-2.36.36-1.21,0-2.23-.28-3.04-.83s-1.41-1.3-1.81-2.26c-.39-.96-.59-2.04-.59-3.24,0-1.44.28-2.71.83-3.79.56-1.09,1.35-1.93,2.38-2.52,1.03-.59,2.23-.88,3.61-.88,1.13,0,2.21.19,3.24.57v-8.01l1.68-.18Zm-9.09,18.42c.68.9,1.71,1.35,3.08,1.35.81,0,1.57-.12,2.27-.34.71-.23,1.39-.54,2.06-.92v-9c-1.04-.4-2.1-.6-3.18-.6s-2.01.23-2.8.67c-.79.45-1.4,1.12-1.82,2-.43.88-.64,1.94-.64,3.18,0,1.54.34,2.76,1.03,3.66Z"/>
        <path class="cls-1" d="m504.06,256.5c-.24-.23-.36-.49-.36-.79,0-.32.12-.59.36-.82.24-.23.51-.35.82-.35.33,0,.62.12.85.35.24.23.36.5.36.82,0,.3-.12.57-.36.79-.24.23-.52.35-.85.35-.31,0-.58-.12-.82-.35Zm.05,16.82v-12.9l1.62-.18v13.08h-1.62Z"/>
        <path class="cls-1" d="m511.55,273.22c-.89-.28-1.75-.71-2.58-1.29l.78-1.17c1.48,1.04,3.07,1.56,4.78,1.56,1.08,0,1.95-.21,2.61-.63s.99-1,.99-1.74c0-.48-.12-.88-.36-1.21-.24-.33-.6-.61-1.09-.84-.49-.23-1.16-.46-2.02-.67l-1.03-.27c-1.33-.32-2.33-.74-3-1.26-.67-.52-1-1.23-1-2.13,0-.7.2-1.31.61-1.83.4-.52.96-.92,1.68-1.2.71-.28,1.53-.42,2.44-.42s1.68.1,2.44.29c.75.19,1.59.53,2.5,1l-.72,1.17c-.81-.42-1.55-.71-2.21-.88-.66-.17-1.33-.25-2.02-.25-.96,0-1.72.17-2.27.52-.55.35-.83.86-.83,1.52,0,.4.1.72.3.97.2.25.5.46.89.63.4.17.95.35,1.66.53l1.03.27c1.11.28,1.99.58,2.66.92s1.16.74,1.49,1.23.49,1.09.49,1.81-.21,1.4-.62,1.98-1.01,1.03-1.79,1.35c-.78.32-1.69.48-2.75.48-1.14,0-2.15-.14-3.04-.42Z"/>
        <path class="cls-1" d="m532.14,273.22c-.89-.28-1.75-.71-2.58-1.29l.78-1.17c1.48,1.04,3.07,1.56,4.78,1.56,1.08,0,1.95-.21,2.61-.63s.99-1,.99-1.74c0-.48-.12-.88-.36-1.21-.24-.33-.6-.61-1.09-.84-.49-.23-1.16-.46-2.02-.67l-1.03-.27c-1.33-.32-2.33-.74-3-1.26-.67-.52-1-1.23-1-2.13,0-.7.2-1.31.61-1.83.4-.52.96-.92,1.68-1.2.71-.28,1.53-.42,2.44-.42s1.68.1,2.44.29c.75.19,1.59.53,2.5,1l-.72,1.17c-.81-.42-1.55-.71-2.21-.88-.66-.17-1.33-.25-2.02-.25-.96,0-1.72.17-2.27.52-.55.35-.83.86-.83,1.52,0,.4.1.72.3.97.2.25.5.46.89.63.4.17.95.35,1.66.53l1.03.27c1.11.28,1.99.58,2.66.92s1.16.74,1.49,1.23.49,1.09.49,1.81-.21,1.4-.62,1.98-1.01,1.03-1.79,1.35c-.78.32-1.69.48-2.75.48-1.14,0-2.15-.14-3.04-.42Z"/>
        <path class="cls-1" d="m554.71,260.23v13.08h-1.52l-.1-1.2c-.74.44-1.54.81-2.39,1.09-.85.29-1.71.44-2.58.44-1.25,0-2.3-.32-3.13-.95-.83-.63-1.25-1.68-1.25-3.17v-9.12l1.61-.18v8.82c0,.76.1,1.37.29,1.83s.52.8.99,1.04c.46.23,1.09.34,1.89.34.74,0,1.49-.13,2.26-.41.77-.27,1.51-.62,2.23-1.04v-10.41l1.68-.18Z"/>
        <path class="cls-1" d="m565.98,260.16c.27.03.57.09.9.17l-.4,1.59c-.6-.18-1.13-.27-1.58-.27-.72,0-1.4.21-2.03.62-.63.41-1.18,1.08-1.63,2.02v9.03h-1.62v-12.9l1.62-.18v2.13c.52-.76,1.11-1.32,1.79-1.69.67-.37,1.38-.56,2.13-.56.29,0,.57.02.84.04Z"/>
        <path class="cls-1" d="m592.46,253.87v1.47h-7.26v17.97h-1.74v-17.97h-7.3v-1.47h16.3Z"/>
        <path class="cls-1" d="m602.64,266.98h-9.87c.02,1.84.42,3.19,1.19,4.04.78.85,1.86,1.28,3.25,1.28.66,0,1.25-.07,1.77-.2.52-.13.97-.29,1.35-.48.38-.19.82-.44,1.32-.76l.65,1.14c-.77.52-1.56.93-2.38,1.21-.82.29-1.73.44-2.75.44-1.84,0-3.31-.55-4.39-1.65-1.09-1.1-1.63-2.8-1.63-5.1,0-1.14.23-2.22.68-3.25.46-1.03,1.15-1.88,2.08-2.54.93-.66,2.09-.99,3.48-.99,1.18,0,2.17.24,2.96.72.8.48,1.39,1.12,1.77,1.94.38.81.58,1.74.58,2.78,0,.58-.02,1.06-.06,1.44Zm-7.62-5.01c-.64.42-1.13.96-1.49,1.62s-.59,1.38-.69,2.16h8.26v-.24c0-1.32-.31-2.34-.92-3.08-.62-.73-1.55-1.09-2.8-1.09-.92,0-1.71.21-2.34.63Z"/>
        <path class="cls-1" d="m612.79,260.16c.27.03.57.09.9.17l-.4,1.59c-.6-.18-1.13-.27-1.58-.27-.72,0-1.4.21-2.03.62-.63.41-1.18,1.08-1.63,2.02v9.03h-1.62v-12.9l1.62-.18v2.13c.52-.76,1.11-1.32,1.79-1.69.67-.37,1.38-.56,2.13-.56.29,0,.57.02.84.04Z"/>
        <path class="cls-1" d="m623.19,260.16c.27.03.57.09.9.17l-.4,1.59c-.6-.18-1.13-.27-1.58-.27-.72,0-1.4.21-2.03.62-.63.41-1.18,1.08-1.63,2.02v9.03h-1.62v-12.9l1.62-.18v2.13c.52-.76,1.11-1.32,1.79-1.69.67-.37,1.38-.56,2.13-.56.29,0,.57.02.84.04Z"/>
        <path class="cls-1" d="m636.92,266.98h-9.87c.02,1.84.42,3.19,1.19,4.04.78.85,1.86,1.28,3.25,1.28.66,0,1.25-.07,1.77-.2.52-.13.97-.29,1.35-.48.38-.19.82-.44,1.32-.76l.65,1.14c-.77.52-1.56.93-2.38,1.21-.82.29-1.73.44-2.75.44-1.84,0-3.31-.55-4.39-1.65-1.09-1.1-1.63-2.8-1.63-5.1,0-1.14.23-2.22.68-3.25.46-1.03,1.15-1.88,2.08-2.54.93-.66,2.09-.99,3.48-.99,1.18,0,2.17.24,2.96.72.8.48,1.39,1.12,1.77,1.94.38.81.58,1.74.58,2.78,0,.58-.02,1.06-.06,1.44Zm-7.62-5.01c-.64.42-1.13.96-1.49,1.62s-.59,1.38-.69,2.16h8.26v-.24c0-1.32-.31-2.34-.92-3.08-.62-.73-1.55-1.09-2.8-1.09-.92,0-1.71.21-2.34.63Z"/>
        <path class="cls-1" d="m648.54,273.21c-.24-.23-.36-.5-.36-.82s.12-.59.36-.83c.24-.23.52-.34.85-.34s.62.12.87.34c.25.23.37.5.37.83s-.12.59-.37.82c-.25.23-.54.35-.87.35s-.62-.12-.85-.35Zm.17-5.32l-.31-14.01h1.92l-.34,13.89-1.27.12Z"/>
      </g>
      <text class="cls-2" transform="translate(343.25 165.75) scale(1.03 1)"><tspan class="cls-4" x="0" y="0">P</tspan><tspan x="16.83" y="0">aul</tspan></text>
      <text class="cls-3" transform="translate(311.25 193.92) scale(1.03 1)"><tspan x="0" y="0">15/01/2022</tspan></text>
    </g>
    <g>
      <path class="cls-5" d="m786.51,227.14v4.11c-.03.22-.07.43-.08.65-.2,3.74-.83,7.4-1.93,10.98-3.26,10.53-9.45,18.92-18.53,25.15-6.42,4.4-13.52,7.02-21.28,7.8-4.64.47-9.25.37-13.84-.53-9-1.77-16.83-5.78-23.46-12.13-8.44-8.08-13.27-17.94-14.38-29.56-.61-6.41.08-12.71,2.07-18.86,2.63-8.13,7.21-14.96,13.58-20.6,8.2-7.27,17.82-11.13,28.74-11.73,4.96-.27,9.88.3,14.65,1.66,14.38,4.12,24.56,13.14,30.7,26.73,1.93,4.28,3.05,8.8,3.51,13.48.09.95.18,1.9.27,2.84Zm-27.65-30.81c-.21-.1-.37-.17-.65-.3.1.36.18.61.25.86-.04.03-.07.05-.11.08-.55-.6-1.11-1.2-1.66-1.8.5.05.94.2,1.39.26.18.03.5-.09.56-.23.07-.17.01-.49-.12-.63-.24-.27-.55-.49-.86-.66-.52-.28-1.08-.48-1.59-.76-.33-.18-.61-.47-.93-.69-.2-.14-.47-.36-.66-.32-.69.14-1.37.37-2.04.59-.26.08-.5.23-.76.35.1.46-.2.83-.5,1.14-.8.82-1.57,1.66-2.79,1.98-.63.17-1.18.72-1.72,1.16-.36.29-.26.58.22.79-.18.14-.35.27-.52.4.06.15.14.26.15.38.09.66.11.7.8.68.49-.01.98-.07,1.48-.11.12.79.23,1.54.35,2.36.9-.37,1.85-.48,1.93-1.64,0-.12.2-.28.34-.34.67-.31.73-.47.34-1.08-.42-.66-.31-1.42.31-1.75.48-.25.79-.62.99-1.11.06-.14.13-.34.25-.39.19-.08.44-.11.64-.05.07.02.13.37.07.51-.13.29-.33.54-.52.8-.44.59-.6,1.19-.11,1.84.05.06.11.14.1.21-.03.48.29.46.6.41.38-.06.75-.17,1.12-.23.34-.06.66-.03.83.43-.41.06-.78.1-1.15.17-.83.14-.85.15-.92.98-.03.31-.13.5-.45.47-.59-.06-.8.25-.9.78-.13.68-.36.87-1.05.87-1,0-2.01-.02-3.01-.1-.3-.02-.59-.26-.85-.46-.07-.06-.05-.34.02-.46.32-.55.44-1.14.41-1.8-.23.11-.41.26-.57.42-.09.08-.16.19-.23.29-.12.17-.3.34-.35.53-.06.22.05.49,0,.71-.07.29-.17.7-.38.8-.24.11-.62-.04-.94-.1-.09-.02-.17-.12-.18-.13-1.96,1.09-3.94,1.89-6.29,1.81.23.37.39.6.52.85.21.41.48.8.58,1.24.21.96-.41,1.48-1.33,1.17-.2-.07-.38-.17-.57-.24-.44-.18-.87-.39-1.33-.52-.93-.25-1.4.04-1.55.83-.04.18-.12.36-.22.53-.25.42-.51.84-.78,1.26-.21.33-.22.63.1.88.45.35.87.78,1.38,1,1.11.47,2.32.7,3.26-.27.91-.93,2.1-1.35,3.14-2.03.23-.15.6-.12.91-.13.33,0,.65.09.98.08.38,0,.76-.09,1.14-.13.43-.04.73.15.81.57.13.66.55,1.1,1.03,1.5.34.28.68.57,1.02.86.36.31.57.67.49,1.17-.02.15.12.33.19.49.15-.12.36-.21.43-.36.12-.26.16-.57.24-.89h.6s.05-.08.07-.11c-.36-.34-.73-.68-1.08-1.03-.55-.55-1.11-1.1-1.64-1.67-.31-.33-.2-.68.07-.98.06-.07.34-.05.34-.03.1.37.43.5.69.72.6.51,1.19,1.05,1.75,1.6.31.31.66.63.81,1.02.27.69.54,1.35,1.05,1.91.07.08.11.25.08.35-.13.43.07.73.5.62.48-.12.94-.32,1.48-.51-.47-.49-.98-.83-1.04-1.41.79-.6,1.55-.38,2.3-.03-.15.32-.87.55-.15,1.02.04.03,0,.15.03.22.1.28.15.61.34.82.22.25.57.38.84.59.27.23.54.32.87.14.31-.17.59-.08.91.05.27.11.61.13.9.09.38-.06.75-.22,1.16-.35.18.96.1,1.81-.24,2.67-.23.57-.61.82-1.2.81-2.16-.03-4.29-.22-6.26-1.26-.31-.16-.69-.22-1.05-.26-.37-.04-.62.16-.75.53-.18.53-.38.64-.93.55-.8-.13-1.43-.57-2.08-1.02-.51-.35-1.07-.62-1.6-.93-.35-.21-.7-.43-1.04-.67-.09-.06-.16-.26-.13-.35.22-.55.48-1.08.76-1.7-.37-.12-.7-.25-1.05-.33-2.18-.47-4.36-.94-6.62-.73-.74.07-1.54.05-2.14-.48-.36-.32-.56-.23-.84.02-.48.44-1.02.73-1.69.79-.62.06-1.11.46-1.25,1.04-.23.95-.96,1.17-1.73,1.43-.59.2-1.19.43-1.73.74-.64.38-1.22.87-1.82,1.31-.47.34-.71.78-.78,1.36-.11.94-.29,1.88-.91,2.63-.63.76-.64,1.54-.27,2.4.29.67.63,1.33.81,2.03.4,1.55,1.33,2.73,2.4,3.84.23.24.58.47.89.5,1,.09,1.96.37,2.93.56,1.24.24,2.53.23,3.8.29,1.05.04,2.01.16,2.37,1.38.1.33.38.47.75.47.4,0,.8.05,1.18.14.69.14.92.5.71,1.18-.16.53-.4,1.04-.66,1.53-.27.48-.26.89.08,1.32.23.29.45.58.66.88.83,1.13,1.72,2.24,1.36,3.8-.03.11.01.26.06.37.22.5.02.87-.32,1.24-.48.51-.94,1.04-1.35,1.6-.31.42-.2,1.25.09,1.57.17.18.29.41.41.63.11.19.14.45.28.6.37.4.38.88.39,1.38,0,.3-.04.62.03.9.09.37.24.74.44,1.07.28.48.63.92.94,1.38.16.23.19.45-.07.67-.3.26-.18.52.1.7.17.11.38.18.58.19,1.77.07,3.53.12,5.3.18.08,0,.16-.01.23-.05,1.11-.58,2.24-1.14,3.32-1.78.31-.18.47-.6.72-.9.11-.14.24-.29.4-.36.23-.1.49-.13.74-.19,1.02-.27,1.3-.59,1.16-1.63-.08-.6.15-.92.62-1.12.64-.28,1.28-.57,1.95-.75,1.19-.32,1.97-.99,2.25-2.21.04-.17.1-.34.15-.5.13-.46.16-.9-.12-1.33-.09-.14-.12-.37-.09-.55.08-.45.3-.89-.03-1.33-.03-.04,0-.13.03-.18.28-.48.49-1.04.88-1.4,1.22-1.11,2.46-2.22,3.79-3.2,1.93-1.42,3.13-3.31,3.93-5.51.08-.22.1-.47.17-.81-.79.24-1.45.48-2.12.64-.57.14-1.15.21-1.73.26-.32.03-.48-.18-.58-.51-.12-.38-.32-.75-.57-1.06-.29-.35-.71-.6-1.03-.93-.26-.27-.55-.57-.67-.91-.2-.61-.5-1.12-.94-1.58-.15-.15-.25-.43-.23-.64.06-.62-.16-1.11-.54-1.58-.17-.2-.3-.44-.42-.68-.2-.41-.36-.84-.57-1.25-.3-.57-.62-1.12-.92-1.65.31.03.57.11.82.07.36-.06.5.1.67.37.38.62.76,1.25,1.23,1.79.39.45.6.91.6,1.5,0,.64.25,1.16.75,1.58.29.24.51.56.75.86.6.74.67,1.65.81,2.55.13.82.44,1,1.24.75,1.61-.49,3.11-1.21,4.34-2.41.15-.14.3-.29.48-.39,1.37-.75,2.32-1.82,2.75-3.36.21-.75.14-1.04-.57-1.38-.52-.25-1.03-.49-1.26-1.13-.32.32-.57.62-.87.87-.66.54-1.13.42-1.46-.35-.02-.04-.07-.06-.11-.11-.12.06-.25.12-.31.15-.3-.45-.59-.86-.85-1.29-.19-.32-.4-.66-.5-1.02-.13-.43.09-.61.52-.48.2.07.41.19.56.34.22.22.39.5.58.75.72.98,1.27,1.14,2.33.64.28-.13.48-.12.65.15.24.39.61.47,1.04.44.88-.05,1.74-.19,2.54-.6.3-.15.54-.18.8.11.2.22.47.38.71.56.32.25.62.47.56.97-.02.15.26.38.45.47.07.04.31-.18.42-.32.11-.14.17-.33.24-.5.22,1.06.37,2.11.65,3.13.33,1.22.76,2.42,1.15,3.63.04.12.18.31.25.3.13-.01.26-.14.36-.25.11-.13.18-.29.32-.53.06.66-.24,1.22.19,1.83.16-.21.37-.37.38-.54.02-.43-.04-.87-.11-1.3-.06-.39-.24-.76-.25-1.15-.01-.57.06-1.14.13-1.71.21-1.65.78-3.21,1.34-4.77.07-.2.14-.44.09-.64-1.1-5.24-3.04-10.13-5.88-14.67-3.02-4.82-6.85-8.9-11.39-12.31-.24-.18-.51-.34-.83-.55.03.2.04.28.07.44-.32-.25-.57-.44-.83-.64.05,0,.11-.01.16-.02.02-.08.09-.22.07-.24-.14-.12-.34-.33-.46-.3-.45.14-.66-.2-.93-.4-.36-.26-.69-.56-1.06-.82-.14-.1-.34-.12-.52-.18-.04.06-.08.12-.12.17.69.78,1.37,1.55,2.11,2.39-.54-.13-.99-.24-1.55-.38.13.38.21.61.28.82-.05.03-2.44,1.72-2.44,1.72q-.76-1.21-1.05-1.16c.04.17.09.33.13.49.08.36.38.76-.22.98-.07.03-.1.22-.12.34-.03.18-.04.37-.07.58Zm-61.95,18.64c-.04.11-.12.33-.18.54-.12.43-.2.87-.33,1.29-1.03,3.37-1.56,6.83-1.74,10.33-.29,5.61.53,11.08,2.39,16.39.48,1.38,1.07,2.72,1.63,4.07.11.27.33.49.49.73l.21-.05c.07-.58.16-1.15.19-1.73.02-.34-.08-.69-.11-1.04-.05-.5.02-.57.51-.51.32.04.64.06.94.14.42.12.66-.05.74-.44.21-1.02.52-2.05.57-3.08.05-.83.37-1.29,1.04-1.73,1.5-.97,1.64-1.69.77-3.27-.75-1.36-1.63-2.62-2.73-3.72-.38-.38-.69-.79-.85-1.35-.13-.44-.41-.87-.73-1.2-.19-.21-.34-.33-.34-.65,0-.24-.18-.5-.34-.69-.04-.05-.32.11-.49.13-.14.02-.3-.03-.44-.05-.02-.05-.03-.11-.05-.16,1.03-.18,1.03-.96,1.05-1.69.04-1.47-.17-2.88-.87-4.2-.27-.5-.41-1.1-.49-1.67-.11-.79-.11-1.6-.16-2.41,0-.11-.04-.22-.05-.33-.21-1.23-.42-2.47-.63-3.65Zm14.4-16.3s0,.07,0,.1c-.26.13-.54.24-.78.4-.1.06-.2.25-.17.34.03.09.21.18.33.19.54.08,1.55-.63,1.56-1.18,0-.57.35-.77.74-1,.18-.1.38-.17.54-.29.32-.24.29-.52-.06-.71-.15-.08-.32-.14-.5-.21.58-.27,1.02-.08,1.43.3.2.18.42.35.64.5.75.48,1.51.44,2.25,0,.14-.09.2-.32.29-.49.07-.13.13-.28.22-.41.14-.21.34-.38.44-.61.3-.66.76-1.17,1.33-1.6.53-.41,1.05-.82,1.59-1.23.11-.08.25-.13.38-.19-.04-.06-.09-.11-.13-.17h-1.03c.07-.12.08-.2.13-.23.76-.48,1.52-.95,2.28-1.42.02-.01.06.02.1.03.05.21.11.43.19.74.39-.34.71-.62,1.04-.91.09.18.16.33.26.54.67-.4,1.3-.79,1.94-1.18.02.03.03.05.05.08-.16.19-.32.38-.54.64.91-.02,1.62.01,2.2-.8.35-.5,1.13-.7,1.74-1,.99-.49,1.99-.95,3.04-1.45-.19-.16-.3-.26-.44-.38.59-.36,1.15.45,1.68,0-.07-.28-.13-.53-.2-.83-.74-.17-1.5-.13-2.21.17-.47.19-1,.46-1.26.86-.43.67-1.02.89-1.72,1-.1.02-.18.11-.28.17-.21-.23-.66-.35-.69-.08-.05.49-.39.44-.63.53-.66.26-1.33.43-2.04.13-.15-.06-.35-.05-.52-.01-.12.03-.3.16-.3.25-.03.8-.76.88-1.27,1.35.07-.39.12-.64.2-1.06-2.83.56-5.11,2.24-7.78,2.89.15-.14.31-.25.47-.36.8-.54,1.6-1.09,2.4-1.63.93-.63,1.85-1.3,2.8-1.9.94-.6,1.99-.91,3.12-.95.26,0,.52,0,.9,0-.39.3-.66.5-.93.7.07.08.14.15.21.23.62-.18,1.18-.47,1.55-1.07,1.31.38,2.63.21,3.93,0-.41-.17.18-.25.06-.5h-1.07c.57-.28,1.14-.52,1.73-.62,1.13-.19,2.27-.27,3.41-.43.42-.06.82-.22,1.23-.34,0-.04-.02-.09-.02-.13-.27-.1-.55-.2-.77-.28.8-.18,1.62-.37,2.44-.56,0-.06-.01-.13-.02-.19-.17-.01-.35-.05-.51-.04-4.21.41-8.33,1.22-12.32,2.69-7.27,2.68-13.39,7-18.48,12.82-.47.54-.8,1.07-.36,1.76.48-.92.98-1.82,2.1-2.15,1.06-.31,2.12-.66,3.19-.94.28-.07.61.05.91.08Zm39.61,73.85c-.77-.93-1.56-1.61-2.57-1.99-.52-.2-1.08-.31-1.57-.56-.99-.52-2.01-.49-3.07-.32-1.69.28-3.36.27-4.95-.52-.24-.12-.51-.21-.77-.25-.42-.07-.88-.2-1.27-.1-1.24.33-2.49.3-3.74.35-1.77.06-3.53.11-5.3.16-.45.01-.73.23-.97.59-.3.46-.27.99-.4,1.48-.16.62.1.71.54.84,2.58.79,5.22,1.31,7.9,1.56,4.94.48,9.86.27,14.72-.84.46-.1.9-.25,1.45-.41Zm-10.64-84.91c0,.08,0,.16,0,.23h-4.65c.45.55.45.59-.11.91-.14.08-.27.16-.42.22-.89.36-1.78.69-2.66,1.06-.4.17-.84.31-.95.84-.02.09-.17.15-.26.23-.5-.55-1.3-.47-1.75.17.27-.02.52-.03.76-.05.01.05.02.09.03.14-.58.2-1.15.48-1.74.57-1.92.28-3.21,1.53-4.48,2.81-.33.33-.46.74-.42,1.23.03.31-.04.64-.06.96.1-.04.24-.09.39-.15,1.08-.48,2.14-1,3.23-1.42.53-.2,1.13-.25,1.71-.32.67-.08,1.37-.03,2.03-.18.86-.19,1.68-.23,2.55-.1.6.09,1.23,0,1.85-.04.24-.02.4-.21.23-.44-.36-.48.03-.58.35-.79.08.34.14.63.21.95.61-.24.51-.8.7-1.21.11.17.19.3.31.48.34-.34.65-.62.39-.94.34-.02.74,0,1.12-.08.43-.09.84-.27,1.15-.38.25-.29.42-.56.66-.74,1.05-.79,2.19-1.42,3.45-1.79.17-.05.35-.11.58-.18-.28-.24-.49-.43-.76-.65.59-.08,1.16.08,1.55-.5-.84-.08-1.61-.15-2.38-.23,0-.05,0-.11.01-.16l.79-.15s.02-.09.03-.14c-.21-.13-.4-.32-.62-.39-.98-.3-1.97-.61-2.97-.83-.47-.1-1-.11-1.47,0-.72.17-1.39.13-2.1-.37,1.15-.14,1.92-.88,2.81-1.38-.77-.17-1.43-.99-2.26-.22.2.06.4.12.58.17-.06.21-.13.43-.19.64-1.06.09-1.06.09-2.17.77-.14.09-.24.26-.36.39.18.08.34.19.53.25.22.07.46.09.68.16.23.08.43.27.66.3.64.1,1.3.15,1.95.22.5.05,1,.1,1.5.14Zm20.92,63.39c.35-.15.69-.23.94-.42.41-.32.83-.67,1.14-1.08.91-1.2,1.79-2.43,2.64-3.68.17-.24.2-.6.22-.9,0-.12-.18-.33-.3-.36-.1-.02-.27.14-.38.25-.1.1-.12.28-.23.35-.79.49-1.44,1.19-2.44,1.33-.57.08-.91.48-1.06,1.09-.1.4-.37.76-.6,1.11-.14.21-.35.37-.51.57-.34.46-.12.93.05,1.36.06.16.33.23.53.37Zm-21.9-48.09c.15.07.22.11.29.13.88.15,1.75.31,2.64.42.5.06.67-.41.91-.73.19-.25.03-.4-.15-.56-.08-.07-.13-.18-.16-.28-.16-.56-.29-1.13-.45-1.69-.08-.28-.14-.53.08-.8.42-.51.4-.58-.15-.88.09-.16.18-.32.28-.48-.03-.05-.05-.1-.08-.14-.2.06-.45.06-.59.19-.32.3-.56.68-.87.99-.3.3-.32.28.06.48-.1.12-.2.24-.31.38.18.22.38.42.54.65.16.22.18.52-.13.57-.46.08-.72.36-.95.7-.09.14-.12.32-.21.61-.15.09-.43.25-.77.44Zm-4.92-4.81l.05.08c.5-.19,1.01-.34,1.48-.58.35-.18.37-.53.03-.72-.38-.22-.84-.29-1.27-.42-.19-.06-.45-.04-.55-.16-.28-.35-.56-.26-.75,0-.21.27-.46.66-.4.95.05.28.44.52.73.71.19.12.46.1.69.15Zm5.34,1.6c-.34.13-.7.19-.97.38-.18.13-.21.45-.33.67-.06.11-.18.18-.25.28-.11.17-.21.35-.31.53.2.1.4.29.6.28.27,0,.58-.1.79-.27.35-.29.65-.64.93-1.01.12-.15.2-.45.13-.59-.08-.15-.37-.18-.59-.27Zm-23.53-1.86c-.05-.07-.1-.13-.14-.2-.65.34-1.3.68-1.96,1-.32.16-.26.33-.12.6.19.35.3.75.44,1.13.04.12.06.26.09.38.09,0,.12,0,.15,0,.04-.01.1-.03.13-.06.45-.53.84-1.09.73-1.83-.05-.36-.02-.62.38-.74.12-.04.2-.18.3-.28Zm36.01-10.43s.05-.06.07-.09c.17.02.34.08.5.05.1-.01.25-.14.26-.23.03-.36-.56-.74-.9-.6-.16.06-.32.13-.49.15-.36.05-.53.27-.47.59.09.49.25.96.38,1.44.05.01.1.02.16.03.21-.26.42-.53.67-.84.13.45.24.73.67.48-.3-.34-.58-.67-.86-.99Zm8.77,4.85c-.18-.21-.33-.45-.53-.63-.66-.61-1.18-1.27-1.3-2.21-.04-.29-.27-.55-.46-.9-.66,1.32.79,3.7,2.29,3.74Zm-16.36,19.18c.11.15.25.34.39.52.17-.14.38-.25.5-.43.09-.14.08-.36.1-.54.03-.3.05-.6.05-.89,0-.18,0-.37-.05-.54-.01-.05-.24-.1-.28-.07-.13.14-.31.32-.3.48.02.37-.03.68-.27.96-.08.1-.08.26-.15.5Zm-5.58-25.68c.01.07.02.13.04.2.31-.04.62-.05.93-.11.38-.08.95.04.93-.57-.02-.55-.53-.59-.86-.64-.2.24-.37.43-.53.62,0,.04,0,.09,0,.13.22-.04.43-.07.65-.11.09-.02.18-.08.27-.08.03,0,.11.16.09.18-.07.07-.16.15-.26.16-.17.03-.35,0-.52.03-.25.04-.49.12-.74.18Zm-39.52,24.4c-.87.35-.93,1.21-.19,1.87.06-.64.12-1.2.19-1.87Zm47.56,2.89c.2.53.49.8.91.88.14.03.44-.15.45-.26.02-.16-.12-.45-.26-.49-.31-.1-.66-.09-1.1-.13Zm.9-10.79c.17.03.43.15.56.07.15-.09.21-.36.25-.56.02-.11-.12-.24-.18-.36-.14.1-.3.18-.4.31-.09.12-.12.29-.22.55Zm5.54,13.3c-.01.07-.02.14-.04.2.5.28,1.04.32,1.6.27.01-.06.02-.12.03-.18-.53-.1-1.07-.19-1.6-.29Zm-41.7-16.11c0,.06.01.13.02.19.15.04.37.17.44.11.2-.17.34-.4.5-.61-.05-.06-.1-.12-.15-.17-.27.16-.54.32-.8.48Zm47.97,16.6s-.04-.1-.06-.15c-.24.05-.49.08-.72.17-.09.04-.14.19-.2.29.12.04.27.16.35.12.23-.11.42-.29.63-.44Zm-6.21-16.2s-.1,0-.14-.01c-.08.2-.19.41-.21.62,0,.06.29.14.44.21.04-.03.07-.06.11-.09-.07-.24-.13-.48-.2-.72Zm-30.43,70.82c-.03.08-.06.15-.08.23.35.12.7.24,1.05.36.02-.06.05-.13.07-.19-.34-.13-.69-.26-1.03-.4Zm-9.29-73.09s.1.04.15.07c.12-.22.25-.43.35-.65.01-.02-.11-.11-.17-.16-.11.19-.23.38-.34.58-.02.04,0,.11.02.17Zm26.84.7s.06.09.09.14c.28-.18.57-.35.85-.53-.04-.06-.07-.12-.11-.17-.28.19-.56.37-.83.56Zm-15.13,73.58c.03-.06.06-.12.09-.19-.25-.14-.49-.27-.74-.41l-.12.24c.25.12.51.23.76.35Z"/>
      <path class="cls-5" d="m756.53,212.35c-.09-.31-.14-.54-.22-.76-.19-.57.82-2.63,1.42-2.7.3-.04.8.21.93.48.47.89.46.93,1.38.58.1-.04.21-.08.37-.15-.35-.2-.66-.37-1.05-.59.58-.24,1.1-.46,1.61-.67.05.03.09.06.14.09-.06.33-.13.67-.22,1.17.3.23.72.55,1.15.87.28.21.6.38.84.62.12.12.19.39.15.55-.04.13-.28.29-.43.29-.66-.01-1.36.04-1.98-.15-.95-.3-1.84-.26-2.76.02-.46.14-.93.26-1.34.38Z"/>
      <path class="cls-5" d="m765.8,193.3c.25.38.45.67.66,1-.44,0-.59-.22-.66-1Z"/>
      <path class="cls-5" d="m731.09,185.37c.76-.04,1.53-.08,2.29-.11-.47.57-1.73.65-2.28.27,0-.05,0-.1-.01-.16Z"/>
      <path class="cls-5" d="m740.43,186.97h.83c0,.06,0,.12,0,.18h-.83c0-.06,0-.12,0-.18Z"/>
    </g>
  </g>
</svg>