<?xml version="1.0" encoding="UTF-8"?>
<svg xmlns="http://www.w3.org/2000/svg" xmlns:xlink="http://www.w3.org/1999/xlink" viewBox="0 0 805.71 374.86">
  <defs>
    <style>
      .cls-1 {
        letter-spacing: -.02em;
      }

      .cls-2 {
        letter-spacing: -.02em;
      }

      .cls-3 {
        letter-spacing: -.02em;
      }

      .cls-4 {
        font-family: Dubai-Bold, Dubai;
        font-weight: 700;
      }

      .cls-4, .cls-5, .cls-6 {
        fill: #fff;
      }

      .cls-4, .cls-6 {
        font-size: 30px;
      }

      .cls-7 {
        letter-spacing: -.07em;
      }

      .cls-8, .cls-9 {
        fill: #080d38;
      }

      .cls-10 {
        letter-spacing: -.02em;
      }

      .cls-5 {
        font-size: 20px;
      }

      .cls-5, .cls-6 {
        font-family: Dubai-Light, Dubai;
        font-weight: 300;
      }

      .cls-11 {
        fill: url(#Dégradé_sans_nom_133-2);
        stroke: url(#Dégradé_sans_nom_133-3);
      }

      .cls-11, .cls-9, .cls-12 {
        stroke-miterlimit: 10;
        stroke-width: 5px;
      }

      .cls-13 {
        letter-spacing: .02em;
      }

      .cls-14 {
        letter-spacing: -.02em;
      }

      .cls-15 {
        fill: url(#Dégradé_sans_nom_140-2);
      }

      .cls-16 {
        letter-spacing: -.01em;
      }

      .cls-17 {
        letter-spacing: .03em;
      }

      .cls-9 {
        stroke: url(#Dégradé_sans_nom_140);
      }

      .cls-12 {
        fill: none;
        stroke: url(#Dégradé_sans_nom_133);
      }
    </style>
    <linearGradient id="Dégradé_sans_nom_133" data-name="Dégradé sans nom 133" x1="22.64" y1="229.61" x2="655.07" y2="229.61" gradientUnits="userSpaceOnUse">
      <stop offset="0" stop-color="#ffe983"/>
      <stop offset="1" stop-color="#7c561e"/>
    </linearGradient>
    <linearGradient id="Dégradé_sans_nom_133-2" data-name="Dégradé sans nom 133" x1="648.76" y1="229.23" x2="764.19" y2="229.23" xlink:href="#Dégradé_sans_nom_133"/>
    <linearGradient id="Dégradé_sans_nom_133-3" data-name="Dégradé sans nom 133" x1="646.26" y1="229.23" x2="766.69" y2="229.23" xlink:href="#Dégradé_sans_nom_133"/>
    <linearGradient id="Dégradé_sans_nom_140" data-name="Dégradé sans nom 140" x1="654.93" y1="221.69" x2="756.95" y2="221.69" gradientUnits="userSpaceOnUse">
      <stop offset=".11" stop-color="#7c561e"/>
      <stop offset="1" stop-color="#ffe983"/>
    </linearGradient>
    <linearGradient id="Dégradé_sans_nom_140-2" data-name="Dégradé sans nom 140" x1="671.68" y1="236.39" x2="739.72" y2="236.39" xlink:href="#Dégradé_sans_nom_140"/>
  </defs>
  <g id="Calque_1" data-name="Calque 1">
    <g id="Calque_9" data-name="Calque 9">
      <rect class="cls-8" x="25.14" y="136.28" width="627.43" height="186.67" rx="11.43" ry="11.43"/>
      <rect class="cls-12" x="25.14" y="136.28" width="627.43" height="186.67" rx="14.86" ry="14.86"/>
      <rect class="cls-11" x="648.76" y="133.23" width="115.43" height="192" rx="8.76" ry="8.76"/>
    </g>
  </g>
  <g id="Calque_4" data-name="Calque 4">
    <g id="Calque_7" data-name="Calque 7">
      <text class="cls-6" transform="translate(71.2 251.06) scale(1.03 1)"><tspan class="cls-7" x="0" y="0">L</tspan><tspan x="13.05" y="0">’hi</tspan><tspan class="cls-16" x="39.3" y="0">st</tspan><tspan x="61.53" y="0">oi</tspan><tspan class="cls-2" x="82.74" y="0">r</tspan><tspan x="92.19" y="0">e e</tspan><tspan class="cls-16" x="127.05" y="0">s</tspan><tspan x="139.02" y="0">t super p</tspan><tspan class="cls-2" x="245.82" y="0">r</tspan><tspan x="255.27" y="0">ena</tspan><tspan class="cls-1" x="297.84" y="0">n</tspan><tspan class="cls-16" x="312.6" y="0">t</tspan><tspan x="322.86" y="0">e </tspan><tspan class="cls-13" x="344.1" y="0">c</tspan><tspan class="cls-1" x="356.97" y="0">’</tspan><tspan x="361.02" y="0">e</tspan><tspan class="cls-16" x="374.64" y="0">s</tspan><tspan x="386.61" y="0">t inc</tspan><tspan class="cls-2" x="438.69" y="0">r</tspan><tspan class="cls-16" x="448.14" y="0">o</tspan><tspan class="cls-3" x="462.75" y="0">y</tspan><tspan x="475.44" y="0">able, </tspan><tspan x="117.78" y="36">j’ai l’imp</tspan><tspan class="cls-2" x="211.17" y="36">r</tspan><tspan x="220.62" y="36">ession d</tspan><tspan class="cls-17" x="317.88" y="36">’</tspan><tspan x="323.39" y="36">y </tspan><tspan class="cls-10" x="344.15" y="36">ê</tspan><tspan x="357.27" y="36">t</tspan><tspan class="cls-14" x="367.82" y="36">r</tspan><tspan x="377.27" y="36">e !!</tspan></text>
      <g id="Calque_10" data-name="Calque 10">
        <polygon class="cls-8" points="701.89 294.67 703.3 287.22 701.05 277.13 713.5 279.05 711.69 287.93 713.5 295.69 701.89 294.67"/>
      </g>
      <path class="cls-9" d="m700.35,272.94s-20.74-19.4-29.95-28.75c-9.21-9.35-28.59-48.25,10.73-71.22,0,0,33.51-15.85,62.67,12.19,25.65,24.66-2.06,59.03-10.27,67.48-6.37,6.55-13.44,14.48-19.15,20.86-3.05,3.41-14.03-.56-14.03-.56Z"/>
      <path class="cls-15" d="m703.96,304.37c-.11-.03-.22-.06-.33-.09-.16-.04-.32-.06-.48-.11-.95-.28-1.51-.92-1.65-1.89-.07-.49-.09-.99-.09-1.48,0-1.52,0-3.04,0-4.56,0-.18-.01-.36-.02-.57-.18,0-.34,0-.5-.02-.26-.02-.44-.21-.45-.45-.01-.25.18-.5.43-.52.19-.02.39,0,.6,0,.04-.1.08-.17.1-.25.44-2.37.87-4.74,1.31-7.11.04-.24.02-.46-.03-.68-.42-1.95-.84-3.9-1.26-5.85-.04-.18-.08-.34-.21-.49-.11-.12-.17-.28-.25-.43-1.56-3.07-2.86-6.24-3.83-9.54-.12-.43-.31-.77-.62-1.09-.63-.65-1.24-1.32-1.85-2-.16-.18-.32-.38-.44-.59-3.65-6.27-7.31-12.55-10.95-18.83-2.53-4.37-4.55-8.97-6.2-13.74-1.4-4.08-2.53-8.23-3.39-12.45-.38-1.86-.73-3.72-1.04-5.59-.22-1.32-.38-2.65-.55-3.97-.22-1.69-.36-3.38-.45-5.08-.11-2.08-.18-4.16-.07-6.24.04-.77.07-1.55.12-2.32.11-1.76.32-3.52.59-5.26.44-2.76,1.1-5.46,2-8.11.86-2.54,1.94-4.98,3.25-7.32.86-1.53,1.86-2.96,2.89-4.38.14-.2.33-.31.55-.41,1.96-.88,3.97-1.62,6.03-2.23,1.73-.51,3.48-.91,5.24-1.25.06-.01.13-.01.22-.02.01.18-.11.28-.18.39-1.02,1.45-1.9,2.97-2.69,4.56-1.06,2.15-1.91,4.38-2.62,6.67-.82,2.67-1.44,5.38-1.91,8.14-.31,1.77-.56,3.55-.74,5.34-.14,1.31-.23,2.63-.34,3.95-.16,1.98-.22,3.96-.25,5.94-.03,1.67,0,3.33.04,5,.05,1.83.12,3.66.24,5.49.12,1.78.28,3.55.5,5.32.22,1.82.56,3.62.91,5.42,1.29,6.51,3.03,12.91,4.95,19.26,2.46,8.1,5.24,16.09,8.21,24.01.17.45.34.89.51,1.34.01.03.04.05.09.12,1.48.33,3,.58,4.53.72.14-.15.08-.31.06-.44-.07-.62-.15-1.24-.23-1.87-.15-1.23-.3-2.46-.46-3.68-.15-1.23-.3-2.46-.45-3.69-.11-.93-.22-1.87-.34-2.8-.15-1.29-.31-2.59-.46-3.88-.11-.95-.22-1.9-.33-2.85-.12-1.05-.24-2.1-.36-3.15-.11-.98-.22-1.97-.33-2.95-.12-1.08-.24-2.16-.36-3.25-.11-1.03-.22-2.07-.33-3.1-.12-1.12-.24-2.23-.36-3.35-.11-1.1-.23-2.2-.34-3.3-.12-1.22-.24-2.43-.36-3.65-.08-.85-.16-1.71-.24-2.56-.12-1.33-.24-2.66-.35-3.99-.08-.97-.16-1.94-.23-2.91-.09-1.3-.19-2.6-.27-3.9-.07-1.14-.11-2.28-.15-3.41-.07-1.88-.13-3.76-.18-5.64-.04-1.4-.05-2.81-.06-4.21,0-1.49-.02-2.97,0-4.46.04-2.36.09-4.72.17-7.08.06-1.78.18-3.56.3-5.34.14-1.98.32-3.95.58-5.91.3-2.37.68-4.74,1.28-7.06.31-1.2.67-2.38,1.18-3.52.1-.23.21-.45.33-.69,2.81-.1,5.61-.1,8.42.15.09.18.17.34.24.5.52,1.27.9,2.58,1.22,3.92.44,1.9.76,3.82,1.01,5.75.23,1.78.41,3.57.55,5.37.1,1.28.16,2.57.24,3.85.15,2.47.2,4.95.24,7.42.04,2.23.02,4.46,0,6.69,0,1.53-.04,3.07-.09,4.6-.04,1.32-.1,2.64-.15,3.96-.04.99-.06,1.98-.12,2.97-.08,1.55-.18,3.1-.28,4.65-.07,1.09-.15,2.17-.24,3.26-.11,1.35-.23,2.7-.35,4.04-.08.87-.15,1.74-.23,2.61-.11,1.23-.24,2.46-.35,3.7-.08.82-.16,1.64-.24,2.46-.12,1.15-.24,2.3-.35,3.45-.11,1.08-.22,2.17-.34,3.25-.12,1.1-.24,2.2-.35,3.3-.11,1.03-.22,2.07-.34,3.1-.12,1.07-.24,2.13-.36,3.2-.11,1-.22,2-.34,3-.12,1.03-.24,2.07-.36,3.1-.11.98-.22,1.97-.34,2.95-.12,1-.24,2-.35,3-.11.97-.23,1.93-.34,2.9-.15,1.25-.3,2.49-.45,3.73-.07.59-.14,1.18-.21,1.77,0,.05.02.09.03.16.13.02.26.06.38.05,1.22-.03,2.44-.04,3.65-.2.15-.15.19-.35.26-.53,1.39-3.57,2.73-7.15,4.02-10.75,2.01-5.61,3.91-11.25,5.63-16.95,1.32-4.37,2.54-8.78,3.57-13.23.65-2.8,1.22-5.61,1.66-8.45.22-1.4.37-2.81.5-4.23.25-2.78.39-5.56.45-8.35.06-2.81.03-5.61-.11-8.42-.1-2.08-.26-4.15-.49-6.22-.37-3.27-.89-6.5-1.66-9.7-.78-3.2-1.78-6.32-3.16-9.31-.66-1.44-1.41-2.84-2.26-4.18-.09-.14-.16-.28-.25-.43.14-.11.27-.05.39-.02.85.25,1.71.49,2.56.76,3.31,1.05,5.99,3.17,8.93,4.27.3.16.72,1.58,1.02,1.02,1.58,2.51,3.14,4.62,4.16,7.4,1.05,2.88,1.8,5.83,2.29,8.85.27,1.66.46,3.33.6,5.01.2,2.47.22,4.95.14,7.42-.05,1.68-.18,3.36-.34,5.04-.5,5.12-1.45,10.16-2.67,15.15-1,4.09-2.25,8.1-3.79,12.03-1.48,3.75-3.23,7.37-5.26,10.86-4.21,7.23-8.42,14.46-12.62,21.69-.12.21-.24.43-.36.62.09.15.2.09.28.07.59-.16,1.18-.32,1.77-.48.09-.03.18-.05.31-.08,0,.09,0,.16-.01.21-.98,3.08-1.94,6.17-3.04,9.21-.07.2-.16.4-.24.6-.04.09-.06.21-.13.26-.22.17-.25.41-.3.65-.41,1.87-.81,3.74-1.23,5.61-.07.3-.06.57,0,.87.29,1.46.55,2.92.82,4.38.16.88.33,1.75.49,2.63.01.06.03.12.06.21.13.01.26.02.39.04.19.02.34.11.44.28.17.29.03.62-.3.69-.14.03-.29.03-.46.05,0,.16-.02.31-.02.45-.01,1.6-.02,3.2-.03,4.8,0,.55-.04,1.09-.17,1.62-.23.93-.8,1.49-1.76,1.64-.23.03-.46.05-.69.09-.15.02-.29.06-.43.09h-6.44Zm-.26-16.43c-.16.46-1.26,6.28-1.27,6.72.18,0,.36.01.54.01,2.62,0,5.24,0,7.86,0,.46,0,.92,0,1.38-.01.09,0,.18-.03.3-.05-.05-.29-.09-.55-.14-.8-.36-1.86-.72-3.72-1.09-5.58-.02-.09-.07-.18-.1-.26h-1.28c-.14.56-.45.9-1.07.9-.62,0-.92-.36-1.07-.9-.28-.01-.54-.05-.8.03-.14.5-.42.82-.97.85-.63.04-.98-.29-1.15-.87-.1,0-.18-.02-.26-.02-.3,0-.59,0-.91,0Zm4.1-.9c0-.18.02-.32.02-.47,0-.2,0-.4,0-.59.04-.45.38-.79.83-.84.13-.01.26-.01.39,0,.38.05.64.25.76.62.05.17.05.36.07.53.02.24-.03.49.04.75.39.03.76.06,1.16-.03-.41-1.9-.81-3.78-1.22-5.67,0-.04-.05-.08-.08-.13-.11,0-.23,0-.34,0-1.3.13-2.6.12-3.9,0-.16-.02-.32-.06-.48.02-.16.46-1.21,5.4-1.23,5.8.19.06.39.03.58.04.14,0,.29-.01.47-.02,0-.21.01-.39.02-.57,0-.18,0-.36.02-.54.06-.45.35-.75.79-.83.47-.09.91.08,1.11.46.08.14.11.31.13.47.02.21,0,.43.01.64,0,.11.02.22.03.34.26.08.5.05.81.02Zm3.89-6.15c0,1.83,0,3.6,0,5.36,0,.02,0,.04.02.04,0,0,.03,0,.06-.01.03-.1.06-.21.09-.32.37-1.66.73-3.32,1.09-4.98.03-.12.03-.25.04-.4-.46.07-.86.21-1.3.3Zm-9.8-.37c0,.13,0,.22.02.29.58,2.91,1.06,5.06,1.25,5.51.01-.11.03-.19.03-.27,0-1.65,0-3.3,0-4.94,0-.09-.04-.18-.06-.27-.41-.1-.79-.2-1.24-.31Zm1.68,5.84c.03-.06.06-.11.07-.17.34-1.56.67-3.12,1-4.68.03-.12.03-.25.04-.39-.4-.07-.76-.17-1.13-.17-.08.43-.11,3.78.02,5.4Zm6.61-5.24c.01.17,0,.27.03.36.35,1.61.7,3.22,1.06,4.82,0,.02.05.04.08.06,0-.05.02-.09.02-.14,0-1.65,0-3.3,0-4.94,0-.09-.03-.19-.04-.29-.39-.04-.73.11-1.14.12Z"/>
      <text class="cls-4" transform="translate(313.51 175.78) scale(1.03 1)"><tspan x="0" y="0">Julie</tspan></text>
      <text class="cls-5" transform="translate(284.11 203.94) scale(1.03 1)"><tspan x="0" y="0">02/10/2022</tspan></text>
    </g>
  </g>
</svg>