<?xml version="1.0" encoding="UTF-8"?>
<svg id="Calque_2" data-name="Calque 2" xmlns="http://www.w3.org/2000/svg" xmlns:xlink="http://www.w3.org/1999/xlink" viewBox="0 0 349.82 78.92">
  <defs>
    <style>
      .cls-1 {
        fill: url(#linear-gradient);
      }

      .cls-2 {
        fill: url(#linear-gradient-8);
      }

      .cls-3 {
        fill: url(#linear-gradient-9);
      }

      .cls-4 {
        fill: url(#linear-gradient-3);
      }

      .cls-5 {
        fill: url(#linear-gradient-4);
      }

      .cls-6 {
        fill: url(#linear-gradient-2);
      }

      .cls-7 {
        fill: url(#linear-gradient-6);
      }

      .cls-8 {
        fill: url(#linear-gradient-7);
      }

      .cls-9 {
        fill: url(#linear-gradient-5);
      }

      .cls-10 {
        fill: url(#linear-gradient-12);
      }

      .cls-11 {
        fill: url(#linear-gradient-10);
      }

      .cls-12 {
        fill: url(#linear-gradient-11);
      }
    </style>
    <linearGradient id="linear-gradient" x1="-779.41" y1="993.94" x2="689.66" y2="-506.2" gradientUnits="userSpaceOnUse">
      <stop offset="0" stop-color="#eedebc"/>
      <stop offset=".06" stop-color="#ddc5a3"/>
      <stop offset=".14" stop-color="#c9a885"/>
      <stop offset=".26" stop-color="#9a7a5f"/>
      <stop offset=".36" stop-color="#c9a885"/>
      <stop offset=".49" stop-color="#eedebc"/>
      <stop offset=".54" stop-color="#ddc5a3"/>
      <stop offset=".61" stop-color="#c9a885"/>
      <stop offset=".72" stop-color="#9a7a5f"/>
      <stop offset=".84" stop-color="#c9a885"/>
      <stop offset="1" stop-color="#eedebc"/>
    </linearGradient>
    <linearGradient id="linear-gradient-2" x1="-812.41" y1="961.63" x2="656.66" y2="-538.51" xlink:href="#linear-gradient"/>
    <linearGradient id="linear-gradient-3" x1="-794.29" y1="979.37" x2="674.78" y2="-520.77" xlink:href="#linear-gradient"/>
    <linearGradient id="linear-gradient-4" x1="-737.16" y1="1035.32" x2="731.91" y2="-464.82" xlink:href="#linear-gradient"/>
    <linearGradient id="linear-gradient-5" x1="-723.38" y1="1048.83" x2="745.7" y2="-451.32" xlink:href="#linear-gradient"/>
    <linearGradient id="linear-gradient-6" x1="-769.32" y1="1003.83" x2="699.75" y2="-496.31" xlink:href="#linear-gradient"/>
    <linearGradient id="linear-gradient-7" x1="-778.52" y1="994.82" x2="690.56" y2="-505.32" xlink:href="#linear-gradient"/>
    <linearGradient id="linear-gradient-8" x1="-750.18" y1="1022.57" x2="718.9" y2="-477.57" xlink:href="#linear-gradient"/>
    <linearGradient id="linear-gradient-9" x1="-836.6" y1="937.94" x2="632.47" y2="-562.2" xlink:href="#linear-gradient"/>
    <linearGradient id="linear-gradient-10" x1="-831.46" y1="942.97" x2="637.61" y2="-557.17" xlink:href="#linear-gradient"/>
    <linearGradient id="linear-gradient-11" x1="-667.47" y1="1103.57" x2="801.6" y2="-396.57" xlink:href="#linear-gradient"/>
    <linearGradient id="linear-gradient-12" x1="-672.52" y1="1098.62" x2="796.55" y2="-401.52" xlink:href="#linear-gradient"/>
  </defs>
  <g id="Object">
    <g>
      <g>
        <g>
          <path class="cls-1" d="m93.54,63.4c8.77,3.53,18.08-.15,26.59-2.59.89-.26,4.31-1.69,5.1-1.22.71.43,1.11,3.01,1.73,3.8,1.4,1.79,3.65,3.07,5.89,3.4,1.75.26,3.63-.12,5-1.25.18-.15.35-.32.42-.54.16-.59-.52-1.03-1.04-1.34-5.5-3.22-2.37-10.43,1.74-13.26,7.77-5.35,16.5-10.45,25.6-7.61,10.01,3.12,15.07,16.05,7.15,24.07-1.05,1.06-2.32,1.97-3.79,2.22-1.47.25-3.14-.32-3.86-1.63-.84-1.53-.17-3.47-.61-5.17-.79-3.07-5.4-3.96-7.69-1.76-2.28,2.21-2.03,6.24.07,8.63s5.53,3.25,8.69,2.91c8.2-.9,14.21-9.36,14.08-17.61-.02-1.19-.14-2.38-.38-3.55-.76-3.73-2.94-7.11-5.98-9.39-3.56-2.67-8.12-3.71-12.51-3.58-.53.02-1.06.04-1.59.09-8.55.82-16.49,4.8-23.62,9.61-4.28,2.24-8.75,3.9-13.69,4.02-2.49.06-5.02.05-7.46-.42-2.12-.41-6.63-3.16-3.73-6.19.48-.5.18-1.25-.45-1.23-3.64.13-7.38,2.17-8.49,6.36-.29,1.11-.34,2.28-.1,3.4.21.98.93,1.83,1.13,2.72-2.68.97-4.89,3.01-7.5,4.19-1.27.57-2.58,2.12-.69,2.88Z"/>
          <g>
            <path class="cls-6" d="m176.44,39.84c-1.15-.74-2.17-1.72-3.22-2.64-16.59-14.6-41.7-16.17-61.35-7.06-4.9,2.27-9.64,4.85-14.13,7.89-2.73,1.84-5.27,3.9-7.85,5.92-2.55,1.99-5.78,3.53-7.75,6.17-1.13,1.51-1.88,3.44-2.83,5.07-.97,1.67-1.99,3.32-3.14,4.87-2.57,3.45-5.68,6.12-9.76,7.66-3.57,1.34-7.41,1.67-11.19,1.77-1.6.04-3.15.11-4.74.22-.85.06-2.5.27-2.79-.85-.2-.81,4.88-5.69,4.97-6.52-10.65,3.68-23.2,1.11-31.55-6.45-3.57-3.23-6.44-7.41-7.39-12.13-1.23-6.11.87-12.47,4.1-17.8,1.68-2.77,3.71-5.39,6.31-7.32s5.84-3.13,9.08-2.88,6.4,2.13,7.79,5.06c.7,1.47.93,3.15.67,4.76-.33,1.99-1.53,3.92-3.37,4.75-3.99,1.81-9.09-1.9-12.84.36-1.55.93-2.44,2.73-2.69,4.52-.65,4.63,2.4,9.08,6.18,11.84,3.84,2.8,8.49,4.37,13.21,4.94,11.88,1.43,24.43-2.53,34.99-7.68,1.84-.9,3.65-1.86,5.43-2.88.21-.12.43-.25.64-.37,9.12-5.33,17.22-12.69,26.66-17.54,12.28-6.3,26.17-9.27,39.54-6.43,8.65,1.84,16.97,6.34,23.07,13.51,1.96,2.31,4.83,6.16,4.71,9.56-.31,0-.5-.15-.77-.32Z"/>
            <path class="cls-4" d="m155.64,23.25c2.39-.65-1.65-5.23-2.23-6.02-1.37-1.86-2.48-5.02.01-6.54,1.18-.72,2.62-.8,4-.95,4.12-.43,5.03-3.26,3.34-6.9-1.07-2.3-3.58-2.99-5.93-2.81-6.1.49-10.05,4.93-9.22,11.01.68,5.02,3.81,8.83,7.89,11.6.62.42,1.49.78,2.15.61Z"/>
          </g>
        </g>
        <g>
          <path class="cls-5" d="m264.69,63.4c-8.77,3.53-18.08-.15-26.59-2.59-.89-.26-4.31-1.69-5.1-1.22-.71.43-1.11,3.01-1.73,3.8-1.4,1.79-3.65,3.07-5.89,3.4-1.75.26-3.63-.12-5-1.25-.18-.15-.35-.32-.42-.54-.16-.59.52-1.03,1.04-1.34,5.5-3.22,2.37-10.43-1.74-13.26-7.77-5.35-16.5-10.45-25.6-7.61-10.01,3.12-15.07,16.05-7.15,24.07,1.05,1.06,2.32,1.97,3.79,2.22,1.47.25,3.14-.32,3.86-1.63.84-1.53.17-3.47.61-5.17.79-3.07,5.4-3.96,7.69-1.76,2.28,2.21,2.03,6.24-.07,8.63s-5.53,3.25-8.69,2.91c-8.2-.9-14.21-9.36-14.08-17.61.02-1.19.14-2.38.38-3.55.76-3.73,2.94-7.11,5.98-9.39,3.56-2.67,8.12-3.71,12.51-3.58.53.02,1.06.04,1.59.09,8.55.82,16.49,4.8,23.62,9.61,4.28,2.24,8.75,3.9,13.69,4.02,2.49.06,5.02.05,7.46-.42,2.12-.41,6.63-3.16,3.73-6.19-.48-.5-.18-1.25.45-1.23,3.64.13,7.38,2.17,8.49,6.36.29,1.11.34,2.28.1,3.4-.21.98-.93,1.83-1.13,2.72,2.68.97,4.89,3.01,7.5,4.19,1.27.57,2.58,2.12.69,2.88Z"/>
          <g>
            <path class="cls-9" d="m181.79,39.84c1.15-.74,2.17-1.72,3.22-2.64,16.59-14.6,41.69-16.17,61.35-7.06,4.9,2.27,9.64,4.85,14.13,7.89,2.73,1.84,5.27,3.9,7.85,5.92,2.55,1.99,5.78,3.53,7.75,6.17,1.13,1.51,1.88,3.44,2.83,5.07.97,1.67,1.99,3.32,3.14,4.87,2.57,3.45,5.68,6.12,9.76,7.66,3.57,1.34,7.41,1.67,11.19,1.77,1.6.04,3.15.11,4.74.22.85.06,2.5.27,2.79-.85.2-.81-4.88-5.69-4.97-6.52,10.65,3.68,23.2,1.11,31.55-6.45,3.57-3.23,6.44-7.41,7.39-12.13,1.23-6.11-.87-12.47-4.1-17.8-1.68-2.77-3.71-5.39-6.31-7.32s-5.84-3.13-9.08-2.88-6.4,2.13-7.79,5.06c-.7,1.47-.93,3.15-.67,4.76.33,1.99,1.53,3.92,3.37,4.75,3.99,1.81,9.09-1.9,12.84.36,1.56.93,2.44,2.73,2.69,4.52.65,4.63-2.4,9.08-6.18,11.84-3.84,2.8-8.49,4.37-13.21,4.94-11.88,1.43-24.43-2.53-34.99-7.68-1.84-.9-3.65-1.86-5.43-2.88-.21-.12-.43-.25-.64-.37-9.12-5.33-17.22-12.69-26.66-17.54-12.28-6.3-26.17-9.27-39.54-6.43-8.65,1.84-16.97,6.34-23.07,13.51-1.96,2.31-4.83,6.16-4.71,9.56.31,0,.5-.15.77-.32Z"/>
            <path class="cls-7" d="m202.59,23.25c-2.39-.65,1.65-5.23,2.23-6.02,1.37-1.86,2.48-5.02-.01-6.54-1.18-.72-2.62-.8-4-.95-4.12-.43-5.03-3.26-3.34-6.9,1.07-2.3,3.58-2.99,5.93-2.81,6.1.49,10.05,4.93,9.22,11.01-.68,5.02-3.81,8.83-7.89,11.6-.62.42-1.49.78-2.15.61Z"/>
          </g>
        </g>
        <path class="cls-8" d="m176.16,25.34c.65.45,1.27.9,1.88,1.39.21.13.4.29.59.46.09,0,.19,0,.28-.03.21-.07.4-.19.59-.32.65-.53,1.32-1.01,2.01-1.5,1.62-1.13,6.15-4.02,5.71-6.28-.12-.63-.45-1.19-.78-1.74-1.05-1.76-2.11-3.52-3.16-5.29-.53-.88-1.05-1.76-1.58-2.64-.73-1.23-1.04-2.59-2.46-3.23-.6-.27-1.08-.15-1.54.33-.74.77-1.18,1.75-1.66,2.69-.5.98-1.1,1.91-1.66,2.86-1.05,1.76-2.11,3.52-3.16,5.29-.33.55-.66,1.11-.78,1.74-.44,2.27,4.09,5.16,5.71,6.28Z"/>
      </g>
      <g>
        <path class="cls-2" d="m346.17,73.84c-1.94-.45-4.57-.49-7.01-.51-59.35-.55-118.74-.75-178.12-.75-11.39-.01-22.79-.05-34.18-.05-19.3,0-39.19.03-58.71.18-9.93.07-19.86.18-29.79.32-5.11.07-10.23.16-15.34.25-3.3.06-9.7-.21-11.95.66,1.72.41,4.43.37,6.59.37,60.31,0,120.61.04,180.92.06,24.27,0,48.45.13,72.69.19,25.12.07,50.29.13,75.3-.61-.13-.04-.26-.07-.4-.1Z"/>
        <path class="cls-3" d="m16.92,75.74c.39-.36.79-.71,1.22-1.05.12-.12.26-.23.41-.33,0-.05,0-.1-.03-.16-.06-.12-.17-.23-.28-.34-.46-.37-.88-.74-1.3-1.14-.98-.92-3.5-3.47-5.49-3.24-.55.06-1.04.25-1.52.43-1.55.58-3.09,1.16-4.64,1.74-.77.29-1.55.58-2.32.87-1.08.4-2.27.57-2.84,1.36-.24.34-.13.61.28.86.67.42,1.53.67,2.35.94.86.28,1.67.63,2.5.95,1.54.6,3.08,1.2,4.62,1.8.48.19.97.38,1.52.45,1.99.26,4.53-2.26,5.52-3.17Z"/>
        <path class="cls-11" d="m21.14,74.33c0,1.18-.88,2.13-1.95,2.13-1.07,0-1.94-.97-1.93-2.15,0-1.18.88-2.13,1.95-2.13,1.07,0,1.94.97,1.93,2.15Z"/>
        <path class="cls-12" d="m332.89,75.68c-.39-.36-.79-.71-1.22-1.05-.12-.12-.26-.23-.41-.33,0-.05,0-.1.03-.16.06-.12.17-.23.28-.34.46-.37.88-.74,1.3-1.14.98-.92,3.5-3.47,5.49-3.24.55.06,1.04.25,1.52.43,1.55.58,3.09,1.16,4.64,1.74.77.29,1.55.58,2.32.87,1.08.4,2.27.57,2.84,1.36.24.34.13.61-.28.86-.67.42-1.53.67-2.35.94-.86.28-1.67.63-2.5.95-1.54.6-3.08,1.2-4.62,1.8-.48.19-.97.38-1.52.45-1.99.26-4.53-2.26-5.52-3.17Z"/>
        <path class="cls-10" d="m328.68,74.28c0,1.18.88,2.13,1.95,2.13,1.07,0,1.94-.97,1.93-2.15,0-1.18-.88-2.13-1.95-2.13-1.07,0-1.94.97-1.93,2.15Z"/>
      </g>
    </g>
  </g>
</svg>