<?xml version="1.0" encoding="UTF-8"?>
<svg id="Calque_2" data-name="Calque 2" xmlns="http://www.w3.org/2000/svg" xmlns:xlink="http://www.w3.org/1999/xlink" viewBox="0 0 620.02 65.34">
  <defs>
    <style>
      .cls-1 {
        fill: url(#linear-gradient);
      }

      .cls-2 {
        fill: url(#linear-gradient-3);
      }

      .cls-3 {
        fill: url(#linear-gradient-4);
      }

      .cls-4 {
        fill: url(#linear-gradient-2);
      }

      .cls-5 {
        fill: url(#linear-gradient-6);
      }

      .cls-6 {
        fill: url(#linear-gradient-7);
      }

      .cls-7 {
        fill: url(#linear-gradient-5);
      }
    </style>
    <linearGradient id="linear-gradient" x1="-31.7" y1="325.54" x2="1437.38" y2="-1174.61" gradientUnits="userSpaceOnUse">
      <stop offset="0" stop-color="#eedebc"/>
      <stop offset=".06" stop-color="#ddc5a3"/>
      <stop offset=".14" stop-color="#c9a885"/>
      <stop offset=".26" stop-color="#9a7a5f"/>
      <stop offset=".36" stop-color="#c9a885"/>
      <stop offset=".49" stop-color="#eedebc"/>
      <stop offset=".54" stop-color="#ddc5a3"/>
      <stop offset=".61" stop-color="#c9a885"/>
      <stop offset=".72" stop-color="#9a7a5f"/>
      <stop offset=".84" stop-color="#c9a885"/>
      <stop offset="1" stop-color="#eedebc"/>
    </linearGradient>
    <linearGradient id="linear-gradient-2" x1="38.08" y1="393.87" x2="1507.15" y2="-1106.26" xlink:href="#linear-gradient"/>
    <linearGradient id="linear-gradient-3" x1="-13.07" y1="343.78" x2="1456" y2="-1156.36" xlink:href="#linear-gradient"/>
    <linearGradient id="linear-gradient-4" x1="-166.66" y1="193.37" x2="1302.41" y2="-1306.77" xlink:href="#linear-gradient"/>
    <linearGradient id="linear-gradient-5" x1="-158.29" y1="201.57" x2="1310.79" y2="-1298.57" xlink:href="#linear-gradient"/>
    <linearGradient id="linear-gradient-6" x1="134.45" y1="488.25" x2="1603.52" y2="-1011.89" xlink:href="#linear-gradient"/>
    <linearGradient id="linear-gradient-7" x1="126.22" y1="480.19" x2="1595.29" y2="-1019.95" xlink:href="#linear-gradient"/>
  </defs>
  <g id="Object">
    <g>
      <g>
        <path class="cls-1" d="m174.67,51.06c14.29,5.76,29.46-.25,43.33-4.21,1.45-.42,7.02-2.76,8.31-1.98,1.16.7,1.81,4.91,2.81,6.2,2.28,2.91,5.95,5,9.6,5.54,2.85.42,5.92-.2,8.14-2.03.29-.24.58-.51.68-.88.27-.96-.84-1.68-1.7-2.18-8.97-5.25-3.85-17,2.83-21.6,12.67-8.72,26.88-17.02,41.72-12.4,16.3,5.08,24.56,26.15,11.65,39.22-1.7,1.73-3.78,3.22-6.17,3.62-2.39.4-5.12-.52-6.29-2.65-1.37-2.5-.28-5.66-.99-8.42-1.29-5.01-8.8-6.46-12.52-2.87-3.72,3.59-3.3,10.17.11,14.06,3.41,3.89,9.01,5.3,14.15,4.74,13.36-1.46,23.15-15.25,22.95-28.69-.03-1.94-.23-3.88-.62-5.78-1.24-6.07-4.79-11.59-9.75-15.31-5.8-4.35-13.23-6.04-20.39-5.83-.87.03-1.73.07-2.59.15-13.92,1.34-26.87,7.82-38.49,15.67-6.98,3.65-14.26,6.35-22.31,6.55-4.05.1-8.18.08-12.16-.69-3.45-.67-10.8-5.14-6.08-10.09.78-.82.3-2.04-.73-2-5.93.21-12.03,3.54-13.84,10.36-.48,1.8-.55,3.72-.16,5.55.34,1.6,1.51,2.98,1.84,4.43-4.36,1.57-7.98,4.91-12.21,6.83-2.06.94-4.21,3.45-1.13,4.69Z"/>
        <path class="cls-4" d="m455.35,51.06c-14.29,5.76-29.46-.25-43.33-4.21-1.45-.42-7.02-2.76-8.31-1.98-1.16.7-1.81,4.91-2.81,6.2-2.28,2.91-5.95,5-9.6,5.54-2.85.42-5.92-.2-8.14-2.03-.29-.24-.58-.51-.68-.88-.27-.96.84-1.68,1.7-2.18,8.97-5.25,3.85-17-2.84-21.6-12.67-8.72-26.88-17.02-41.72-12.4-16.3,5.08-24.56,26.15-11.65,39.22,1.7,1.73,3.78,3.22,6.17,3.62,2.39.4,5.12-.52,6.29-2.65,1.38-2.5.28-5.66.99-8.42,1.29-5.01,8.8-6.46,12.52-2.87,3.72,3.59,3.3,10.17-.11,14.06-3.41,3.89-9.01,5.3-14.15,4.74-13.36-1.46-23.15-15.25-22.95-28.69.03-1.94.23-3.88.62-5.78,1.24-6.07,4.79-11.59,9.75-15.31,5.8-4.35,13.23-6.04,20.39-5.83.87.03,1.73.07,2.59.15,13.92,1.34,26.87,7.82,38.49,15.67,6.98,3.65,14.26,6.35,22.31,6.55,4.05.1,8.18.08,12.16-.69,3.45-.67,10.8-5.14,6.08-10.09-.78-.82-.3-2.04.73-2,5.93.21,12.03,3.54,13.84,10.36.48,1.8.55,3.72.16,5.55-.34,1.6-1.51,2.98-1.84,4.43,4.36,1.57,7.98,4.91,12.21,6.83,2.06.94,4.21,3.45,1.13,4.69Z"/>
      </g>
      <g>
        <path class="cls-2" d="m614.07,7.21c-3.16-.73-7.45-.8-11.43-.84-96.71-.89-213.49-1.23-310.24-1.23-18.56-.02-37.13-.08-55.7-.08-31.45,0-63.86.05-95.67.29-16.19.12-62.37.29-78.54.52-8.33.12-16.66.26-24.99.41-5.37.1-15.8-.35-19.48,1.08,2.81.67,7.22.6,10.73.6,98.27,0,226.54.07,324.81.1,39.54.01,78.96.21,118.44.31,40.93.11,101.95.21,142.71-1-.21-.06-.42-.11-.64-.16Z"/>
        <path class="cls-3" d="m27.57,10.29c.64-.59,1.29-1.16,1.99-1.7.19-.19.42-.37.66-.54,0-.08,0-.17-.05-.26-.1-.19-.27-.37-.45-.55-.75-.6-1.44-1.21-2.13-1.85C26,3.9,21.9-.26,18.66.12c-.9.11-1.7.4-2.48.7-2.52.95-5.04,1.89-7.56,2.84-1.26.47-2.52.95-3.78,1.42-1.75.66-3.7.93-4.62,2.22-.39.55-.22.99.46,1.41,1.09.68,2.49,1.1,3.83,1.54,1.4.46,2.73,1.02,4.07,1.55,2.51.98,5.02,1.96,7.53,2.94.78.3,1.58.61,2.48.73,3.24.42,7.38-3.69,9-5.16Z"/>
        <path class="cls-7" d="m34.45,8.01c-.01,1.92-1.43,3.48-3.18,3.46-1.75-.01-3.15-1.58-3.14-3.51.01-1.92,1.43-3.47,3.18-3.46,1.75.01,3.15,1.58,3.14,3.51Z"/>
        <path class="cls-5" d="m592.44,10.2c-.64-.59-1.29-1.16-1.99-1.7-.19-.19-.42-.37-.66-.54,0-.08,0-.17.05-.26.1-.19.27-.37.45-.55.75-.6,1.44-1.21,2.13-1.85,1.6-1.49,5.7-5.66,8.94-5.28.9.11,1.7.4,2.48.7,2.52.95,5.04,1.89,7.56,2.84,1.26.47,2.52.95,3.78,1.42,1.75.66,3.7.93,4.62,2.22.39.55.22.99-.46,1.41-1.09.68-2.49,1.1-3.83,1.54-1.4.46-2.73,1.02-4.07,1.55-2.51.98-5.02,1.96-7.53,2.94-.78.3-1.58.61-2.48.73-3.24.42-7.38-3.69-9-5.16Z"/>
        <path class="cls-6" d="m585.57,7.92c.01,1.92,1.43,3.48,3.18,3.46,1.75-.01,3.15-1.58,3.14-3.5-.01-1.92-1.43-3.48-3.18-3.46-1.75.01-3.15,1.58-3.14,3.5Z"/>
      </g>
    </g>
  </g>
</svg>