<?xml version="1.0" encoding="UTF-8"?>
<svg id="Calque_2" data-name="Calque 2" xmlns="http://www.w3.org/2000/svg" xmlns:xlink="http://www.w3.org/1999/xlink" viewBox="0 0 997.84 42.28">
  <defs>
    <style>
      .cls-1 {
        fill: url(#linear-gradient);
      }

      .cls-2 {
        fill: url(#linear-gradient-8);
      }

      .cls-3 {
        fill: url(#linear-gradient-9);
      }

      .cls-4 {
        fill: url(#linear-gradient-3);
      }

      .cls-5 {
        fill: url(#linear-gradient-4);
      }

      .cls-6 {
        fill: url(#linear-gradient-2);
      }

      .cls-7 {
        fill: url(#linear-gradient-6);
      }

      .cls-8 {
        fill: url(#linear-gradient-7);
      }

      .cls-9 {
        fill: url(#linear-gradient-5);
      }

      .cls-10 {
        fill: url(#linear-gradient-10);
      }

      .cls-11 {
        fill: url(#linear-gradient-11);
      }
    </style>
    <linearGradient id="linear-gradient" x1="169.74" y1="312.81" x2="1638.82" y2="-1187.33" gradientTransform="translate(520.06 -477.78) rotate(90)" gradientUnits="userSpaceOnUse">
      <stop offset="0" stop-color="#eedebc"/>
      <stop offset=".06" stop-color="#ddc5a3"/>
      <stop offset=".14" stop-color="#c9a885"/>
      <stop offset=".26" stop-color="#9a7a5f"/>
      <stop offset=".36" stop-color="#c9a885"/>
      <stop offset=".49" stop-color="#eedebc"/>
      <stop offset=".54" stop-color="#ddc5a3"/>
      <stop offset=".61" stop-color="#c9a885"/>
      <stop offset=".72" stop-color="#9a7a5f"/>
      <stop offset=".84" stop-color="#c9a885"/>
      <stop offset="1" stop-color="#eedebc"/>
    </linearGradient>
    <linearGradient id="linear-gradient-2" x1="207.38" y1="349.67" x2="1676.46" y2="-1150.47" xlink:href="#linear-gradient"/>
    <linearGradient id="linear-gradient-3" x1="196.5" y1="339.01" x2="1665.57" y2="-1161.13" xlink:href="#linear-gradient"/>
    <linearGradient id="linear-gradient-4" x1="435.25" y1="572.82" x2="1904.32" y2="-927.32" xlink:href="#linear-gradient"/>
    <linearGradient id="linear-gradient-5" x1="423.22" y1="561.04" x2="1892.29" y2="-939.11" xlink:href="#linear-gradient"/>
    <linearGradient id="linear-gradient-6" x1="416.86" y1="554.81" x2="1885.93" y2="-945.34" xlink:href="#linear-gradient"/>
    <linearGradient id="linear-gradient-7" x1="321.43" y1="461.36" x2="1790.51" y2="-1038.78" xlink:href="#linear-gradient"/>
    <linearGradient id="linear-gradient-8" x1="-51.25" y1="96.4" x2="1417.83" y2="-1403.75" xlink:href="#linear-gradient"/>
    <linearGradient id="linear-gradient-9" x1="-32.87" y1="114.4" x2="1436.21" y2="-1385.74" xlink:href="#linear-gradient"/>
    <linearGradient id="linear-gradient-10" x1="-39.23" y1="108.17" x2="1429.85" y2="-1391.98" xlink:href="#linear-gradient"/>
    <linearGradient id="linear-gradient-11" x1="62.56" y1="207.85" x2="1531.63" y2="-1292.3" xlink:href="#linear-gradient"/>
  </defs>
  <g id="Object">
    <g>
      <g>
        <path class="cls-1" d="m508.24,0c.27,0,.54,0,.81.03,1.44-.03,14.26.21,23.03,16.03,2.91,5.16,6.83,10,10.23,12.61l.51.42c4.37,3.55,10.18,4.63,15.56,2.89,5.14-1.67,8.87-5.57,10.24-10.71.11-.4.2-.81.28-1.22.72-3.7-.21-7.49-2.6-10.68-3.41-4.54-7.94-6.55-12.43-5.51-4.05.94-7.18,4.23-7.98,8.39-.4,2.11.14,4.38,1.48,6.2,2.03,2.75,4.71,3.98,7.35,3.39,2.36-.54,4.19-2.45,4.65-4.87.48-2.5-1.12-4.92-3.57-5.41l.69-3.49c4.36.86,7.22,5.15,6.38,9.57-.73,3.82-3.62,6.83-7.36,7.68-4.03.92-8.14-.86-11-4.75-1.93-2.63-2.7-5.9-2.11-8.98,1.06-5.54,5.25-9.93,10.67-11.19,5.84-1.35,11.85,1.21,16.08,6.84,3,4,4.16,8.79,3.25,13.49-.1.5-.21.98-.34,1.46-1.69,6.33-6.27,11.13-12.58,13.18-6.53,2.12-13.6.81-18.9-3.51l-.48-.39c-3.78-2.9-7.95-8.02-11.13-13.67-8.07-14.56-19.77-14.2-19.88-14.21h-.11s-.11,0-.11,0c-2.01-.16-3.97.48-5.52,1.8-1.59,1.36-2.56,3.27-2.72,5.38-.25,3.22,2.11,6.07,5.25,6.35,1.12.11,2.3-.35,3.17-1.2,1.31-1.28,1.77-2.78,1.29-4.14-.41-1.14-1.44-1.94-2.63-2.04l.29-3.55c2.57.21,4.8,1.92,5.69,4.38.97,2.68.17,5.63-2.15,7.89-1.6,1.57-3.83,2.4-5.97,2.2-5.08-.45-8.89-5.01-8.48-10.17.24-3.06,1.65-5.83,3.96-7.81C503.07.93,505.6,0,508.24,0Z"/>
        <path class="cls-6" d="m489.4,0c2.64,0,5.17.93,7.21,2.67,2.32,1.98,3.72,4.75,3.96,7.81.4,5.15-3.4,9.71-8.48,10.17-2.13.19-4.37-.63-5.97-2.2-2.31-2.26-3.12-5.21-2.15-7.89.89-2.45,3.12-4.17,5.69-4.38l.29,3.55c-1.18.1-2.22.89-2.63,2.04-.49,1.35-.02,2.86,1.29,4.14.87.85,2.05,1.3,3.17,1.2,3.15-.28,5.5-3.13,5.25-6.35-.16-2.11-1.13-4.02-2.72-5.38-1.55-1.32-3.51-1.96-5.52-1.8h-.11s-.11,0-.11,0c-.48,0-11.87-.25-19.88,14.2-3.18,5.66-7.36,10.78-11.18,13.71l-.43.35c-5.31,4.32-12.38,5.63-18.9,3.51-6.31-2.05-10.89-6.85-12.58-13.18-.13-.48-.24-.97-.34-1.46-.91-4.7.24-9.49,3.25-13.49,4.23-5.64,10.24-8.19,16.08-6.84,5.42,1.26,9.61,5.65,10.67,11.19.59,3.09-.18,6.36-2.11,8.98-2.86,3.89-6.98,5.66-11,4.75-3.74-.85-6.63-3.86-7.36-7.68-.84-4.41,2.02-8.71,6.38-9.57l.69,3.49c-2.45.48-4.05,2.91-3.57,5.41.46,2.42,2.29,4.34,4.65,4.87,2.64.6,5.32-.63,7.35-3.39,1.35-1.83,1.89-4.09,1.48-6.2-.8-4.16-3.93-7.45-7.98-8.39-4.49-1.04-9.02.97-12.43,5.51-2.39,3.19-3.32,6.98-2.6,10.68.08.42.17.82.28,1.23,1.37,5.14,5.1,9.04,10.24,10.71,5.38,1.75,11.19.66,15.56-2.89l.47-.39c3.44-2.65,7.37-7.48,10.28-12.65C474.34.23,487.12-.02,488.59.03c.27-.02.54-.03.81-.03Z"/>
        <path class="cls-4" d="m498.82,19.84c2.83,0,5.11,1.92,5.66,4.77h0c1.27,6.57-3.93,14.93-4.15,15.28l-1.51,2.39-1.51-2.39c-.22-.35-5.43-8.71-4.15-15.28.55-2.85,2.83-4.77,5.66-4.77Zm2.16,5.45c-.27-1.39-1.29-1.89-2.16-1.89s-1.89.5-2.16,1.89c-.62,3.19.9,7.24,2.16,9.9,1.27-2.66,2.78-6.71,2.16-9.9h0Z"/>
      </g>
      <g>
        <path class="cls-5" d="m15.2,15.27c.74,0,1.46.06,2.17.21,2.81.56,4.71,2.86,4.71,5.72s-1.89,5.16-4.71,5.72h0c-6.49,1.31-14.74-4-15.09-4.23l-2.29-1.49,2.29-1.49c.31-.2,6.89-4.44,12.91-4.44Zm1.47,8.16c1.36-.27,1.84-1.33,1.84-2.23s-.48-1.96-1.84-2.23c-2.98-.59-6.97.86-9.77,2.23,2.79,1.37,6.78,2.83,9.77,2.23h0Z"/>
        <path class="cls-9" d="m28.73,19.4c.14,0,.29,0,.43.01h.02c1.12,0,7.69.35,12.16,8.42,1.38,2.46,3.24,4.76,4.84,5.98l.28.23c1.93,1.57,4.51,2.05,6.88,1.27,2.26-.73,3.89-2.44,4.49-4.69.05-.18.09-.36.13-.55.31-1.59-.09-3.22-1.13-4.59-1.47-1.96-3.38-2.83-5.25-2.4-1.67.39-2.96,1.74-3.28,3.46-.15.81.06,1.67.58,2.38.8,1.08,1.76,1.56,2.73,1.34.82-.19,1.46-.86,1.63-1.71.14-.76-.33-1.49-1.06-1.64l.69-3.49c2.64.52,4.38,3.12,3.87,5.8-.43,2.24-2.13,4.02-4.33,4.52-2.36.53-4.74-.48-6.38-2.7-1.11-1.5-1.55-3.38-1.21-5.16.59-3.1,2.94-5.56,5.98-6.26,3.26-.75,6.58.64,8.9,3.73,1.62,2.16,2.27,4.86,1.78,7.41-.05.27-.11.53-.18.79-.9,3.39-3.46,6.06-6.83,7.16-3.53,1.15-7.35.44-10.23-1.9l-.24-.19c-1.94-1.49-4.11-4.13-5.74-7.04-2.52-4.55-5.73-5.96-7.58-6.4.73.49,1.3,1.21,1.61,2.07.6,1.67.12,3.49-1.28,4.86-.98.96-2.35,1.46-3.67,1.34-3.01-.27-5.26-2.97-5.03-6.01.14-1.76.95-3.35,2.28-4.49,1.18-1,2.64-1.54,4.16-1.54Zm-1.02,8.5c.27,0,.57-.13.8-.35.39-.38.54-.78.42-1.11-.07-.18-.24-.4-.53-.42l.25-3.06c-.64.02-1.26.26-1.76.69-.61.52-.98,1.25-1.04,2.06-.09,1.11.72,2.09,1.79,2.19.02,0,.05,0,.07,0Z"/>
        <path class="cls-7" d="m51.06,3.13c1.13,0,2.27.18,3.38.54,3.38,1.1,5.93,3.77,6.83,7.16.07.26.13.52.18.79.49,2.54-.15,5.24-1.78,7.4-2.32,3.09-5.65,4.48-8.9,3.73-3.04-.7-5.38-3.16-5.98-6.26-.34-1.78.1-3.66,1.21-5.16,1.64-2.22,4.02-3.23,6.38-2.7,2.2.5,3.91,2.27,4.33,4.52.51,2.67-1.23,5.27-3.87,5.8l-.69-3.49c.73-.14,1.21-.88,1.06-1.64-.16-.85-.8-1.53-1.63-1.71-.97-.22-1.93.26-2.73,1.34-.52.71-.73,1.57-.58,2.38.33,1.72,1.62,3.07,3.28,3.46,1.87.43,3.78-.44,5.25-2.4,1.03-1.38,1.43-3.01,1.13-4.59-.04-.19-.08-.37-.12-.55-.6-2.25-2.24-3.96-4.49-4.7-2.38-.77-4.95-.29-6.88,1.28l-.23.19c-1.64,1.26-3.5,3.56-4.89,6.03-4.49,8.11-11.11,8.35-12.18,8.41-1.67.12-3.3-.43-4.59-1.53-1.33-1.14-2.14-2.73-2.28-4.49-.24-3.05,2.02-5.74,5.03-6.01,1.32-.12,2.69.38,3.67,1.34,1.41,1.37,1.89,3.19,1.28,4.86-.31.86-.89,1.58-1.61,2.07,1.84-.44,5.06-1.85,7.57-6.39,1.64-2.92,3.8-5.56,5.79-7.08l.19-.16c1.97-1.6,4.38-2.44,6.85-2.44Zm-22.42,16.28l-.25-3.06c.29-.02.47-.24.53-.42.12-.33-.03-.73-.42-1.11-.24-.23-.58-.37-.87-.34-1.07.1-1.88,1.08-1.79,2.19.06.81.43,1.54,1.04,2.06.5.43,1.11.67,1.76.69Z"/>
      </g>
      <rect class="cls-8" x="53.05" y="19.4" width="373.88" height="3.56"/>
      <g>
        <g>
          <path class="cls-2" d="m982.64,15.27c6.03,0,12.6,4.23,12.91,4.44l2.29,1.49-2.29,1.49c-.35.23-8.58,5.54-15.09,4.23h0c-2.81-.56-4.7-2.86-4.7-5.72s1.89-5.16,4.7-5.72c.71-.14,1.44-.21,2.17-.21Zm8.3,5.93c-2.79-1.37-6.79-2.83-9.77-2.23-1.36.27-1.84,1.33-1.84,2.23s.48,1.96,1.84,2.23h0c3,.6,6.98-.86,9.77-2.23Z"/>
          <path class="cls-3" d="m969.11,19.4c1.52,0,2.98.54,4.16,1.54,1.33,1.14,2.14,2.73,2.28,4.49.24,3.04-2.02,5.74-5.03,6.01-1.32.1-2.69-.39-3.67-1.34-1.41-1.37-1.89-3.19-1.28-4.86.31-.86.89-1.58,1.61-2.07-1.84.44-5.06,1.85-7.57,6.39-1.64,2.92-3.8,5.56-5.79,7.08l-.19.16c-2.87,2.34-6.69,3.05-10.23,1.9-3.38-1.1-5.93-3.77-6.83-7.16-.07-.26-.13-.52-.18-.78-.49-2.55.15-5.25,1.77-7.41,2.32-3.09,5.65-4.48,8.9-3.73,3.04.7,5.38,3.16,5.97,6.26.34,1.78-.1,3.66-1.21,5.16-1.64,2.22-4.03,3.23-6.38,2.7-2.21-.5-3.91-2.27-4.33-4.52-.51-2.67,1.23-5.27,3.87-5.8l.69,3.49c-.73.14-1.21.88-1.06,1.64.16.85.8,1.53,1.62,1.71.97.22,1.93-.26,2.73-1.34.52-.71.73-1.57.58-2.38-.33-1.72-1.62-3.07-3.28-3.46-1.87-.43-3.78.44-5.25,2.4-1.03,1.38-1.43,3.01-1.13,4.59.04.18.08.37.13.55.6,2.25,2.24,3.96,4.49,4.69,2.38.77,4.95.3,6.88-1.28l.23-.19c1.64-1.26,3.5-3.56,4.89-6.03,4.49-8.11,11.06-8.45,12.18-8.41.14,0,.29-.01.43-.01Zm1.03,8.5s.05,0,.07,0c1.07-.1,1.88-1.08,1.79-2.19-.06-.81-.43-1.54-1.04-2.06-.5-.43-1.11-.67-1.76-.69l.25,3.06c-.29.02-.47.24-.53.42-.12.33.03.73.42,1.11.22.22.53.35.8.35Z"/>
          <path class="cls-10" d="m946.78,3.13c2.46,0,4.88.84,6.84,2.44l.24.19c1.94,1.49,4.11,4.13,5.74,7.04,2.52,4.55,5.73,5.96,7.58,6.4-.73-.49-1.3-1.21-1.61-2.06-.6-1.67-.12-3.49,1.28-4.86.98-.96,2.36-1.46,3.67-1.34,3.01.27,5.26,2.96,5.03,6.01-.14,1.76-.95,3.35-2.28,4.49-1.29,1.1-2.91,1.64-4.59,1.53h-.02c-1.12,0-7.69-.35-12.16-8.42-1.38-2.46-3.24-4.76-4.84-5.98l-.28-.23c-1.93-1.57-4.5-2.05-6.88-1.27-2.26.73-3.89,2.44-4.49,4.69-.05.18-.09.36-.13.55-.31,1.58.09,3.21,1.13,4.59,1.47,1.96,3.38,2.84,5.25,2.4,1.67-.39,2.95-1.74,3.28-3.46.15-.81-.06-1.67-.58-2.38-.8-1.08-1.76-1.56-2.73-1.34-.82.19-1.46.86-1.62,1.71-.14.76.33,1.49,1.06,1.64l-.69,3.49c-2.65-.52-4.38-3.12-3.87-5.8.43-2.24,2.13-4.02,4.33-4.52,2.35-.54,4.74.47,6.38,2.7,1.11,1.5,1.55,3.38,1.21,5.16-.59,3.1-2.94,5.55-5.97,6.26-3.25.75-6.58-.64-8.9-3.73-1.62-2.16-2.27-4.86-1.78-7.41.05-.27.11-.53.18-.78.9-3.39,3.46-6.07,6.84-7.17,1.11-.36,2.25-.54,3.38-.54Zm22.42,16.28c.64-.02,1.25-.26,1.76-.69.61-.52.98-1.25,1.04-2.06.09-1.11-.72-2.09-1.79-2.19-.28-.03-.63.11-.87.34-.39.38-.54.78-.42,1.11.07.18.24.4.53.42l-.25,3.06Z"/>
        </g>
        <rect class="cls-11" x="570.91" y="19.4" width="373.88" height="3.56"/>
      </g>
    </g>
  </g>
</svg>