<svg width="1440" height="557" viewBox="0 0 1440 557" fill="none" xmlns="http://www.w3.org/2000/svg">
<g clip-path="url(#clip0_493_8332)">
<path d="M0 187.179C0 187.179 31.1811 186.612 31.1811 225.75V508.22C31.1811 547.925 0 546.79 0 546.79V551.328H95.2441V546.79C95.2441 546.79 64.063 547.925 64.063 513.892V362.447H95.811C126.425 362.447 147.969 382.867 150.236 412.929V415.198H157.606V293.815H150.236L149.669 300.621C147.402 330.684 126.425 350.536 95.811 350.536H64.063V195.688H129.26C164.409 195.688 188.22 218.376 189.921 253.543L191.622 273.963H198.425V183.209H0V187.179Z" fill="#F4FAFC"/>
<path d="M1420.16 429.946C1412.79 430.513 1406.55 436.185 1404.85 443.559C1403.15 451.5 1395.78 456.604 1388.41 457.739C1339.65 462.844 1290.33 467.949 1241.01 470.785C1237.04 458.306 1234.2 444.126 1233.07 428.811H1335.68C1345.89 428.811 1352.13 422.572 1352.13 412.929C1353.83 317.638 1318.11 292.114 1283.53 292.114C1217.76 292.114 1188.28 395.346 1205.86 472.486C1187.72 473.054 1169.57 473.054 1151.43 472.486C1150.3 472.486 1149.73 472.486 1148.6 472.486C1145.76 472.486 1142.36 472.486 1139.53 472.486C1139.53 468.516 1139.53 464.545 1139.53 460.575L1140.09 405.556V374.926C1140.66 369.254 1140.09 345.431 1140.09 345.431C1140.09 303.458 1104.94 290.979 1079.43 290.412C1039.75 289.278 1004.03 313.1 1007.43 342.028C1008.57 349.969 1013.1 359.044 1025.57 359.612C1034.08 360.179 1044.85 354.507 1047.68 336.923C1051.65 315.369 1059.59 300.055 1077.16 300.055C1099.84 300.055 1106.65 318.772 1106.65 335.789V347.133C1106.65 395.346 1010.83 372.09 993.826 457.172C972.85 453.201 951.874 448.096 930.897 442.991V155.983L883.842 184.344V187.18C892.346 190.583 897.448 198.524 897.448 207.599V433.349C871.37 425.975 845.858 418.034 820.913 410.093C820.913 345.999 820.346 286.441 820.346 286.441L773.291 314.802V317.638C781.795 321.041 786.897 328.982 786.897 338.058V399.316C774.992 395.346 763.653 391.375 751.748 387.405C735.874 381.733 720 377.195 704.126 374.359V286.441L657.07 314.802V317.638C665.574 321.041 670.677 328.982 670.677 338.058V370.389C650.267 369.254 630.425 369.821 610.582 373.225C600.378 314.802 569.196 290.412 539.149 290.412C517.039 290.412 496.063 304.025 485.858 328.415V155.416L438.803 183.777V186.613C447.307 190.016 452.409 197.957 452.409 207.032V450.932C430.299 470.785 409.889 494.04 391.181 520.699C387.779 525.804 380.409 529.207 377.007 525.804C370.204 520.699 371.905 484.965 371.905 460.575L372.472 405.556V374.926C373.039 369.254 372.472 345.431 372.472 345.431C372.472 303.458 337.322 290.979 311.811 290.412C272.126 289.278 236.409 313.1 239.811 342.028C240.944 349.969 245.48 359.044 257.952 359.612C266.456 360.179 277.228 354.507 280.063 336.923C284.031 315.369 292.535 300.055 309.543 300.055C332.22 300.055 339.023 318.772 339.023 335.789V347.133C339.023 397.615 233.574 369.821 224.504 469.65C221.102 525.804 251.716 555.866 283.464 555.866C305.574 555.866 328.252 541.686 340.724 511.057C340.724 537.148 348.094 554.164 366.236 554.164C374.74 554.164 382.11 548.492 387.212 541.119L387.779 540.551C407.622 512.758 429.732 487.801 454.11 466.247V494.04C454.11 534.879 434.834 539.984 434.834 539.984V543.388C473.385 541.119 502.299 555.299 528.944 555.299C543.118 555.299 557.291 551.328 571.464 538.85C602.645 515.027 613.984 467.949 614.551 420.87C615.118 407.257 613.984 394.211 612.85 382.867C632.126 378.897 651.968 376.628 671.811 377.195V483.831C674.645 533.745 704.692 557.568 733.606 557.568C755.716 557.568 777.826 544.522 788.031 517.863L794.834 553.597L835.086 541.686V538.85C826.582 535.447 821.48 526.938 821.48 518.43C821.48 490.07 821.48 452.634 821.48 416.333C846.992 424.841 872.503 432.782 898.015 440.155V509.922C898.015 546.224 878.74 548.492 878.74 548.492V552.463H951.307V548.492C951.307 548.492 931.464 546.224 931.464 509.922V448.663C951.874 453.768 972.283 458.873 993.259 462.844C992.692 465.113 992.693 467.381 992.693 469.65C987.59 526.371 1018.2 555.866 1050.52 555.866C1072.63 555.866 1095.31 541.686 1107.78 511.057C1107.78 537.148 1115.15 554.164 1133.29 554.164C1148.6 554.164 1159.94 535.447 1163.91 522.401L1159.94 520.699C1156.54 525.804 1149.16 529.207 1145.76 525.804C1140.66 521.834 1140.66 499.712 1140.66 478.726C1143.5 478.726 1145.76 478.726 1148.6 478.726C1149.73 478.726 1150.87 478.726 1152.57 478.726C1170.14 478.726 1188.85 478.726 1208.13 477.591C1219.46 520.699 1246.68 554.164 1290.9 554.164C1324.91 554.164 1352.13 528.64 1357.23 518.997L1354.39 516.161C1337.39 525.237 1321.51 528.64 1307.91 528.64C1276.72 528.64 1255.18 507.653 1243.28 475.322C1269.35 473.621 1296 471.352 1323.21 468.516C1347.59 466.247 1374.24 462.277 1399.18 458.873C1403.72 458.306 1408.82 458.873 1412.79 461.709C1416.19 463.978 1420.16 465.113 1424.69 464.545C1432.63 463.411 1439.43 457.739 1440.57 449.798C1441.7 439.021 1432.06 428.811 1420.16 429.946ZM1232.5 382.3C1238.74 330.684 1262.55 301.189 1282.96 301.189C1293.73 301.189 1303.94 309.13 1310.74 326.713C1320.94 357.343 1320.38 411.795 1320.38 411.795L1231.94 418.034C1230.24 405.556 1230.8 393.644 1232.5 382.3ZM340.724 431.647C340.724 508.22 316.913 540.551 294.803 540.551C274.96 540.551 256.818 512.758 260.787 467.949C267.59 400.451 313.511 382.3 340.724 382.3V431.647ZM486.992 347.7C490.96 331.818 500.031 313.668 519.874 309.697C539.716 306.861 566.929 330.117 576.566 380.598C545.385 389.674 515.338 404.421 486.992 423.706V347.7ZM580.535 422.572C580.535 511.624 548.22 543.388 521.574 543.388C510.803 543.388 501.732 538.283 495.496 530.342C490.393 522.401 486.992 509.922 486.992 491.771V440.155C515.905 418.601 546.519 402.719 578.267 391.942C579.401 401.585 580.535 411.228 580.535 422.572ZM787.464 486.099C781.228 509.355 769.322 536.581 743.244 536.581C714.33 536.581 704.693 493.473 704.693 460.575V380.031C720 382.3 735.307 386.27 750.614 391.942C762.519 396.48 774.992 400.451 787.464 404.988V486.099ZM1106.65 382.3V431.647C1106.65 446.395 1105.51 459.44 1104.38 470.785C1078.3 469.083 1052.79 466.247 1027.84 462.277C1036.35 398.749 1080.57 382.3 1106.65 382.3ZM1060.72 539.984C1040.88 539.984 1022.74 512.758 1026.71 468.516C1052.22 472.486 1077.16 475.322 1103.24 477.024C1095.87 521.266 1077.73 539.984 1060.72 539.984Z" fill="#F4FAFC"/>
</g>
<defs>
<clipPath id="clip0_493_8332">
<rect width="1440" height="557" fill="white"/>
</clipPath>
</defs>
</svg>
