{
	"asset":{
		"generator":"Khronos glTF Blender I/O v3.5.30",
		"version":"2.0"
	},
	"extensionsUsed":[
		"KHR_materials_specular",
		"KHR_materials_ior"
	],
	"scene":0,
	"scenes":[
		{
			"name":"Scene",
			"nodes":[
				0,
				1,
				2,
				3,
				4,
				5,
				6,
				7,
				8,
				9
			]
		}
	],
	"nodes":[
		{
			"mesh":0,
			"name":"FOND",
			"rotation":[
				0.7071068286895752,
				0,
				0,
				0.7071068286895752
			],
			"scale":[
				4.709640026092529,
				5.80872917175293,
				2.7930400371551514
			],
			"translation":[
				0,
				1.5532121658325195,
				0
			]
		},
		{
			"mesh":1,
			"name":"ESCALIER DROIT",
			"rotation":[
				0,
				0.456888347864151,
				0,
				0.8895240426063538
			],
			"scale":[
				-0.09477367252111435,
				-0.019896579906344414,
				-0.42913949489593506
			],
			"translation":[
				1.214849829673767,
				0.5697526931762695,
				3.080130100250244
			]
		},
		{
			"mesh":2,
			"name":"ESCALIER GAUCHE",
			"rotation":[
				0.8895240426063538,
				0,
				0.456888347864151,
				0
			],
			"scale":[
				0.09477367252111435,
				0.019896579906344414,
				0.42913949489593506
			],
			"translation":[
				-1.2148000001907349,
				0.5697526931762695,
				3.080130100250244
			]
		},
		{
			"mesh":3,
			"name":"PORTE gauche",
			"rotation":[
				-0.2114136517047882,
				0.6747815012931824,
				0.6747624278068542,
				0.2113526612520218
			],
			"scale":[
				0.3044491708278656,
				0.2360060214996338,
				0.35814157128334045
			],
			"translation":[
				2.6366798877716064,
				2.2648680210113525,
				1.0876200199127197
			]
		},
		{
			"mesh":4,
			"name":"PORTE.droite",
			"rotation":[
				0.2114136815071106,
				0.6747815012931824,
				-0.6747624278068542,
				0.21135267615318298
			],
			"scale":[
				-0.3044491708278656,
				-0.2360060214996338,
				-0.35814157128334045
			],
			"translation":[
				2.6366798877716064,
				2.2648680210113525,
				1.0876200199127197
			]
		},
		{
			"mesh":5,
			"name":"socle",
			"rotation":[
				0.2114136815071106,
				0.6747815012931824,
				-0.6747624278068542,
				0.21135267615318298
			],
			"scale":[
				-0.3044491708278656,
				-0.2360060214996338,
				-0.35814157128334045
			],
			"translation":[
				2.6366798877716064,
				2.2648699283599854,
				1.0876200199127197
			]
		},
		{
			"mesh":6,
			"name":"PORTE.droite.001",
			"rotation":[
				0.2113526612520218,
				-0.6747624278068542,
				0.6747815012931824,
				0.2114136517047882
			],
			"scale":[
				-0.3044491708278656,
				-0.2360060214996338,
				-0.35814157128334045
			],
			"translation":[
				-2.6366798877716064,
				2.2648680210113525,
				1.0876200199127197
			]
		},
		{
			"mesh":7,
			"name":"PORTE gauche.001",
			"rotation":[
				-0.21135154366493225,
				-0.6747627258300781,
				-0.674781858921051,
				0.21141253411769867
			],
			"scale":[
				0.3044491708278656,
				0.2360060214996338,
				0.35814157128334045
			],
			"translation":[
				-2.636683464050293,
				2.2648680210113525,
				1.0876187086105347
			]
		},
		{
			"mesh":8,
			"name":"socle.001",
			"rotation":[
				0.2113526612520218,
				-0.6747624278068542,
				0.6747815012931824,
				0.2114136517047882
			],
			"scale":[
				-0.3044491708278656,
				-0.2360060214996338,
				-0.35814157128334045
			],
			"translation":[
				-2.6366798877716064,
				2.2648680210113525,
				1.0876200199127197
			]
		},
		{
			"mesh":9,
			"name":"Circle",
			"scale":[
				1.9739990234375,
				1.9739990234375,
				1.9739990234375
			],
			"translation":[
				0,
				0.4965824484825134,
				4.601193428039551
			]
		}
	],
	"materials":[
		{
			"doubleSided":true,
			"name":"Material.009",
			"pbrMetallicRoughness":{
				"baseColorFactor":[
					0.0191086083650589,
					0.006001670379191637,
					0.08000624924898148,
					1
				],
				"metallicFactor":0,
				"roughnessFactor":0.5
			}
		},
		{
			"doubleSided":true,
			"name":"Material.005",
			"pbrMetallicRoughness":{}
		},
		{
			"doubleSided":true,
			"name":"Material.008",
			"pbrMetallicRoughness":{}
		},
		{
			"doubleSided":true,
			"name":"Material.006",
			"pbrMetallicRoughness":{}
		},
		{
			"doubleSided":true,
			"extensions":{
				"KHR_materials_specular":{
					"specularColorFactor":[
						0,
						0,
						0
					]
				},
				"KHR_materials_ior":{
					"ior":1.4500000476837158
				}
			},
			"name":"Material.004",
			"pbrMetallicRoughness":{
				"baseColorFactor":[
					0.002731690648943186,
					0.0015176022425293922,
					0.08228267729282379,
					1
				],
				"metallicFactor":0,
				"roughnessFactor":0.5
			}
		}
	],
	"meshes":[
		{
			"name":"Plane.012",
			"primitives":[
				{
					"attributes":{
						"POSITION":0,
						"TEXCOORD_0":1,
						"NORMAL":2
					},
					"indices":3,
					"material":0
				}
			]
		},
		{
			"name":"Cube.007",
			"primitives":[
				{
					"attributes":{
						"POSITION":4,
						"TEXCOORD_0":5,
						"NORMAL":6
					},
					"indices":7,
					"material":1
				}
			]
		},
		{
			"name":"Cube.010",
			"primitives":[
				{
					"attributes":{
						"POSITION":8,
						"TEXCOORD_0":9,
						"NORMAL":10
					},
					"indices":7,
					"material":1
				}
			]
		},
		{
			"name":"Plane.002",
			"primitives":[
				{
					"attributes":{
						"POSITION":11,
						"TEXCOORD_0":12,
						"NORMAL":13
					},
					"indices":14,
					"material":2
				}
			]
		},
		{
			"name":"Plane.003",
			"primitives":[
				{
					"attributes":{
						"POSITION":15,
						"TEXCOORD_0":16,
						"NORMAL":17
					},
					"indices":14,
					"material":2
				}
			]
		},
		{
			"name":"Plane.005",
			"primitives":[
				{
					"attributes":{
						"POSITION":18,
						"TEXCOORD_0":19,
						"NORMAL":20
					},
					"indices":21,
					"material":1
				}
			]
		},
		{
			"name":"Plane.007",
			"primitives":[
				{
					"attributes":{
						"POSITION":22,
						"TEXCOORD_0":23,
						"NORMAL":24
					},
					"indices":14,
					"material":3
				}
			]
		},
		{
			"name":"Plane.006",
			"primitives":[
				{
					"attributes":{
						"POSITION":25,
						"TEXCOORD_0":26,
						"NORMAL":27
					},
					"indices":14,
					"material":3
				}
			]
		},
		{
			"name":"Plane.008",
			"primitives":[
				{
					"attributes":{
						"POSITION":28,
						"TEXCOORD_0":29,
						"NORMAL":30
					},
					"indices":21,
					"material":1
				}
			]
		},
		{
			"name":"Circle.002",
			"primitives":[
				{
					"attributes":{
						"POSITION":31,
						"TEXCOORD_0":32,
						"NORMAL":33
					},
					"indices":34,
					"material":4
				}
			]
		}
	],
	"accessors":[
		{
			"bufferView":0,
			"componentType":5126,
			"count":4,
			"max":[
				1,
				0,
				1
			],
			"min":[
				-1,
				0,
				-1
			],
			"type":"VEC3"
		},
		{
			"bufferView":1,
			"componentType":5126,
			"count":4,
			"type":"VEC2"
		},
		{
			"bufferView":2,
			"componentType":5126,
			"count":4,
			"type":"VEC3"
		},
		{
			"bufferView":3,
			"componentType":5123,
			"count":6,
			"type":"SCALAR"
		},
		{
			"bufferView":4,
			"componentType":5126,
			"count":24,
			"max":[
				1,
				1,
				1
			],
			"min":[
				-1,
				-1,
				-1
			],
			"type":"VEC3"
		},
		{
			"bufferView":5,
			"componentType":5126,
			"count":24,
			"type":"VEC2"
		},
		{
			"bufferView":6,
			"componentType":5126,
			"count":24,
			"type":"VEC3"
		},
		{
			"bufferView":7,
			"componentType":5123,
			"count":36,
			"type":"SCALAR"
		},
		{
			"bufferView":8,
			"componentType":5126,
			"count":24,
			"max":[
				1,
				1,
				1
			],
			"min":[
				-1,
				-1,
				-1
			],
			"type":"VEC3"
		},
		{
			"bufferView":9,
			"componentType":5126,
			"count":24,
			"type":"VEC2"
		},
		{
			"bufferView":10,
			"componentType":5126,
			"count":24,
			"type":"VEC3"
		},
		{
			"bufferView":11,
			"componentType":5126,
			"count":76,
			"max":[
				1.340930461883545,
				0.12402702122926712,
				2.818514347076416
			],
			"min":[
				-0.0003524298081174493,
				-2.945772337170638e-07,
				3.1755116651766002e-06
			],
			"type":"VEC3"
		},
		{
			"bufferView":12,
			"componentType":5126,
			"count":76,
			"type":"VEC2"
		},
		{
			"bufferView":13,
			"componentType":5126,
			"count":76,
			"type":"VEC3"
		},
		{
			"bufferView":14,
			"componentType":5123,
			"count":132,
			"type":"SCALAR"
		},
		{
			"bufferView":15,
			"componentType":5126,
			"count":76,
			"max":[
				1.340930461883545,
				0.12402702122926712,
				2.818514347076416
			],
			"min":[
				-0.0003524298081174493,
				-2.945772337170638e-07,
				3.1755116651766002e-06
			],
			"type":"VEC3"
		},
		{
			"bufferView":16,
			"componentType":5126,
			"count":76,
			"type":"VEC2"
		},
		{
			"bufferView":17,
			"componentType":5126,
			"count":76,
			"type":"VEC3"
		},
		{
			"bufferView":18,
			"componentType":5126,
			"count":308,
			"max":[
				1.4918949604034424,
				0.2601861357688904,
				2.8960766792297363
			],
			"min":[
				-1.4921916723251343,
				-3.094784233326209e-07,
				-0.0004055350145790726
			],
			"type":"VEC3"
		},
		{
			"bufferView":19,
			"componentType":5126,
			"count":308,
			"type":"VEC2"
		},
		{
			"bufferView":20,
			"componentType":5126,
			"count":308,
			"type":"VEC3"
		},
		{
			"bufferView":21,
			"componentType":5123,
			"count":552,
			"type":"SCALAR"
		},
		{
			"bufferView":22,
			"componentType":5126,
			"count":76,
			"max":[
				1.340930461883545,
				0.12402702122926712,
				2.818514347076416
			],
			"min":[
				-0.0003524298081174493,
				-2.945772337170638e-07,
				3.1755116651766002e-06
			],
			"type":"VEC3"
		},
		{
			"bufferView":23,
			"componentType":5126,
			"count":76,
			"type":"VEC2"
		},
		{
			"bufferView":24,
			"componentType":5126,
			"count":76,
			"type":"VEC3"
		},
		{
			"bufferView":25,
			"componentType":5126,
			"count":76,
			"max":[
				1.340930461883545,
				0.12402702122926712,
				2.818514347076416
			],
			"min":[
				-0.0003524298081174493,
				-2.945772337170638e-07,
				3.1755116651766002e-06
			],
			"type":"VEC3"
		},
		{
			"bufferView":26,
			"componentType":5126,
			"count":76,
			"type":"VEC2"
		},
		{
			"bufferView":27,
			"componentType":5126,
			"count":76,
			"type":"VEC3"
		},
		{
			"bufferView":28,
			"componentType":5126,
			"count":308,
			"max":[
				1.4918949604034424,
				0.2601861357688904,
				2.8960766792297363
			],
			"min":[
				-1.4921916723251343,
				-3.094784233326209e-07,
				-0.0004055350145790726
			],
			"type":"VEC3"
		},
		{
			"bufferView":29,
			"componentType":5126,
			"count":308,
			"type":"VEC2"
		},
		{
			"bufferView":30,
			"componentType":5126,
			"count":308,
			"type":"VEC3"
		},
		{
			"bufferView":31,
			"componentType":5126,
			"count":32,
			"max":[
				1,
				0,
				1
			],
			"min":[
				-1,
				0,
				-1
			],
			"type":"VEC3"
		},
		{
			"bufferView":32,
			"componentType":5126,
			"count":32,
			"type":"VEC2"
		},
		{
			"bufferView":33,
			"componentType":5126,
			"count":32,
			"type":"VEC3"
		},
		{
			"bufferView":34,
			"componentType":5123,
			"count":90,
			"type":"SCALAR"
		}
	],
	"bufferViews":[
		{
			"buffer":0,
			"byteLength":48,
			"byteOffset":0,
			"target":34962
		},
		{
			"buffer":0,
			"byteLength":32,
			"byteOffset":48,
			"target":34962
		},
		{
			"buffer":0,
			"byteLength":48,
			"byteOffset":80,
			"target":34962
		},
		{
			"buffer":0,
			"byteLength":12,
			"byteOffset":128,
			"target":34963
		},
		{
			"buffer":0,
			"byteLength":288,
			"byteOffset":140,
			"target":34962
		},
		{
			"buffer":0,
			"byteLength":192,
			"byteOffset":428,
			"target":34962
		},
		{
			"buffer":0,
			"byteLength":288,
			"byteOffset":620,
			"target":34962
		},
		{
			"buffer":0,
			"byteLength":72,
			"byteOffset":908,
			"target":34963
		},
		{
			"buffer":0,
			"byteLength":288,
			"byteOffset":980,
			"target":34962
		},
		{
			"buffer":0,
			"byteLength":192,
			"byteOffset":1268,
			"target":34962
		},
		{
			"buffer":0,
			"byteLength":288,
			"byteOffset":1460,
			"target":34962
		},
		{
			"buffer":0,
			"byteLength":912,
			"byteOffset":1748,
			"target":34962
		},
		{
			"buffer":0,
			"byteLength":608,
			"byteOffset":2660,
			"target":34962
		},
		{
			"buffer":0,
			"byteLength":912,
			"byteOffset":3268,
			"target":34962
		},
		{
			"buffer":0,
			"byteLength":264,
			"byteOffset":4180,
			"target":34963
		},
		{
			"buffer":0,
			"byteLength":912,
			"byteOffset":4444,
			"target":34962
		},
		{
			"buffer":0,
			"byteLength":608,
			"byteOffset":5356,
			"target":34962
		},
		{
			"buffer":0,
			"byteLength":912,
			"byteOffset":5964,
			"target":34962
		},
		{
			"buffer":0,
			"byteLength":3696,
			"byteOffset":6876,
			"target":34962
		},
		{
			"buffer":0,
			"byteLength":2464,
			"byteOffset":10572,
			"target":34962
		},
		{
			"buffer":0,
			"byteLength":3696,
			"byteOffset":13036,
			"target":34962
		},
		{
			"buffer":0,
			"byteLength":1104,
			"byteOffset":16732,
			"target":34963
		},
		{
			"buffer":0,
			"byteLength":912,
			"byteOffset":17836,
			"target":34962
		},
		{
			"buffer":0,
			"byteLength":608,
			"byteOffset":18748,
			"target":34962
		},
		{
			"buffer":0,
			"byteLength":912,
			"byteOffset":19356,
			"target":34962
		},
		{
			"buffer":0,
			"byteLength":912,
			"byteOffset":20268,
			"target":34962
		},
		{
			"buffer":0,
			"byteLength":608,
			"byteOffset":21180,
			"target":34962
		},
		{
			"buffer":0,
			"byteLength":912,
			"byteOffset":21788,
			"target":34962
		},
		{
			"buffer":0,
			"byteLength":3696,
			"byteOffset":22700,
			"target":34962
		},
		{
			"buffer":0,
			"byteLength":2464,
			"byteOffset":26396,
			"target":34962
		},
		{
			"buffer":0,
			"byteLength":3696,
			"byteOffset":28860,
			"target":34962
		},
		{
			"buffer":0,
			"byteLength":384,
			"byteOffset":32556,
			"target":34962
		},
		{
			"buffer":0,
			"byteLength":256,
			"byteOffset":32940,
			"target":34962
		},
		{
			"buffer":0,
			"byteLength":384,
			"byteOffset":33196,
			"target":34962
		},
		{
			"buffer":0,
			"byteLength":180,
			"byteOffset":33580,
			"target":34963
		}
	],
	"buffers":[
		{
			"byteLength":33760,
			"uri":"data:application/octet-stream;base64,"
		}
	]
}
