<?xml version="1.0" encoding="UTF-8"?>
<svg id="Calque_2" data-name="Calque 2" xmlns="http://www.w3.org/2000/svg" xmlns:xlink="http://www.w3.org/1999/xlink" viewBox="0 0 322.71 322.71">
  <defs>
    <style>
      .cls-1 {
        fill: url(#linear-gradient);
      }

      .cls-2 {
        fill: url(#linear-gradient-8);
      }

      .cls-3 {
        fill: url(#linear-gradient-9);
      }

      .cls-4 {
        fill: url(#linear-gradient-3);
      }

      .cls-5 {
        fill: url(#linear-gradient-4);
      }

      .cls-6 {
        fill: url(#linear-gradient-2);
      }

      .cls-7 {
        fill: url(#linear-gradient-6);
      }

      .cls-8 {
        fill: url(#linear-gradient-7);
      }

      .cls-9 {
        fill: url(#linear-gradient-5);
      }

      .cls-10 {
        fill: url(#linear-gradient-14);
      }

      .cls-11 {
        fill: url(#linear-gradient-18);
      }

      .cls-12 {
        fill: url(#linear-gradient-22);
      }

      .cls-13 {
        fill: url(#linear-gradient-20);
      }

      .cls-14 {
        fill: url(#linear-gradient-21);
      }

      .cls-15 {
        fill: url(#linear-gradient-23);
      }

      .cls-16 {
        fill: url(#linear-gradient-15);
      }

      .cls-17 {
        fill: url(#linear-gradient-19);
      }

      .cls-18 {
        fill: url(#linear-gradient-16);
      }

      .cls-19 {
        fill: url(#linear-gradient-17);
      }

      .cls-20 {
        fill: url(#linear-gradient-13);
      }

      .cls-21 {
        fill: url(#linear-gradient-12);
      }

      .cls-22 {
        fill: url(#linear-gradient-10);
      }

      .cls-23 {
        fill: url(#linear-gradient-11);
      }

      .cls-24 {
        fill: url(#linear-gradient-24);
      }
    </style>
    <linearGradient id="linear-gradient" x1="-104.75" y1="593.03" x2="1364.33" y2="-907.11" gradientUnits="userSpaceOnUse">
      <stop offset="0" stop-color="#eedebc"/>
      <stop offset=".06" stop-color="#ddc5a3"/>
      <stop offset=".14" stop-color="#c9a885"/>
      <stop offset=".26" stop-color="#9a7a5f"/>
      <stop offset=".36" stop-color="#c9a885"/>
      <stop offset=".49" stop-color="#eedebc"/>
      <stop offset=".54" stop-color="#ddc5a3"/>
      <stop offset=".61" stop-color="#c9a885"/>
      <stop offset=".72" stop-color="#9a7a5f"/>
      <stop offset=".84" stop-color="#c9a885"/>
      <stop offset="1" stop-color="#eedebc"/>
    </linearGradient>
    <linearGradient id="linear-gradient-2" x1="-119.85" y1="578.24" x2="1349.22" y2="-921.9" xlink:href="#linear-gradient"/>
    <linearGradient id="linear-gradient-3" x1="-116.99" y1="581.04" x2="1352.08" y2="-919.1" xlink:href="#linear-gradient"/>
    <linearGradient id="linear-gradient-4" x1="285.99" y1="269.46" x2="305.78" y2="249.25" xlink:href="#linear-gradient"/>
    <linearGradient id="linear-gradient-5" x1="-72.72" y1="624.39" x2="1396.35" y2="-875.75" xlink:href="#linear-gradient"/>
    <linearGradient id="linear-gradient-6" x1="247.34" y1="306.65" x2="267.13" y2="286.44" xlink:href="#linear-gradient"/>
    <linearGradient id="linear-gradient-7" x1="-73.87" y1="623.27" x2="1395.21" y2="-876.87" xlink:href="#linear-gradient"/>
    <linearGradient id="linear-gradient-8" x1="261.49" y1="314.28" x2="279.02" y2="296.38" xlink:href="#linear-gradient"/>
    <linearGradient id="linear-gradient-9" x1="-55.68" y1="641.08" x2="1413.39" y2="-859.06" xlink:href="#linear-gradient"/>
    <linearGradient id="linear-gradient-10" x1="297.76" y1="280.34" x2="314.65" y2="263.09" xlink:href="#linear-gradient"/>
    <linearGradient id="linear-gradient-11" x1="-55.41" y1="641.35" x2="1413.66" y2="-858.79" xlink:href="#linear-gradient"/>
    <linearGradient id="linear-gradient-12" x1="-70.24" y1="626.83" x2="1398.84" y2="-873.32" xlink:href="#linear-gradient"/>
    <linearGradient id="linear-gradient-13" x1="-69.61" y1="627.44" x2="1399.46" y2="-872.7" xlink:href="#linear-gradient"/>
    <linearGradient id="linear-gradient-14" x1="-82.94" y1="614.39" x2="1386.14" y2="-885.75" xlink:href="#linear-gradient"/>
    <linearGradient id="linear-gradient-15" x1="-83.56" y1="613.78" x2="1385.51" y2="-886.37" xlink:href="#linear-gradient"/>
    <linearGradient id="linear-gradient-16" x1="-43.41" y1="653.1" x2="1425.66" y2="-847.05" xlink:href="#linear-gradient"/>
    <linearGradient id="linear-gradient-17" x1="-39.33" y1="657.09" x2="1429.74" y2="-843.05" xlink:href="#linear-gradient"/>
    <linearGradient id="linear-gradient-18" x1="-84.88" y1="612.49" x2="1384.2" y2="-887.65" xlink:href="#linear-gradient"/>
    <linearGradient id="linear-gradient-19" x1="-182.83" y1="516.57" x2="1286.24" y2="-983.57" xlink:href="#linear-gradient"/>
    <linearGradient id="linear-gradient-20" x1="-166.53" y1="532.53" x2="1302.54" y2="-967.61" xlink:href="#linear-gradient"/>
    <linearGradient id="linear-gradient-21" x1="-171.99" y1="527.19" x2="1297.08" y2="-972.95" xlink:href="#linear-gradient"/>
    <linearGradient id="linear-gradient-22" x1="-182.26" y1="517.13" x2="1286.82" y2="-983.01" xlink:href="#linear-gradient"/>
    <linearGradient id="linear-gradient-23" x1="-171.74" y1="527.43" x2="1297.34" y2="-972.71" xlink:href="#linear-gradient"/>
    <linearGradient id="linear-gradient-24" x1="-166.17" y1="532.88" x2="1302.9" y2="-967.26" xlink:href="#linear-gradient"/>
  </defs>
  <g id="Object">
    <g>
      <g>
        <path class="cls-1" d="m2,322.71h320.71s0-320.71,0-320.71c0-1.1-.9-2-2-2s-2,.9-2,2h0v316.71H2c-1.1,0-2,.9-2,2s.9,2,2,2Z"/>
        <path class="cls-6" d="m32.15,305.77h233.57c1.1,0,2-.89,2-2s-.9-2-2-2H32.15c-1.1,0-2,.9-2,2s.9,2,2,2Z"/>
        <path class="cls-4" d="m304.22,269.38c.92,0,1.67-.75,1.67-1.67V34.14c0-.92-.75-1.67-1.67-1.67s-1.67.75-1.67,1.67v233.57c0,.92.75,1.67,1.67,1.67Z"/>
        <g>
          <polygon class="cls-5" points="295.89 259.35 295.89 259.36 295.89 259.36 295.89 259.35"/>
          <path class="cls-9" d="m280.54,263.61c.25.27.52.54.79.79,2.6,2.42,6.2,3.6,9.89,3.25.74-.07,1.45-.18,2.13-.34,4.19-.97,7.39-3.63,8.66-7.37.66-1.93.73-3.96.28-5.88-.48-2.05-1.56-3.96-3.17-5.45-1.77-1.64-4.21-2.45-6.69-2.24-.54.05-1.06.13-1.57.25-2.87.66-5.09,2.5-5.99,5.1-.47,1.36-.52,2.8-.21,4.14.33,1.44,1.09,2.77,2.22,3.82,1.62,1.5,3.81,2,5.8,1.53,1.19-.28,2.31-.9,3.2-1.86.42-.45.56-1.07.43-1.63-.08-.33-.25-.65-.52-.9-.45-.42-1.07-.56-1.62-.43-.33.08-.65.25-.9.52-.39.42-.88.69-1.4.81-.88.2-1.84-.02-2.56-.68-.59-.55-.99-1.25-1.17-2.01-.16-.71-.14-1.46.11-2.17.48-1.39,1.64-2.36,3.4-2.78.34-.08.7-.14,1.08-.17,1.5-.13,2.94.36,3.96,1.3,1.08,1,1.8,2.27,2.11,3.64.3,1.28.25,2.63-.19,3.92-.86,2.54-2.97,4.3-6.03,5.03-.54.13-1.11.22-1.7.27-2.74.26-5.24-.57-7.12-2.31-.21-.2-.41-.4-.61-.61-1.29-1.38-2.15-3-2.55-4.75-.38-1.63-.37-3.36.06-5.12.95-3.86,3.73-6.94,7.45-8.24l.45-.16h.01c.7-.27,1.51-.52,2.4-.72,2.62-.61,5.89-.91,9.04-.79h0c2.81.13,5.26-.13,7.38-.63,7.9-1.84,11.23-6.96,11.7-7.75.11-.16.22-.32.33-.49,1.09-1.75,1.51-3.81,1.2-5.86-.03-.23-.08-.45-.13-.67-.47-2.01-1.63-3.78-3.31-5.02-1.79-1.32-4-1.7-6.01-1.23-1.61.37-3.1,1.29-4.16,2.71-1.03,1.38-1.41,3.2-1.04,4.92h0s.03.14.03.14c.54,2.35,2.15,4.11,4.33,4.58.78.17,1.58.16,2.33-.02,1.21-.28,2.3-.98,3.07-2.02h0c.32-.44.42-.98.3-1.47-.09-.4-.33-.77-.68-1.03-.44-.32-.98-.42-1.47-.3-.4.09-.77.32-1.03.68-.25.34-.6.56-1,.66-.25.06-.51.06-.76,0-.38-.08-.7-.27-.97-.58-.27-.31-.5-.75-.63-1.31l-.02-.08h0c-.16-.72,0-1.49.4-2.02.54-.72,1.29-1.18,2.11-1.37,1.03-.24,2.16-.05,3.08.63.99.73,1.67,1.76,1.95,2.95.03.13.06.26.08.4.21,1.35-.12,2.68-.93,3.78v.02s-.1.13-.1.13h0s0,.02,0,.02c-.11.17-2.66,4.54-9.46,6.13-1.82.42-3.94.65-6.42.54h0c-3.5-.13-7.02.18-9.97.87-1.03.24-1.98.52-2.84.85h0s-.42.15-.42.15c-4.86,1.7-8.5,5.73-9.74,10.76-.57,2.31-.58,4.62-.08,6.79.55,2.35,1.71,4.54,3.42,6.37Z"/>
        </g>
        <g>
          <polygon class="cls-7" points="257.24 296.54 257.24 296.54 257.24 296.54 257.24 296.54"/>
          <path class="cls-8" d="m261.81,281.28c.27.26.53.53.78.81,2.37,2.65,3.47,6.28,3.04,9.95-.08.73-.21,1.44-.39,2.12-1.06,4.16-3.78,7.31-7.55,8.5-1.94.62-3.98.65-5.88.16-2.04-.52-3.93-1.64-5.39-3.28-1.6-1.8-2.36-4.26-2.1-6.74.06-.54.15-1.06.28-1.56.72-2.85,2.6-5.04,5.23-5.88,1.37-.44,2.81-.47,4.15-.13,1.43.36,2.75,1.15,3.77,2.3,1.46,1.65,1.92,3.85,1.41,5.83-.3,1.18-.95,2.29-1.92,3.16-.46.41-1.08.54-1.64.4-.33-.08-.65-.27-.89-.54-.41-.46-.54-1.08-.4-1.63.08-.33.27-.65.54-.89.43-.38.71-.86.84-1.38.22-.87.02-1.84-.62-2.57-.54-.6-1.23-1.01-1.98-1.21-.7-.18-1.45-.17-2.17.06-1.4.46-2.4,1.59-2.85,3.34-.09.34-.15.7-.19,1.07-.16,1.5.3,2.95,1.22,3.99.97,1.1,2.23,1.84,3.6,2.19,1.27.32,2.62.3,3.92-.11,2.56-.81,4.36-2.88,5.15-5.93.14-.54.24-1.1.31-1.69.31-2.73-.46-5.25-2.16-7.16-.19-.22-.39-.42-.6-.62-1.35-1.31-2.96-2.21-4.7-2.65-1.62-.41-3.36-.44-5.12-.04-3.88.87-7.01,3.59-8.39,7.28l-.17.45h0c-.28.71-.54,1.52-.77,2.4-.67,2.61-1.03,5.87-.98,9.02h0c.07,2.8-.24,5.25-.78,7.36-2.01,7.86-7.19,11.08-7.99,11.53-.16.11-.33.22-.49.32-1.77,1.05-3.84,1.43-5.89,1.07-.22-.04-.45-.09-.67-.14-2-.51-3.74-1.71-4.95-3.41-1.28-1.82-1.61-4.03-1.1-6.03.41-1.6,1.36-3.07,2.79-4.1,1.4-1,3.22-1.34,4.94-.94h.01s.13.03.13.03c2.34.59,4.07,2.24,4.48,4.42.15.79.12,1.58-.07,2.33-.31,1.2-1.03,2.28-2.08,3.02h0c-.44.31-.99.4-1.47.27-.4-.1-.76-.35-1.02-.7-.31-.44-.4-.99-.27-1.47.1-.4.34-.76.7-1.02.34-.24.58-.59.68-.99.06-.25.07-.51.02-.76-.08-.38-.26-.7-.56-.99-.3-.28-.74-.51-1.29-.65l-.08-.02h0c-.73-.17-1.5-.02-2.03.36-.73.52-1.21,1.27-1.42,2.08-.26,1.03-.09,2.16.56,3.09.71,1.01,1.73,1.71,2.91,2.01.13.03.26.06.4.08,1.35.23,2.69-.07,3.8-.85h.02s.13-.09.13-.09h.01s0-.01,0-.01c.17-.1,4.6-2.57,6.32-9.33.46-1.81.73-3.93.67-6.4h0c-.06-3.51.33-7.02,1.08-9.95.26-1.02.56-1.97.91-2.82h0s.16-.42.16-.42c1.8-4.82,5.91-8.38,10.96-9.51,2.32-.52,4.63-.49,6.79.06,2.34.6,4.5,1.8,6.3,3.56Z"/>
        </g>
        <g>
          <polygon class="cls-2" points="270.26 305.33 270.26 305.33 270.26 305.33 270.26 305.33"/>
          <path class="cls-3" d="m274.77,321.47c-.38-.08-.77-.18-1.14-.28-3.59-1.02-6.62-3.63-8.3-7.14-.34-.7-.62-1.4-.85-2.11-1.4-4.3-.75-8.63,1.93-11.81,1.38-1.64,3.17-2.81,5.14-3.45,2.11-.68,4.42-.75,6.63-.11,2.44.7,4.5,2.46,5.66,4.81.25.51.46,1.03.63,1.55.96,2.94.52,5.95-1.34,8.17-.97,1.16-2.24,1.99-3.62,2.44-1.48.48-3.09.53-4.65.08-2.23-.64-3.87-2.34-4.54-4.39-.4-1.22-.45-2.57-.07-3.9.18-.63.66-1.09,1.23-1.27.34-.11.73-.13,1.1-.02.62.18,1.09.65,1.27,1.23.11.34.13.73.02,1.1-.17.58-.15,1.17.03,1.71.29.9,1.02,1.65,2,1.93.82.23,1.67.21,2.44-.04.73-.24,1.39-.67,1.9-1.28.99-1.19,1.24-2.76.66-4.57-.11-.35-.26-.7-.43-1.06-.7-1.42-1.92-2.46-3.33-2.86-1.48-.43-3.02-.38-4.43.07-1.31.43-2.5,1.21-3.42,2.3-1.82,2.16-2.26,5.01-1.25,8.17.18.55.41,1.12.68,1.68,1.26,2.6,3.36,4.42,5.95,5.16.29.08.59.16.88.22,1.94.41,3.87.3,5.67-.28,1.67-.54,3.23-1.5,4.58-2.84,2.96-2.96,4.22-7.14,3.38-11.19l-.1-.49v-.02c-.14-.78-.37-1.64-.66-2.55-.87-2.69-2.38-5.8-4.2-8.57h0c-1.64-2.46-2.74-4.8-3.45-6.99-2.63-8.12.16-13.9.62-14.75.08-.19.17-.38.26-.56.98-1.93,2.61-3.43,4.63-4.27.22-.09.45-.17.67-.25,2.07-.67,4.29-.59,6.32.26,2.16.9,3.7,2.68,4.37,4.75.54,1.65.52,3.5-.18,5.22-.68,1.68-2.12,3-3.87,3.61h-.01s-.13.05-.13.05c-2.41.79-4.88.3-6.48-1.41-.58-.61-1-1.34-1.25-2.11-.4-1.24-.37-2.61.15-3.86h0c.22-.53.65-.91,1.16-1.07.41-.13.87-.12,1.3.05.53.22.91.65,1.07,1.16.13.41.13.87-.05,1.3-.17.4-.18.85-.05,1.26.08.25.22.49.41.69.28.3.63.48,1.06.56.43.08.94.04,1.52-.15l.08-.03h0c.74-.25,1.35-.82,1.61-1.46.35-.88.36-1.81.09-2.65-.35-1.06-1.13-1.97-2.24-2.43-1.2-.5-2.5-.55-3.72-.15-.13.04-.27.09-.4.15-1.33.55-2.35,1.57-2.9,2.89v.02s-.08.15-.08.15h0s0,.02,0,.02c-.1.19-2.64,4.87-.38,11.85.61,1.87,1.56,3.9,3,6.07h0c2.02,3.09,3.65,6.43,4.64,9.46.34,1.05.61,2.07.78,3.02h0s.1.46.1.46c1.11,5.3-.54,10.78-4.4,14.63-1.77,1.76-3.84,3.04-6.08,3.76-2.41.78-5.01.93-7.61.38Z"/>
        </g>
        <g>
          <polygon class="cls-22" points="306.21 271.71 306.21 271.71 306.21 271.71 306.21 271.71"/>
          <path class="cls-23" d="m322.01,277.3c-.05-.39-.12-.78-.21-1.16-.78-3.65-3.18-6.84-6.57-8.77-.68-.38-1.36-.71-2.05-.99-4.19-1.69-8.56-1.33-11.91,1.14-1.73,1.27-3.02,2.98-3.79,4.9-.82,2.06-1.05,4.36-.56,6.61.54,2.48,2.15,4.65,4.42,5.97.49.29,1,.53,1.5.73,2.87,1.16,5.9.92,8.24-.79,1.23-.89,2.14-2.1,2.68-3.45.58-1.44.73-3.05.39-4.63-.49-2.27-2.08-4.02-4.08-4.82-1.19-.48-2.54-.62-3.88-.33-.64.13-1.13.58-1.35,1.14-.13.33-.17.72-.09,1.09.14.63.58,1.13,1.14,1.35.33.13.72.17,1.09.09.59-.13,1.17-.07,1.7.14.88.35,1.58,1.13,1.8,2.12.18.83.1,1.68-.2,2.43-.28.71-.76,1.34-1.4,1.81-1.26.91-2.84,1.05-4.61.35-.34-.14-.68-.3-1.03-.5-1.37-.79-2.32-2.08-2.63-3.51-.33-1.51-.18-3.04.37-4.42.51-1.28,1.37-2.42,2.53-3.26,2.27-1.67,5.15-1.92,8.24-.7.54.22,1.09.48,1.63.79,2.51,1.43,4.18,3.65,4.74,6.28.06.3.12.59.16.9.28,1.96.04,3.88-.66,5.64-.65,1.63-1.71,3.12-3.14,4.38-3.15,2.76-7.4,3.73-11.39,2.62l-.48-.13h-.02c-.77-.2-1.61-.48-2.5-.83-2.63-1.05-5.63-2.77-8.27-4.77h0c-2.34-1.8-4.61-3.06-6.74-3.91-7.92-3.17-13.88-.77-14.76-.37-.2.07-.39.14-.57.22-1.99.85-3.6,2.37-4.57,4.34-.11.21-.2.43-.29.65-.81,2.02-.87,4.24-.17,6.32.75,2.21,2.42,3.87,4.44,4.68,1.61.65,3.45.76,5.22.18,1.72-.57,3.14-1.91,3.86-3.61h0s.05-.14.05-.14c.95-2.35.62-4.85-.97-6.56-.57-.62-1.27-1.08-2.02-1.39-1.21-.49-2.58-.54-3.86-.11h0c-.54.19-.95.59-1.14,1.08-.16.4-.18.86-.03,1.3.18.54.59.95,1.08,1.15.4.16.86.19,1.3.04.41-.14.86-.12,1.26.04.25.1.47.25.66.46.28.3.44.66.49,1.09.05.43-.02.94-.25,1.5l-.03.08h0c-.3.72-.91,1.28-1.57,1.5-.9.29-1.83.24-2.65-.09-1.04-.42-1.89-1.26-2.27-2.4-.42-1.23-.38-2.53.1-3.72.05-.13.11-.26.17-.39.64-1.29,1.73-2.24,3.08-2.7h.02s.15-.07.15-.07h.01s0-.01,0-.01c.2-.08,5.03-2.31,11.85.42,1.82.73,3.79,1.82,5.86,3.41h0c2.94,2.23,6.17,4.08,9.12,5.26,1.03.41,2.02.74,2.97.98h0s.45.13.45.13c5.22,1.46,10.79.18,14.89-3.41,1.88-1.65,3.29-3.63,4.16-5.81.94-2.36,1.26-4.94.89-7.56Z"/>
        </g>
        <g>
          <path class="cls-21" d="m275.24,275.34c.59.34,1.22.63,1.83.88-.23-.57-.5-1.18-.83-1.76-.54-.96-1.21-1.82-1.96-2.33h0c-.23-.15-.41-.2-.57-.2-.24,0-.47.12-.64.28-.16.16-.28.39-.28.64,0,.16.05.35.2.57.47.71,1.31,1.37,2.26,1.91Z"/>
          <path class="cls-20" d="m269.78,272.85c0,.78.24,1.56.71,2.26,1.22,1.81,3.3,2.99,5.1,3.76,1.79.76,3.31,1.11,3.47,1.15h0s0,0,0,0c0,0,0,0,0,0h0c.1.02.2.03.3.03.42,0,.8-.19,1.07-.46.27-.27.45-.64.46-1.07,0-.1-.01-.2-.03-.3-.03-.14-.38-1.67-1.15-3.47-.77-1.8-1.95-3.88-3.76-5.1-.7-.47-1.48-.71-2.26-.71-1,0-1.99.4-2.75,1.16l.37.37-.37-.37c-.76.76-1.16,1.74-1.16,2.75Zm3.28-.63c.17-.16.4-.28.64-.28.16,0,.35.05.57.2h0c.75.5,1.43,1.37,1.96,2.33.33.58.6,1.18.83,1.76-.61-.25-1.24-.54-1.83-.88-.95-.54-1.79-1.2-2.26-1.91-.15-.23-.2-.41-.2-.57,0-.24.12-.47.28-.64Z"/>
        </g>
        <g>
          <path class="cls-10" d="m262.32,260.53c-.59-.34-1.22-.63-1.83-.88.23.57.5,1.18.83,1.76.54.96,1.21,1.82,1.96,2.33h0c.23.15.41.2.57.2.24,0,.47-.12.64-.28.16-.16.28-.39.28-.64,0-.16-.05-.35-.2-.57-.47-.71-1.31-1.37-2.26-1.91Z"/>
          <path class="cls-16" d="m267.78,263.03c0-.78-.24-1.56-.71-2.26-1.22-1.81-3.3-2.99-5.1-3.76-1.79-.76-3.31-1.11-3.47-1.15h0s0,0,0,0c0,0,0,0,0,0h0c-.1-.02-.2-.03-.3-.03-.42,0-.8.19-1.07.46-.27.27-.45.64-.46,1.07,0,.1.01.2.03.3.03.14.38,1.67,1.15,3.47.77,1.8,1.95,3.88,3.76,5.1.7.47,1.48.71,2.26.71,1,0,1.99-.4,2.75-1.16l-.37-.37.37.37c.76-.76,1.16-1.74,1.16-2.75Zm-3.28.63c-.17.16-.4.28-.64.28-.16,0-.35-.05-.57-.2h0c-.75-.5-1.43-1.37-1.96-2.33-.33-.58-.6-1.18-.83-1.76.61.25,1.24.54,1.83.88.95.54,1.79,1.2,2.26,1.91.15.23.19.41.2.57,0,.24-.12.47-.28.64Z"/>
        </g>
        <path class="cls-18" d="m297.47,301.18c0-2.07,1.67-3.74,3.74-3.74s3.74,1.67,3.74,3.74-1.67,3.74-3.74,3.74-3.74-1.67-3.74-3.74Z"/>
        <g>
          <path class="cls-19" d="m280.59,320.72c0,.92.75,1.66,1.67,1.65,10.27-.07,20.12-4.12,27.39-11.28,7.28-7.17,11.41-16.89,11.49-27.04,0-.92-.73-1.67-1.65-1.67-.92,0-1.67.73-1.67,1.65h0c-.08,9.27-3.85,18.14-10.5,24.7-6.65,6.55-15.67,10.27-25.08,10.33-.92,0-1.66.75-1.65,1.67Z"/>
          <path class="cls-11" d="m247.31,280.54c.8,0,1.46-.64,1.46-1.44h0c.07-8.11,3.37-15.87,9.19-21.61,5.82-5.73,13.71-8.99,21.95-9.04.8,0,1.45-.66,1.44-1.46,0-.8-.66-1.45-1.46-1.44-8.99.06-17.6,3.6-23.97,9.87-6.37,6.27-9.98,14.77-10.06,23.66,0,.8.64,1.46,1.44,1.46Z"/>
        </g>
      </g>
      <g>
        <path class="cls-17" d="m27.77,298.82c.64,0,1.28.05,1.89.18,2.41.48,4.04,2.43,4.04,4.86s-1.62,4.38-4.04,4.86h0c-5.67,1.13-12.91-3.48-13.22-3.67-.4-.26-.65-.71-.65-1.19s.24-.93.65-1.19c.27-.18,6.05-3.85,11.32-3.85Zm1.34,7.13c1.3-.26,1.76-1.25,1.76-2.09s-.46-1.83-1.76-2.09c-2.78-.55-6.5.84-9,2.08,2.31,1.16,6.06,2.67,9,2.09h0Z"/>
        <path class="cls-13" d="m39.74,302.43c.13,0,.25,0,.38.01.81.01,6.68.22,10.64,7.28,1.23,2.16,2.89,4.19,4.32,5.27l.24.19c1.77,1.42,4.12,1.84,6.28,1.13,2.03-.66,3.5-2.19,4.04-4.19.05-.16.08-.32.11-.49.28-1.42-.08-2.88-1.02-4.11-1.35-1.77-3.11-2.55-4.84-2.15-1.53.36-2.71,1.59-3.01,3.13-.14.74.05,1.53.54,2.18.74.99,1.67,1.43,2.59,1.23.79-.18,1.39-.81,1.55-1.61.14-.74-.34-1.45-1.06-1.59-.77-.15-1.27-.89-1.12-1.66.15-.77.9-1.26,1.66-1.12,2.26.44,3.74,2.64,3.3,4.9-.36,1.9-1.81,3.4-3.69,3.83-2.02.46-4.07-.39-5.49-2.29-.96-1.28-1.34-2.89-1.04-4.41.51-2.64,2.53-4.74,5.14-5.35,2.82-.66,5.71.54,7.73,3.19,1.41,1.86,1.98,4.18,1.55,6.37-.05.23-.1.46-.16.69-.79,2.93-2.94,5.17-5.89,6.14-3.08,1.01-6.42.4-8.93-1.62l-.21-.17c-1.71-1.3-3.61-3.59-5.04-6.11-2.79-4.98-6.55-5.72-7.77-5.83,1.01.34,1.84,1.13,2.21,2.16.5,1.41.09,2.93-1.11,4.09-.83.81-2.02,1.23-3.11,1.13-2.58-.23-4.5-2.51-4.3-5.1.12-1.48.8-2.83,1.93-3.8,1.01-.87,2.28-1.34,3.6-1.34Zm-.9,7.43c.29,0,.59-.13.82-.35.39-.37.53-.76.41-1.1-.1-.26-.34-.45-.61-.47-.78-.06-1.36-.74-1.3-1.52.03-.34.18-.65.4-.88-.21.1-.4.23-.58.38-.56.48-.89,1.14-.95,1.88-.08,1.05.69,1.97,1.73,2.06.03,0,.05,0,.08,0Z"/>
        <path class="cls-14" d="m59.48,288.21c1,0,2,.16,2.98.48,2.95.96,5.1,3.2,5.9,6.14.06.22.11.45.16.68.43,2.19-.13,4.51-1.55,6.37-2.02,2.66-4.91,3.85-7.73,3.19-2.61-.61-4.63-2.71-5.14-5.35-.29-1.52.09-3.12,1.04-4.41,1.42-1.9,3.47-2.76,5.49-2.29,1.88.43,3.33,1.93,3.69,3.83.44,2.26-1.05,4.46-3.3,4.9-.76.15-1.51-.35-1.66-1.12-.15-.77.35-1.51,1.12-1.66.73-.14,1.21-.86,1.07-1.59-.15-.8-.76-1.43-1.55-1.61-.91-.21-1.86.24-2.59,1.23-.48.65-.68,1.44-.54,2.18.3,1.55,1.48,2.78,3.01,3.13,1.72.4,3.49-.38,4.84-2.15.94-1.23,1.3-2.69,1.02-4.11-.03-.16-.07-.32-.11-.48-.54-2.01-2.01-3.53-4.04-4.2-2.17-.71-4.52-.28-6.28,1.13l-.21.17c-1.46,1.11-3.12,3.13-4.36,5.31-3.95,7.05-9.78,7.3-10.64,7.27-1.44.1-2.86-.37-3.98-1.32-1.13-.97-1.81-2.32-1.93-3.8-.2-2.59,1.73-4.87,4.3-5.1,1.12-.1,2.28.32,3.11,1.13,1.2,1.15,1.61,2.68,1.11,4.09-.37,1.03-1.2,1.82-2.21,2.17,1.21-.1,4.97-.83,7.77-5.82,1.44-2.53,3.34-4.82,5.08-6.14l.18-.14c1.71-1.38,3.81-2.09,5.95-2.09Zm-20.93,13.95c-.23-.23-.37-.53-.4-.88-.06-.78.52-1.46,1.3-1.52.28-.02.52-.21.61-.47.12-.34-.02-.73-.41-1.1-.25-.24-.57-.37-.9-.35-1.04.09-1.81,1.02-1.73,2.06.06.73.4,1.4.95,1.88.18.15.37.28.58.38Z"/>
      </g>
      <g>
        <path class="cls-12" d="m309.24,22.63c0,.64-.05,1.28-.18,1.89-.48,2.41-2.43,4.04-4.86,4.04s-4.38-1.62-4.86-4.04h0c-1.13-5.67,3.48-12.91,3.67-13.22.26-.4.71-.65,1.19-.65s.93.24,1.19.65c.18.27,3.85,6.05,3.85,11.32Zm-7.13,1.34c.26,1.3,1.25,1.76,2.09,1.76s1.83-.46,2.09-1.76c.55-2.78-.84-6.5-2.08-9-1.16,2.31-2.67,6.06-2.09,9h0Z"/>
        <path class="cls-15" d="m305.63,34.6c0,.13,0,.25-.01.38-.01.81-.22,6.68-7.28,10.64-2.16,1.23-4.19,2.89-5.27,4.32l-.19.24c-1.42,1.77-1.84,4.12-1.13,6.28.66,2.03,2.19,3.5,4.19,4.04.16.05.32.08.49.11,1.42.28,2.88-.08,4.11-1.02,1.77-1.35,2.55-3.11,2.15-4.84-.36-1.53-1.59-2.71-3.13-3.01-.74-.14-1.53.05-2.18.54-.99.74-1.43,1.67-1.23,2.59.18.79.81,1.39,1.61,1.55.74.14,1.45-.34,1.59-1.06.15-.77.89-1.27,1.66-1.12.77.15,1.26.9,1.12,1.66-.44,2.26-2.64,3.74-4.9,3.3-1.9-.36-3.4-1.81-3.83-3.69-.46-2.02.39-4.07,2.29-5.49,1.28-.96,2.89-1.34,4.41-1.04,2.64.51,4.74,2.53,5.35,5.14.66,2.82-.54,5.71-3.19,7.73-1.86,1.41-4.18,1.98-6.37,1.55-.23-.05-.46-.1-.69-.16-2.93-.79-5.17-2.94-6.14-5.89-1.01-3.08-.4-6.42,1.62-8.93l.17-.21c1.3-1.71,3.59-3.61,6.11-5.04,4.98-2.79,5.72-6.55,5.83-7.77-.34,1.01-1.13,1.84-2.16,2.21-1.41.5-2.93.09-4.09-1.11-.81-.83-1.23-2.02-1.13-3.11.23-2.57,2.51-4.5,5.1-4.3,1.48.12,2.83.8,3.8,1.93.87,1.01,1.34,2.28,1.34,3.6Zm-7.43-.9c0,.29.13.59.35.82.37.39.76.53,1.1.41.27-.1.45-.34.47-.61.06-.78.74-1.36,1.52-1.3.34.03.65.18.88.4-.1-.21-.23-.4-.38-.58-.48-.56-1.14-.89-1.88-.95-1.05-.08-1.97.69-2.06,1.73,0,.03,0,.05,0,.08Z"/>
        <path class="cls-24" d="m319.85,54.34c0,1-.16,2-.48,2.98-.96,2.95-3.2,5.1-6.14,5.9-.22.06-.45.11-.68.16-2.19.43-4.51-.13-6.37-1.55-2.66-2.02-3.85-4.91-3.19-7.73.61-2.61,2.71-4.63,5.35-5.14,1.52-.29,3.12.09,4.41,1.04,1.9,1.42,2.76,3.47,2.29,5.49-.43,1.88-1.93,3.33-3.83,3.69-2.26.44-4.46-1.05-4.9-3.3-.15-.76.35-1.51,1.12-1.66.77-.15,1.51.35,1.66,1.12.14.73.86,1.21,1.59,1.07.8-.15,1.43-.76,1.61-1.55.21-.91-.24-1.86-1.23-2.59-.65-.48-1.44-.68-2.18-.54-1.55.3-2.78,1.48-3.13,3.01-.4,1.72.38,3.49,2.15,4.84,1.23.94,2.69,1.3,4.11,1.02.16-.03.32-.07.48-.11,2.01-.54,3.53-2.01,4.2-4.04.71-2.17.28-4.52-1.13-6.28l-.17-.21c-1.11-1.46-3.13-3.12-5.31-4.36-7.05-3.95-7.3-9.78-7.27-10.64-.1-1.44.37-2.86,1.32-3.98.97-1.13,2.32-1.81,3.8-1.93,2.59-.2,4.87,1.73,5.1,4.3.1,1.12-.32,2.28-1.13,3.11-1.15,1.2-2.68,1.61-4.09,1.11-1.03-.37-1.82-1.2-2.17-2.21.1,1.21.83,4.97,5.82,7.77,2.53,1.44,4.82,3.34,6.14,5.08l.14.18c1.38,1.71,2.09,3.81,2.09,5.95Zm-13.95-20.93c.23-.23.53-.37.88-.4.78-.06,1.46.52,1.52,1.3.02.28.21.52.47.61.34.12.73-.02,1.1-.41.24-.25.37-.57.35-.9-.09-1.04-1.02-1.81-2.06-1.73-.73.06-1.4.4-1.88.95-.15.18-.28.37-.38.58Z"/>
      </g>
    </g>
  </g>
</svg>