{
	"asset":{
		"generator":"Khronos glTF Blender I/O v3.5.30",
		"version":"2.0"
	},
	"scene":0,
	"scenes":[
		{
			"name":"Scene",
			"nodes":[
				0
			]
		}
	],
	"nodes":[
		{
			"mesh":0,
			"name":"Livre_Bleu"
		}
	],
	"materials":[
		{
			"doubleSided":true,
			"name":"Couv.001",
			"pbrMetallicRoughness":{
				"baseColorTexture":{
					"index":0
				},
				"metallicFactor":0
			}
		},
		{
			"doubleSided":true,
			"name":"Pages.001",
			"pbrMetallicRoughness":{
				"baseColorTexture":{
					"index":1
				},
				"metallicFactor":0,
				"roughnessFactor":0.5
			}
		}
	],
	"meshes":[
		{
			"name":"Plane.003",
			"primitives":[
				{
					"attributes":{
						"POSITION":0,
						"TEXCOORD_0":1,
						"NORMAL":2
					},
					"indices":3,
					"material":0
				},
				{
					"attributes":{
						"POSITION":4,
						"TEXCOORD_0":5,
						"NORMAL":6
					},
					"indices":7,
					"material":1
				}
			]
		}
	],
	"textures":[
		{
			"sampler":0,
			"source":0
		},
		{
			"sampler":0,
			"source":1
		}
	],
	"images":[
		{
			"bufferView":4,
			"mimeType":"image/jpeg",
			"name":"Couleur_2"
		},
		{
			"bufferView":9,
			"mimeType":"image/jpeg",
			"name":"Couleur_2"
		}
	],
	"accessors":[
		{
			"bufferView":0,
			"componentType":5126,
			"count":50,
			"max":[
				0.15379850566387177,
				0.03490450978279114,
				0.10949292778968811
			],
			"min":[
				-0.1538258194923401,
				-0.0017185169272124767,
				-0.11447446048259735
			],
			"type":"VEC3"
		},
		{
			"bufferView":1,
			"componentType":5126,
			"count":50,
			"type":"VEC2"
		},
		{
			"bufferView":2,
			"componentType":5126,
			"count":50,
			"type":"VEC3"
		},
		{
			"bufferView":3,
			"componentType":5123,
			"count":84,
			"type":"SCALAR"
		},
		{
			"bufferView":5,
			"componentType":5126,
			"count":24,
			"max":[
				0.1487567126750946,
				0.03130834177136421,
				0.10002541542053223
			],
			"min":[
				-0.1487567126750946,
				0.0015228523407131433,
				-0.1075081154704094
			],
			"type":"VEC3"
		},
		{
			"bufferView":6,
			"componentType":5126,
			"count":24,
			"type":"VEC2"
		},
		{
			"bufferView":7,
			"componentType":5126,
			"count":24,
			"type":"VEC3"
		},
		{
			"bufferView":8,
			"componentType":5123,
			"count":36,
			"type":"SCALAR"
		}
	],
	"bufferViews":[
		{
			"buffer":0,
			"byteLength":600,
			"byteOffset":0,
			"target":34962
		},
		{
			"buffer":0,
			"byteLength":400,
			"byteOffset":600,
			"target":34962
		},
		{
			"buffer":0,
			"byteLength":600,
			"byteOffset":1000,
			"target":34962
		},
		{
			"buffer":0,
			"byteLength":168,
			"byteOffset":1600,
			"target":34963
		},
		{
			"buffer":0,
			"byteLength":93475,
			"byteOffset":1768
		},
		{
			"buffer":0,
			"byteLength":288,
			"byteOffset":95244,
			"target":34962
		},
		{
			"buffer":0,
			"byteLength":192,
			"byteOffset":95532,
			"target":34962
		},
		{
			"buffer":0,
			"byteLength":288,
			"byteOffset":95724,
			"target":34962
		},
		{
			"buffer":0,
			"byteLength":72,
			"byteOffset":96012,
			"target":34963
		},
		{
			"buffer":0,
			"byteLength":58216,
			"byteOffset":96084
		}
	],
	"samplers":[
		{
			"magFilter":9729,
			"minFilter":9987
		}
	],
	"buffers":[
		{
			"byteLength":154300,
			"uri":"data:application/octet-stream;base64,"
		}
	]
}
