{
	"asset":{
		"generator":"Khronos glTF Blender I/O v3.5.30",
		"version":"2.0"
	},
	"scene":0,
	"scenes":[
		{
			"name":"Scene",
			"nodes":[
				0,
				1,
				2
			]
		}
	],
	"nodes":[
		{
			"mesh":0,
			"name":"Cube.002",
			"scale":[
				0.1487567126750946,
				0.03319305181503296,
				0.10002541542053223
			]
		},
		{
			"mesh":1,
			"name":"Plane.001"
		},
		{
			"mesh":2,
			"name":"Livre_Vert"
		}
	],
	"materials":[
		{
			"doubleSided":true,
			"name":"Pages",
			"pbrMetallicRoughness":{
				"baseColorTexture":{
					"index":0
				},
				"metallicFactor":0,
				"roughnessFactor":0.5
			}
		},
		{
			"doubleSided":true,
			"name":"Couv",
			"pbrMetallicRoughness":{
				"baseColorTexture":{
					"index":1
				},
				"metallicFactor":0
			}
		},
		{
			"doubleSided":true,
			"name":"Couv.001",
			"pbrMetallicRoughness":{
				"baseColorTexture":{
					"index":2
				},
				"metallicFactor":0
			}
		},
		{
			"doubleSided":true,
			"name":"Pages.001",
			"pbrMetallicRoughness":{
				"baseColorTexture":{
					"index":3
				},
				"metallicFactor":0,
				"roughnessFactor":0.5
			}
		}
	],
	"meshes":[
		{
			"name":"Cube.001",
			"primitives":[
				{
					"attributes":{
						"POSITION":0,
						"TEXCOORD_0":1,
						"NORMAL":2
					},
					"indices":3,
					"material":0
				}
			]
		},
		{
			"name":"Plane.001",
			"primitives":[
				{
					"attributes":{
						"POSITION":4,
						"TEXCOORD_0":5,
						"NORMAL":6
					},
					"indices":7,
					"material":1
				}
			]
		},
		{
			"name":"Plane.003",
			"primitives":[
				{
					"attributes":{
						"POSITION":8,
						"TEXCOORD_0":9,
						"NORMAL":10
					},
					"indices":7,
					"material":2
				},
				{
					"attributes":{
						"POSITION":11,
						"TEXCOORD_0":12,
						"NORMAL":13
					},
					"indices":3,
					"material":3
				}
			]
		}
	],
	"textures":[
		{
			"sampler":0,
			"source":0
		},
		{
			"sampler":0,
			"source":1
		},
		{
			"sampler":0,
			"source":1
		},
		{
			"sampler":0,
			"source":0
		}
	],
	"images":[
		{
			"bufferView":4,
			"mimeType":"image/jpeg",
			"name":"Couleur_2"
		},
		{
			"bufferView":9,
			"mimeType":"image/jpeg",
			"name":"Couleur_Verte_2"
		}
	],
	"accessors":[
		{
			"bufferView":0,
			"componentType":5126,
			"count":24,
			"max":[
				1,
				0.9432197213172913,
				1
			],
			"min":[
				-1,
				0.04587864875793457,
				-1.0748080015182495
			],
			"type":"VEC3"
		},
		{
			"bufferView":1,
			"componentType":5126,
			"count":24,
			"type":"VEC2"
		},
		{
			"bufferView":2,
			"componentType":5126,
			"count":24,
			"type":"VEC3"
		},
		{
			"bufferView":3,
			"componentType":5123,
			"count":36,
			"type":"SCALAR"
		},
		{
			"bufferView":5,
			"componentType":5126,
			"count":50,
			"max":[
				0.15379850566387177,
				0.03490450978279114,
				0.10949292778968811
			],
			"min":[
				-0.1538258194923401,
				-0.0017185169272124767,
				-0.11447446048259735
			],
			"type":"VEC3"
		},
		{
			"bufferView":6,
			"componentType":5126,
			"count":50,
			"type":"VEC2"
		},
		{
			"bufferView":7,
			"componentType":5126,
			"count":50,
			"type":"VEC3"
		},
		{
			"bufferView":8,
			"componentType":5123,
			"count":84,
			"type":"SCALAR"
		},
		{
			"bufferView":10,
			"componentType":5126,
			"count":50,
			"max":[
				0.15379850566387177,
				0.03490450978279114,
				0.10949292778968811
			],
			"min":[
				-0.1538258194923401,
				-0.0017185169272124767,
				-0.11447446048259735
			],
			"type":"VEC3"
		},
		{
			"bufferView":11,
			"componentType":5126,
			"count":50,
			"type":"VEC2"
		},
		{
			"bufferView":12,
			"componentType":5126,
			"count":50,
			"type":"VEC3"
		},
		{
			"bufferView":13,
			"componentType":5126,
			"count":24,
			"max":[
				0.1487567126750946,
				0.03130834177136421,
				0.10002541542053223
			],
			"min":[
				-0.1487567126750946,
				0.0015228523407131433,
				-0.1075081154704094
			],
			"type":"VEC3"
		},
		{
			"bufferView":14,
			"componentType":5126,
			"count":24,
			"type":"VEC2"
		},
		{
			"bufferView":15,
			"componentType":5126,
			"count":24,
			"type":"VEC3"
		}
	],
	"bufferViews":[
		{
			"buffer":0,
			"byteLength":288,
			"byteOffset":0,
			"target":34962
		},
		{
			"buffer":0,
			"byteLength":192,
			"byteOffset":288,
			"target":34962
		},
		{
			"buffer":0,
			"byteLength":288,
			"byteOffset":480,
			"target":34962
		},
		{
			"buffer":0,
			"byteLength":72,
			"byteOffset":768,
			"target":34963
		},
		{
			"buffer":0,
			"byteLength":58216,
			"byteOffset":840
		},
		{
			"buffer":0,
			"byteLength":600,
			"byteOffset":59056,
			"target":34962
		},
		{
			"buffer":0,
			"byteLength":400,
			"byteOffset":59656,
			"target":34962
		},
		{
			"buffer":0,
			"byteLength":600,
			"byteOffset":60056,
			"target":34962
		},
		{
			"buffer":0,
			"byteLength":168,
			"byteOffset":60656,
			"target":34963
		},
		{
			"buffer":0,
			"byteLength":171024,
			"byteOffset":60824
		},
		{
			"buffer":0,
			"byteLength":600,
			"byteOffset":231848,
			"target":34962
		},
		{
			"buffer":0,
			"byteLength":400,
			"byteOffset":232448,
			"target":34962
		},
		{
			"buffer":0,
			"byteLength":600,
			"byteOffset":232848,
			"target":34962
		},
		{
			"buffer":0,
			"byteLength":288,
			"byteOffset":233448,
			"target":34962
		},
		{
			"buffer":0,
			"byteLength":192,
			"byteOffset":233736,
			"target":34962
		},
		{
			"buffer":0,
			"byteLength":288,
			"byteOffset":233928,
			"target":34962
		}
	],
	"samplers":[
		{
			"magFilter":9729,
			"minFilter":9987
		}
	],
	"buffers":[
		{
			"byteLength":234216,
			"uri":"data:application/octet-stream;base64,"
		}
	]
}
