{
	"asset":{
		"generator":"Khronos glTF Blender I/O v3.5.30",
		"version":"2.0"
	},
	"scene":0,
	"scenes":[
		{
			"name":"Scene",
			"nodes":[
				0,
				1
			]
		}
	],
	"nodes":[
		{
			"mesh":0,
			"name":"Cover"
		},
		{
			"mesh":1,
			"name":"Book",
			"scale":[
				0.1487567126750946,
				0.03319305181503296,
				0.10002541542053223
			]
		}
	],
	"materials":[
		{
			"doubleSided":true,
			"name":"Couv",
			"pbrMetallicRoughness":{
				"baseColorTexture":{
					"index":0
				},
				"metallicFactor":0
			}
		},
		{
			"doubleSided":true,
			"name":"Pages",
			"pbrMetallicRoughness":{
				"baseColorTexture":{
					"index":1
				},
				"metallicFactor":0,
				"roughnessFactor":0.5
			}
		}
	],
	"meshes":[
		{
			"name":"Plane.002",
			"primitives":[
				{
					"attributes":{
						"POSITION":0,
						"TEXCOORD_0":1,
						"NORMAL":2
					},
					"indices":3,
					"material":0
				}
			]
		},
		{
			"name":"Cube.004",
			"primitives":[
				{
					"attributes":{
						"POSITION":4,
						"TEXCOORD_0":5,
						"NORMAL":6
					},
					"indices":7,
					"material":1
				}
			]
		}
	],
	"textures":[
		{
			"sampler":0,
			"source":0
		},
		{
			"sampler":0,
			"source":1
		}
	],
	"images":[
		{
			"bufferView":4,
			"mimeType":"image/jpeg",
			"name":"Couleur_Rouge_2"
		},
		{
			"bufferView":9,
			"mimeType":"image/jpeg",
			"name":"Couleur_2"
		}
	],
	"accessors":[
		{
			"bufferView":0,
			"componentType":5126,
			"count":240,
			"max":[
				0.15379850566387177,
				0.03490450978279114,
				0.10941947251558304
			],
			"min":[
				-0.15379850566387177,
				-0.0017185169272124767,
				-0.11447310447692871
			],
			"type":"VEC3"
		},
		{
			"bufferView":1,
			"componentType":5126,
			"count":240,
			"type":"VEC2"
		},
		{
			"bufferView":2,
			"componentType":5126,
			"count":240,
			"type":"VEC3"
		},
		{
			"bufferView":3,
			"componentType":5123,
			"count":468,
			"type":"SCALAR"
		},
		{
			"bufferView":5,
			"componentType":5126,
			"count":24,
			"max":[
				1,
				0.9432197213172913,
				1
			],
			"min":[
				-1,
				0.04587864875793457,
				-1.0748080015182495
			],
			"type":"VEC3"
		},
		{
			"bufferView":6,
			"componentType":5126,
			"count":24,
			"type":"VEC2"
		},
		{
			"bufferView":7,
			"componentType":5126,
			"count":24,
			"type":"VEC3"
		},
		{
			"bufferView":8,
			"componentType":5123,
			"count":36,
			"type":"SCALAR"
		}
	],
	"bufferViews":[
		{
			"buffer":0,
			"byteLength":2880,
			"byteOffset":0,
			"target":34962
		},
		{
			"buffer":0,
			"byteLength":1920,
			"byteOffset":2880,
			"target":34962
		},
		{
			"buffer":0,
			"byteLength":2880,
			"byteOffset":4800,
			"target":34962
		},
		{
			"buffer":0,
			"byteLength":936,
			"byteOffset":7680,
			"target":34963
		},
		{
			"buffer":0,
			"byteLength":155696,
			"byteOffset":8616
		},
		{
			"buffer":0,
			"byteLength":288,
			"byteOffset":164312,
			"target":34962
		},
		{
			"buffer":0,
			"byteLength":192,
			"byteOffset":164600,
			"target":34962
		},
		{
			"buffer":0,
			"byteLength":288,
			"byteOffset":164792,
			"target":34962
		},
		{
			"buffer":0,
			"byteLength":72,
			"byteOffset":165080,
			"target":34963
		},
		{
			"buffer":0,
			"byteLength":58216,
			"byteOffset":165152
		}
	],
	"samplers":[
		{
			"magFilter":9729,
			"minFilter":9987
		}
	],
	"buffers":[
		{
			"byteLength":223368,
			"uri":"data:application/octet-stream;base64,"
		}
	]
}
