{
	"asset":{
		"generator":"Khronos glTF Blender I/O v3.5.30",
		"version":"2.0"
	},
	"scene":0,
	"scenes":[
		{
			"name":"Scene",
			"nodes":[
				0,
				1
			]
		}
	],
	"nodes":[
		{
			"mesh":0,
			"name":"Cube.002",
			"scale":[
				0.1487567126750946,
				0.03319305181503296,
				0.10002541542053223
			]
		},
		{
			"mesh":1,
			"name":"Plane.001"
		}
	],
	"materials":[
		{
			"doubleSided":true,
			"name":"Pages",
			"pbrMetallicRoughness":{
				"baseColorTexture":{
					"index":0
				},
				"metallicFactor":0,
				"roughnessFactor":0.5
			}
		},
		{
			"doubleSided":true,
			"name":"Couv",
			"pbrMetallicRoughness":{
				"baseColorTexture":{
					"index":1
				},
				"metallicFactor":0
			}
		}
	],
	"meshes":[
		{
			"name":"Cube.001",
			"primitives":[
				{
					"attributes":{
						"POSITION":0,
						"TEXCOORD_0":1
					},
					"indices":2,
					"material":0
				}
			]
		},
		{
			"name":"Plane.001",
			"primitives":[
				{
					"attributes":{
						"POSITION":3,
						"TEXCOORD_0":4
					},
					"indices":5,
					"material":1
				}
			]
		}
	],
	"textures":[
		{
			"sampler":0,
			"source":0
		},
		{
			"sampler":0,
			"source":1
		}
	],
	"images":[
		{
			"bufferView":3,
			"mimeType":"image/jpeg",
			"name":"Couleur_2"
		},
		{
			"bufferView":7,
			"mimeType":"image/jpeg",
			"name":"Couleur_Rouge_2"
		}
	],
	"accessors":[
		{
			"bufferView":0,
			"componentType":5126,
			"count":14,
			"max":[
				1,
				0.9432197213172913,
				1
			],
			"min":[
				-1,
				0.04587864875793457,
				-1.0748080015182495
			],
			"type":"VEC3"
		},
		{
			"bufferView":1,
			"componentType":5126,
			"count":14,
			"type":"VEC2"
		},
		{
			"bufferView":2,
			"componentType":5123,
			"count":36,
			"type":"SCALAR"
		},
		{
			"bufferView":4,
			"componentType":5126,
			"count":48,
			"max":[
				0.15379850566387177,
				0.03490450978279114,
				0.10949292778968811
			],
			"min":[
				-0.1538258194923401,
				-0.0017185169272124767,
				-0.11447446048259735
			],
			"type":"VEC3"
		},
		{
			"bufferView":5,
			"componentType":5126,
			"count":48,
			"type":"VEC2"
		},
		{
			"bufferView":6,
			"componentType":5123,
			"count":84,
			"type":"SCALAR"
		}
	],
	"bufferViews":[
		{
			"buffer":0,
			"byteLength":168,
			"byteOffset":0,
			"target":34962
		},
		{
			"buffer":0,
			"byteLength":112,
			"byteOffset":168,
			"target":34962
		},
		{
			"buffer":0,
			"byteLength":72,
			"byteOffset":280,
			"target":34963
		},
		{
			"buffer":0,
			"byteLength":58216,
			"byteOffset":352
		},
		{
			"buffer":0,
			"byteLength":576,
			"byteOffset":58568,
			"target":34962
		},
		{
			"buffer":0,
			"byteLength":384,
			"byteOffset":59144,
			"target":34962
		},
		{
			"buffer":0,
			"byteLength":168,
			"byteOffset":59528,
			"target":34963
		},
		{
			"buffer":0,
			"byteLength":155696,
			"byteOffset":59696
		}
	],
	"samplers":[
		{
			"magFilter":9729,
			"minFilter":9987
		}
	],
	"buffers":[
		{
			"byteLength":215392,
			"uri":"data:application/octet-stream;base64,"
		}
	]
}
